<svg id="弹框" xmlns="http://www.w3.org/2000/svg" xmlns:xlink="http://www.w3.org/1999/xlink" viewBox="0 0 1609.71 553.8"><defs><style>.cls-1,.cls-43,.cls-5{fill:none;}.cls-2,.cls-35,.cls-37,.cls-6{font-size:14px;font-family:PingFangSC-Regular-GBpc-EUC-H, PingFang SC;}.cls-2{fill:#5e5e5e;}.cls-3{clip-path:url(#clip-path);}.cls-4{fill:#fff;}.cls-43,.cls-5{stroke:#1890ff;stroke-miterlimit:10;}.cls-6{fill:#545454;}.cls-7{clip-path:url(#clip-path-2);}.cls-8{clip-path:url(#clip-path-3);}.cls-9{fill:#1890ff;}.cls-10{clip-path:url(#clip-path-4);}.cls-11{clip-path:url(#clip-path-5);}.cls-12{clip-path:url(#clip-path-6);}.cls-13{clip-path:url(#clip-path-7);}.cls-14{clip-path:url(#clip-path-8);}.cls-15{clip-path:url(#clip-path-9);}.cls-16{clip-path:url(#clip-path-10);}.cls-17{clip-path:url(#clip-path-11);}.cls-18{clip-path:url(#clip-path-12);}.cls-19{clip-path:url(#clip-path-13);}.cls-20{clip-path:url(#clip-path-14);}.cls-21{clip-path:url(#clip-path-15);}.cls-22{clip-path:url(#clip-path-16);}.cls-23{clip-path:url(#clip-path-17);}.cls-24{clip-path:url(#clip-path-18);}.cls-25{clip-path:url(#clip-path-19);}.cls-26{clip-path:url(#clip-path-20);}.cls-27{clip-path:url(#clip-path-21);}.cls-28{clip-path:url(#clip-path-22);}.cls-29{clip-path:url(#clip-path-23);}.cls-30{clip-path:url(#clip-path-24);}.cls-31{clip-path:url(#clip-path-25);}.cls-32{clip-path:url(#clip-path-26);}.cls-33{clip-path:url(#clip-path-27);}.cls-34{clip-path:url(#clip-path-28);}.cls-35{fill:#696969;}.cls-36{clip-path:url(#clip-path-29);}.cls-37{fill:#4a4a4a;}.cls-38{clip-path:url(#clip-path-30);}.cls-39{clip-path:url(#clip-path-31);}.cls-40{clip-path:url(#clip-path-32);}.cls-41{clip-path:url(#clip-path-33);}.cls-42{clip-path:url(#clip-path-34);}.cls-43{stroke-width:2px;}.cls-44{clip-path:url(#clip-path-36);}.cls-45{clip-path:url(#clip-path-37);}.cls-46{clip-path:url(#clip-path-38);}.cls-47{clip-path:url(#clip-path-39);}.cls-48{isolation:isolate;}.cls-49{clip-path:url(#clip-path-40);}.cls-50{clip-path:url(#clip-path-42);}.cls-51{clip-path:url(#clip-path-44);}.cls-52{clip-path:url(#clip-path-45);}.cls-53{clip-path:url(#clip-path-46);}.cls-54{clip-path:url(#clip-path-47);}.cls-55{clip-path:url(#clip-path-48);}.cls-56{clip-path:url(#clip-path-49);}.cls-57{clip-path:url(#clip-path-50);}.cls-58{clip-path:url(#clip-path-51);}.cls-59{clip-path:url(#clip-path-52);}.cls-60{clip-path:url(#clip-path-53);}.cls-61{clip-path:url(#clip-path-54);}.cls-62{clip-path:url(#clip-path-55);}.cls-63{clip-path:url(#clip-path-56);}.cls-64{clip-path:url(#clip-path-57);}.cls-65{clip-path:url(#clip-path-58);}.cls-66{clip-path:url(#clip-path-59);}.cls-67{clip-path:url(#clip-path-60);}.cls-68{clip-path:url(#clip-path-61);}.cls-69{clip-path:url(#clip-path-62);}.cls-70{clip-path:url(#clip-path-63);}.cls-71{clip-path:url(#clip-path-64);}.cls-72{clip-path:url(#clip-path-65);}.cls-73{clip-path:url(#clip-path-66);}.cls-74{clip-path:url(#clip-path-67);}.cls-75{clip-path:url(#clip-path-68);}.cls-76{clip-path:url(#clip-path-69);}.cls-77{clip-path:url(#clip-path-70);}.cls-78{clip-path:url(#clip-path-71);}.cls-79{clip-path:url(#clip-path-72);}.cls-80{clip-path:url(#clip-path-73);}.cls-81{clip-path:url(#clip-path-74);}.cls-82{clip-path:url(#clip-path-75);}.cls-83{clip-path:url(#clip-path-76);}.cls-84{clip-path:url(#clip-path-77);}.cls-85{clip-path:url(#clip-path-78);}.cls-86{clip-path:url(#clip-path-79);}.cls-87{clip-path:url(#clip-path-80);}.cls-88{clip-path:url(#clip-path-81);}.cls-89{clip-path:url(#clip-path-82);}.cls-90{clip-path:url(#clip-path-83);}.cls-91{clip-path:url(#clip-path-84);}.cls-92{clip-path:url(#clip-path-85);}.cls-93{clip-path:url(#clip-path-86);}.cls-94{clip-path:url(#clip-path-87);}.cls-95{clip-path:url(#clip-path-88);}.cls-96{clip-path:url(#clip-path-89);}.cls-97{clip-path:url(#clip-path-90);}.cls-98{clip-path:url(#clip-path-91);}.cls-99{clip-path:url(#clip-path-92);}.cls-100{clip-path:url(#clip-path-93);}.cls-101{clip-path:url(#clip-path-94);}.cls-102{clip-path:url(#clip-path-95);}.cls-103{clip-path:url(#clip-path-96);}.cls-104{clip-path:url(#clip-path-97);}.cls-105{clip-path:url(#clip-path-98);}.cls-106{clip-path:url(#clip-path-99);}.cls-107{clip-path:url(#clip-path-100);}.cls-108{clip-path:url(#clip-path-101);}.cls-109{clip-path:url(#clip-path-102);}.cls-110{clip-path:url(#clip-path-103);}.cls-111{clip-path:url(#clip-path-104);}.cls-112{clip-path:url(#clip-path-105);}.cls-113{clip-path:url(#clip-path-106);}.cls-114{clip-path:url(#clip-path-107);}.cls-115{clip-path:url(#clip-path-108);}.cls-116{clip-path:url(#clip-path-109);}.cls-117{clip-path:url(#clip-path-110);}.cls-118{clip-path:url(#clip-path-111);}.cls-119{clip-path:url(#clip-path-112);}.cls-120{clip-path:url(#clip-path-113);}.cls-121{clip-path:url(#clip-path-114);}.cls-122{clip-path:url(#clip-path-115);}.cls-123{clip-path:url(#clip-path-116);}.cls-124{clip-path:url(#clip-path-117);}.cls-125{clip-path:url(#clip-path-118);}.cls-126{clip-path:url(#clip-path-119);}.cls-127{clip-path:url(#clip-path-120);}.cls-128{clip-path:url(#clip-path-121);}</style><clipPath id="clip-path"><rect class="cls-1" x="158.33" y="269.12" width="88" height="62"/></clipPath><clipPath id="clip-path-2"><rect class="cls-1" x="158.33" y="433.12" width="88" height="62"/></clipPath><clipPath id="clip-path-3"><rect class="cls-1" x="202.33" y="399.69" width="1" height="24"/></clipPath><clipPath id="clip-path-4"><circle class="cls-1" cx="202.83" cy="425.62" r="2.5"/></clipPath><clipPath id="clip-path-5"><circle class="cls-1" cx="202.83" cy="398.62" r="2.5"/></clipPath><clipPath id="clip-path-6"><rect class="cls-1" x="202.43" y="502.57" width="1" height="12"/></clipPath><clipPath id="clip-path-7"><circle class="cls-1" cx="202.83" cy="516.62" r="2.5"/></clipPath><clipPath id="clip-path-8"><circle class="cls-1" cx="202.83" cy="501.62" r="2.5"/></clipPath><clipPath id="clip-path-9"><rect class="cls-1" x="202.33" y="236.26" width="1" height="24"/></clipPath><clipPath id="clip-path-10"><circle class="cls-1" cx="202.83" cy="262.62" r="2.5"/></clipPath><clipPath id="clip-path-11"><circle class="cls-1" cx="202.83" cy="234.62" r="2.5"/></clipPath><clipPath id="clip-path-12"><rect class="cls-1" x="202.3" y="339.85" width="1" height="24"/></clipPath><clipPath id="clip-path-13"><circle class="cls-1" cx="202.83" cy="365.62" r="2.5"/></clipPath><clipPath id="clip-path-14"><circle class="cls-1" cx="202.83" cy="337.62" r="2.5"/></clipPath><clipPath id="clip-path-15"><rect class="cls-1" x="400.33" y="269.12" width="88" height="62"/></clipPath><clipPath id="clip-path-16"><rect class="cls-1" x="400.33" y="433.12" width="88" height="62"/></clipPath><clipPath id="clip-path-17"><rect class="cls-1" x="444.35" y="400.64" width="1" height="24"/></clipPath><clipPath id="clip-path-18"><circle class="cls-1" cx="444.83" cy="426.62" r="2.5"/></clipPath><clipPath id="clip-path-19"><circle class="cls-1" cx="444.83" cy="398.62" r="2.5"/></clipPath><clipPath id="clip-path-20"><rect class="cls-1" x="444.29" y="236.5" width="1" height="24"/></clipPath><clipPath id="clip-path-21"><circle class="cls-1" cx="444.83" cy="262.62" r="2.5"/></clipPath><clipPath id="clip-path-22"><circle class="cls-1" cx="444.83" cy="234.62" r="2.5"/></clipPath><clipPath id="clip-path-23"><rect class="cls-1" x="444.39" y="339.5" width="1" height="24"/></clipPath><clipPath id="clip-path-24"><circle class="cls-1" cx="444.83" cy="365.62" r="2.5"/></clipPath><clipPath id="clip-path-25"><circle class="cls-1" cx="444.83" cy="337.62" r="2.5"/></clipPath><clipPath id="clip-path-26"><rect class="cls-1" x="444.32" y="503.71" width="1" height="12"/></clipPath><clipPath id="clip-path-27"><circle class="cls-1" cx="444.83" cy="517.62" r="2.5"/></clipPath><clipPath id="clip-path-28"><circle class="cls-1" cx="444.83" cy="501.62" r="2.5"/></clipPath><clipPath id="clip-path-29"><rect class="cls-1" x="1411.33" y="6.12" width="88" height="62"/></clipPath><clipPath id="clip-path-30"><path class="cls-1" d="M1430.62,23.12H1437v8.13h-6.42Zm-2.15,8.13h10.72V40h-10.72ZM1426.33,40h15v8.12h-15Z"/></clipPath><clipPath id="clip-path-31"><rect class="cls-1" x="1142.33" y="6.12" width="88" height="62"/></clipPath><clipPath id="clip-path-32"><rect class="cls-1" x="1179.33" y="28.12" width="42" height="19"/></clipPath><clipPath id="clip-path-33"><path class="cls-1" d="M1163.68,23.12v1.29h-.35a6,6,0,0,0-5.27,3.2v-4a.37.37,0,1,0-.73,0v5.15h14.73a6,6,0,0,0-5.54-4.31H1166V23.12Zm-6.35,6.44V40.47h15V30.54a5.33,5.33,0,0,0-.08-1Zm0,11.75a6.14,6.14,0,0,0,2.12,4V47h-1.24v1.12h2.34v-2a6,6,0,0,0,2.74.67h.35v.71h-1.32v.67h4.94v-.67H1166v-.71h.35a6,6,0,0,0,2.74-.67v2h2.33V47h-1.23V45.32a6.11,6.11,0,0,0,2.12-4Z"/></clipPath><clipPath id="clip-path-34"><rect class="cls-1" x="643.33" y="6.12" width="88" height="62"/></clipPath><clipPath id="clip-path-36"><path class="cls-1" d="M713.18,37.78a.65.65,0,0,1-.65.65H696.31a.64.64,0,0,1-.65-.65v-.11a.65.65,0,0,1,.65-.65h16.22a.65.65,0,0,1,.65.65ZM710,46.3a.7.7,0,1,1,.7-.7A.7.7,0,0,1,710,46.3Zm-11.28,0a.7.7,0,1,1,.7-.7A.7.7,0,0,1,698.68,46.3Zm17.72-8.07h-1.52v0l-1.61-9.42a.9.9,0,0,0-.64-.71l-6.45-1.89a.89.89,0,0,0-1,.32L702.57,30l-.89-.77a.87.87,0,0,0-.59-.22h-3.23a.9.9,0,0,0-.84.58L693.8,38a.87.87,0,0,0,0,.22h-1.52a.92.92,0,0,0,0,1.83h1.22l1.89,4.22c0,.36.41.62.91.62h0a2.38,2.38,0,0,0-.11.7,2.52,2.52,0,0,0,5,0,2.33,2.33,0,0,0-.11-.7h6.47a2.38,2.38,0,0,0-.11.7,2.52,2.52,0,1,0,5,0,2.69,2.69,0,0,0-.1-.7h0a.84.84,0,0,0,.91-.62l1.9-4.22h1.22a.9.9,0,0,0,.83-1.25A1,1,0,0,0,716.4,38.23Z"/></clipPath><clipPath id="clip-path-37"><rect class="cls-1" x="158.33" y="6.12" width="88" height="62"/></clipPath><clipPath id="clip-path-38"><rect class="cls-1" x="92.33" y="37.12" width="57" height="1"/></clipPath><clipPath id="clip-path-39"><circle class="cls-1" cx="84.33" cy="37.12" r="8"/></clipPath><clipPath id="clip-path-40"><rect class="cls-1" x="66.33" y="19.12" width="36" height="36"/></clipPath><clipPath id="clip-path-42"><rect class="cls-1" x="76.33" y="29.12" width="16" height="16"/></clipPath><clipPath id="clip-path-44"><circle class="cls-1" cx="84.33" cy="37.12" r="6"/></clipPath><clipPath id="clip-path-45"><circle class="cls-1" cx="151.83" cy="37.62" r="2.5"/></clipPath><clipPath id="clip-path-46"><rect class="cls-1" x="254.33" y="37.12" width="168" height="1"/></clipPath><clipPath id="clip-path-47"><circle class="cls-1" cx="423.83" cy="37.62" r="2.5"/></clipPath><clipPath id="clip-path-48"><circle class="cls-1" cx="256.83" cy="37.62" r="2.5"/></clipPath><clipPath id="clip-path-49"><rect class="cls-1" x="463.33" y="37.12" width="172" height="1"/></clipPath><clipPath id="clip-path-50"><rect class="cls-1" x="735.33" y="37.12" width="172" height="1"/></clipPath><clipPath id="clip-path-51"><rect class="cls-1" x="962.33" y="37.12" width="172" height="1"/></clipPath><clipPath id="clip-path-52"><circle class="cls-1" cx="636.83" cy="37.62" r="2.5"/></clipPath><clipPath id="clip-path-53"><circle class="cls-1" cx="908.83" cy="37.62" r="2.5"/></clipPath><clipPath id="clip-path-54"><circle class="cls-1" cx="1135.83" cy="37.62" r="2.5"/></clipPath><clipPath id="clip-path-55"><circle class="cls-1" cx="465.83" cy="37.62" r="2.5"/></clipPath><clipPath id="clip-path-56"><circle class="cls-1" cx="737.83" cy="37.62" r="2.5"/></clipPath><clipPath id="clip-path-57"><circle class="cls-1" cx="964.83" cy="37.62" r="2.5"/></clipPath><clipPath id="clip-path-58"><rect class="cls-1" x="1507.33" y="37.12" width="60" height="1"/></clipPath><clipPath id="clip-path-59"><circle class="cls-1" cx="1568.83" cy="37.62" r="2.5"/></clipPath><clipPath id="clip-path-60"><circle class="cls-1" cx="1505.83" cy="37.62" r="2.5"/></clipPath><clipPath id="clip-path-61"><rect class="cls-1" x="1343.33" y="37.12" width="60" height="1"/></clipPath><clipPath id="clip-path-62"><circle class="cls-1" cx="1404.83" cy="37.62" r="2.5"/></clipPath><clipPath id="clip-path-63"><circle class="cls-1" cx="1341.83" cy="37.62" r="2.5"/></clipPath><clipPath id="clip-path-64"><rect class="cls-1" x="1238.33" y="37.12" width="60" height="1"/></clipPath><clipPath id="clip-path-65"><circle class="cls-1" cx="1299.83" cy="37.62" r="2.5"/></clipPath><clipPath id="clip-path-66"><circle class="cls-1" cx="1236.83" cy="37.62" r="2.5"/></clipPath><clipPath id="clip-path-67"><rect class="cls-1" x="643.33" y="166.12" width="88" height="62"/></clipPath><clipPath id="clip-path-68"><rect class="cls-1" x="645.33" y="181.12" width="86" height="33"/></clipPath><clipPath id="clip-path-69"><rect class="cls-1" x="643.33" y="269.12" width="88" height="62"/></clipPath><clipPath id="clip-path-70"><rect class="cls-1" x="643.33" y="433.12" width="88" height="62"/></clipPath><clipPath id="clip-path-71"><rect class="cls-1" x="687.32" y="400.34" width="1" height="24"/></clipPath><clipPath id="clip-path-72"><rect class="cls-1" x="687.46" y="76.58" width="1" height="24"/></clipPath><clipPath id="clip-path-73"><circle class="cls-1" cx="687.83" cy="102.62" r="2.5"/></clipPath><clipPath id="clip-path-74"><circle class="cls-1" cx="687.83" cy="74.62" r="2.5"/></clipPath><clipPath id="clip-path-75"><rect class="cls-1" x="687.35" y="134.04" width="1" height="24"/></clipPath><clipPath id="clip-path-76"><circle class="cls-1" cx="687.83" cy="159.62" r="2.5"/></clipPath><clipPath id="clip-path-77"><circle class="cls-1" cx="687.83" cy="131.62" r="2.5"/></clipPath><clipPath id="clip-path-78"><rect class="cls-1" x="687.34" y="236.35" width="1" height="24"/></clipPath><clipPath id="clip-path-79"><circle class="cls-1" cx="687.83" cy="262.62" r="2.5"/></clipPath><clipPath id="clip-path-80"><circle class="cls-1" cx="687.83" cy="234.62" r="2.5"/></clipPath><clipPath id="clip-path-81"><rect class="cls-1" x="687.31" y="339.92" width="1" height="24"/></clipPath><clipPath id="clip-path-82"><circle class="cls-1" cx="687.83" cy="365.62" r="2.5"/></clipPath><clipPath id="clip-path-83"><circle class="cls-1" cx="687.83" cy="337.62" r="2.5"/></clipPath><clipPath id="clip-path-84"><rect class="cls-1" x="739.33" y="199.12" width="24" height="1"/></clipPath><clipPath id="clip-path-85"><circle class="cls-1" cx="765.83" cy="199.62" r="2.5"/></clipPath><clipPath id="clip-path-86"><circle class="cls-1" cx="737.83" cy="199.62" r="2.5"/></clipPath><clipPath id="clip-path-87"><rect class="cls-1" x="1138.33" y="269.12" width="88" height="62"/></clipPath><clipPath id="clip-path-88"><rect class="cls-1" x="1139.33" y="433.12" width="88" height="62"/></clipPath><clipPath id="clip-path-89"><rect class="cls-1" x="1183.34" y="400.59" width="1" height="24"/></clipPath><clipPath id="clip-path-90"><circle class="cls-1" cx="1183.83" cy="426.62" r="2.5"/></clipPath><clipPath id="clip-path-91"><circle class="cls-1" cx="1183.83" cy="398.62" r="2.5"/></clipPath><clipPath id="clip-path-92"><rect class="cls-1" x="1183.33" y="77.12" width="1" height="73"/></clipPath><clipPath id="clip-path-93"><circle class="cls-1" cx="1183.83" cy="149.62" r="2.5"/></clipPath><clipPath id="clip-path-94"><circle class="cls-1" cx="1183.83" cy="74.62" r="2.5"/></clipPath><clipPath id="clip-path-95"><rect class="cls-1" x="1183.44" y="184.78" width="1" height="76"/></clipPath><clipPath id="clip-path-96"><circle class="cls-1" cx="1183.83" cy="262.62" r="2.5"/></clipPath><clipPath id="clip-path-97"><circle class="cls-1" cx="1183.83" cy="182.62" r="2.5"/></clipPath><clipPath id="clip-path-98"><rect class="cls-1" x="1183.34" y="339.59" width="1" height="24"/></clipPath><clipPath id="clip-path-99"><circle class="cls-1" cx="1183.83" cy="365.62" r="2.5"/></clipPath><clipPath id="clip-path-100"><circle class="cls-1" cx="1183.83" cy="337.62" r="2.5"/></clipPath><clipPath id="clip-path-101"><rect class="cls-1" x="63.33" y="303.12" width="1" height="159"/></clipPath><clipPath id="clip-path-102"><circle class="cls-1" cx="687.83" cy="426.62" r="2.5"/></clipPath><clipPath id="clip-path-103"><circle class="cls-1" cx="687.83" cy="398.62" r="2.5"/></clipPath><clipPath id="clip-path-104"><circle class="cls-1" cx="151.83" cy="300.62" r="2.5"/></clipPath><clipPath id="clip-path-105"><circle class="cls-1" cx="63.83" cy="300.62" r="2.5"/></clipPath><clipPath id="clip-path-106"><circle class="cls-1" cx="63.83" cy="398.62" r="2.5"/></clipPath><clipPath id="clip-path-107"><rect class="cls-1" x="65.33" y="464.12" width="85" height="1"/></clipPath><clipPath id="clip-path-108"><circle class="cls-1" cx="151.83" cy="464.62" r="2.5"/></clipPath><clipPath id="clip-path-109"><circle class="cls-1" cx="63.83" cy="464.62" r="2.5"/></clipPath><clipPath id="clip-path-110"><rect class="cls-1" x="64.33" y="398.12" width="1117" height="1"/></clipPath><clipPath id="clip-path-111"><rect class="cls-1" x="65.33" y="300.12" width="85" height="1"/></clipPath><clipPath id="clip-path-112"><circle class="cls-1" cx="737.83" cy="300.62" r="2.5"/></clipPath><clipPath id="clip-path-113"><circle class="cls-1" cx="1131.83" cy="300.62" r="2.5"/></clipPath><clipPath id="clip-path-114"><rect class="cls-1" x="740.33" y="300.12" width="390" height="1"/></clipPath><clipPath id="clip-path-115"><rect class="cls-1" x="496.33" y="297.12" width="139" height="1"/></clipPath><clipPath id="clip-path-116"><circle class="cls-1" cx="636.83" cy="297.62" r="2.5"/></clipPath><clipPath id="clip-path-117"><circle class="cls-1" cx="494.83" cy="297.62" r="2.5"/></clipPath><clipPath id="clip-path-118"><rect class="cls-1" x="254.33" y="300.12" width="138" height="1"/></clipPath><clipPath id="clip-path-119"><circle class="cls-1" cx="393.83" cy="300.62" r="2.5"/></clipPath><clipPath id="clip-path-120"><circle class="cls-1" cx="252.83" cy="300.62" r="2.5"/></clipPath><clipPath id="clip-path-121"><path class="cls-1" d="M191.83,46.43h-1.74a.86.86,0,0,1-.86-.85V42.2a.84.84,0,0,1,.25-.6.86.86,0,0,1,.61-.25h1.74a.86.86,0,0,1,.61.25.84.84,0,0,1,.25.6v3.38A.85.85,0,0,1,191.83,46.43ZM185.77,31.2h-.86a.86.86,0,0,1-.87-.85v-.84a.81.81,0,0,1,.26-.6.86.86,0,0,1,.61-.25h.86a.9.9,0,0,1,.62.25.84.84,0,0,1,.25.6v.84a.84.84,0,0,1-.25.6A.9.9,0,0,1,185.77,31.2Zm0,5.08h-.86a.86.86,0,0,1-.87-.85v-.85a.83.83,0,0,1,.26-.6.9.9,0,0,1,.61-.24h.86a.94.94,0,0,1,.62.24.86.86,0,0,1,.25.6v.85a.86.86,0,0,1-.25.6A.9.9,0,0,1,185.77,36.28Zm0,5.07h-.86a.86.86,0,0,1-.87-.84v-.85a.83.83,0,0,1,.26-.6.86.86,0,0,1,.61-.25h.86a.9.9,0,0,1,.62.25.86.86,0,0,1,.25.6v.85a.82.82,0,0,1-.25.59A.9.9,0,0,1,185.77,41.35Zm-5.2-10.15h-.86a.86.86,0,0,1-.87-.85v-.84a.81.81,0,0,1,.26-.6.86.86,0,0,1,.61-.25h.86a.9.9,0,0,1,.62.25.84.84,0,0,1,.25.6v.84a.84.84,0,0,1-.25.6A.9.9,0,0,1,180.57,31.2Zm0,5.08h-.86a.86.86,0,0,1-.87-.85v-.85a.83.83,0,0,1,.26-.6.9.9,0,0,1,.61-.24h.86a.94.94,0,0,1,.62.24.86.86,0,0,1,.25.6v.85a.86.86,0,0,1-.25.6A.9.9,0,0,1,180.57,36.28Zm0,5.07h-.86a.86.86,0,0,1-.87-.84v-.85a.83.83,0,0,1,.26-.6.86.86,0,0,1,.61-.25h.86a.9.9,0,0,1,.62.25.86.86,0,0,1,.25.6v.85a.82.82,0,0,1-.25.59A.9.9,0,0,1,180.57,41.35Zm14.73,4.23V32.89a1.72,1.72,0,0,0-1.74-1.69H191a.86.86,0,0,1-.61-.25.84.84,0,0,1-.25-.6V27.82a1.72,1.72,0,0,0-1.74-1.7H177.1a1.72,1.72,0,0,0-1.74,1.7V45.58a.84.84,0,0,1-.25.6.86.86,0,0,1-.61.25h-1.3a.85.85,0,1,0,0,1.69h24.26a.85.85,0,1,0,0-1.69h-1.3a.86.86,0,0,1-.61-.25A.84.84,0,0,1,195.3,45.58Z"/></clipPath></defs><text class="cls-2" transform="translate(189.33 223.12)">洗油</text><g class="cls-3"><rect class="cls-4" x="153.33" y="264.12" width="98" height="72"/></g><rect class="cls-5" x="158.33" y="269.12" width="88" height="62"/><text class="cls-6" transform="translate(175.33 305.12)">脱苯装置</text><g class="cls-7"><rect class="cls-4" x="153.33" y="428.12" width="98" height="72"/></g><rect class="cls-5" x="158.33" y="433.12" width="88" height="62"/><text class="cls-6" transform="translate(174.33 469.12)">甲醇装置</text><g class="cls-8"><rect class="cls-9" x="197.33" y="394.69" width="11" height="34"/></g><g class="cls-10"><rect class="cls-9" x="195.33" y="418.12" width="15" height="15"/></g><g class="cls-11"><rect class="cls-9" x="195.33" y="391.12" width="15" height="15"/></g><g class="cls-12"><rect class="cls-9" x="197.43" y="497.57" width="11" height="22"/></g><g class="cls-13"><rect class="cls-9" x="195.33" y="509.12" width="15" height="15"/></g><g class="cls-14"><rect class="cls-9" x="195.33" y="494.12" width="15" height="15"/></g><g class="cls-15"><rect class="cls-9" x="197.33" y="231.26" width="11" height="34"/></g><g class="cls-16"><rect class="cls-9" x="195.33" y="255.12" width="15" height="15"/></g><g class="cls-17"><rect class="cls-9" x="195.33" y="227.12" width="15" height="15"/></g><g class="cls-18"><rect class="cls-9" x="197.3" y="334.85" width="11" height="34"/></g><g class="cls-19"><rect class="cls-9" x="195.33" y="358.12" width="15" height="15"/></g><g class="cls-20"><rect class="cls-9" x="195.33" y="330.12" width="15" height="15"/></g><text class="cls-6" transform="translate(189.33 387.12)">粗苯</text><text class="cls-6" transform="translate(189.33 539.12)">甲醇</text><text class="cls-2" transform="translate(431.33 223.12)">硫酸</text><g class="cls-21"><rect class="cls-4" x="395.33" y="264.12" width="98" height="72"/></g><rect class="cls-5" x="400.33" y="269.12" width="88" height="62"/><text class="cls-6" transform="translate(410.33 305.12)">硫酸铵装置</text><g class="cls-22"><rect class="cls-4" x="395.33" y="428.12" width="98" height="72"/></g><rect class="cls-5" x="400.33" y="433.12" width="88" height="62"/><text class="cls-6" transform="translate(410.33 469.12)">合成氨装置</text><g class="cls-23"><rect class="cls-9" x="439.35" y="395.64" width="11" height="34"/></g><g class="cls-24"><rect class="cls-9" x="437.33" y="419.12" width="15" height="15"/></g><g class="cls-25"><rect class="cls-9" x="437.33" y="391.12" width="15" height="15"/></g><g class="cls-26"><rect class="cls-9" x="439.29" y="231.5" width="11" height="34"/></g><g class="cls-27"><rect class="cls-9" x="437.33" y="255.12" width="15" height="15"/></g><g class="cls-28"><rect class="cls-9" x="437.33" y="227.12" width="15" height="15"/></g><g class="cls-29"><rect class="cls-9" x="439.39" y="334.5" width="11" height="34"/></g><g class="cls-30"><rect class="cls-9" x="437.33" y="358.12" width="15" height="15"/></g><g class="cls-31"><rect class="cls-9" x="437.33" y="330.12" width="15" height="15"/></g><text class="cls-6" transform="translate(425.33 387.12)">硫酸铵</text><g class="cls-32"><rect class="cls-9" x="439.32" y="498.71" width="11" height="22"/></g><g class="cls-33"><rect class="cls-9" x="437.33" y="510.12" width="15" height="15"/></g><g class="cls-34"><rect class="cls-9" x="437.33" y="494.12" width="15" height="15"/></g><text class="cls-35" transform="translate(431.33 539.12)">液氨</text><g class="cls-36"><rect class="cls-4" x="1406.33" y="1.12" width="98" height="72"/></g><rect class="cls-5" x="1411.33" y="6.12" width="88" height="62"/><text class="cls-37" transform="translate(1445.33 43.12)">熄焦塔</text><g class="cls-38"><rect class="cls-9" x="1421.33" y="18.12" width="25" height="35"/></g><g class="cls-39"><rect class="cls-4" x="1137.33" y="1.12" width="98" height="72"/></g><rect class="cls-5" x="1142.33" y="6.12" width="88" height="62"/><g class="cls-40"><text class="cls-6" transform="translate(1179.33 43.12)">炼焦炉</text></g><g class="cls-41"><rect class="cls-9" x="1152.33" y="18.12" width="25" height="35"/></g><g class="cls-42"><rect class="cls-4" x="643.33" y="6.12" width="88" height="62"/></g><g class="cls-42"><rect class="cls-43" x="643.33" y="6.12" width="88" height="62"/></g><text class="cls-37" transform="translate(656.33 43.12)">配煤</text><g class="cls-44"><rect class="cls-9" x="686.33" y="21.12" width="36" height="32"/></g><g class="cls-45"><rect class="cls-4" x="153.33" y="1.12" width="98" height="72"/></g><rect class="cls-5" x="158.33" y="6.12" width="88" height="62"/><text class="cls-6" transform="translate(205.33 43.12)">煤场</text><text class="cls-37" transform="translate(1306.33 43.12)">全焦</text><g class="cls-46"><rect class="cls-9" x="87.33" y="32.12" width="67" height="11"/></g><g class="cls-47"><g class="cls-48"><g class="cls-49"><g class="cls-47"><g class="cls-50"><circle class="cls-4" cx="84.33" cy="37.12" r="8"/></g></g><g class="cls-50"><circle class="cls-43" cx="84.33" cy="37.12" r="8"/></g></g></g></g><g class="cls-51"><rect class="cls-9" x="73.33" y="26.12" width="22" height="22"/></g><g class="cls-52"><rect class="cls-9" x="144.33" y="30.12" width="15" height="15"/></g><g class="cls-53"><rect class="cls-9" x="249.33" y="32.12" width="178" height="11"/></g><g class="cls-54"><rect class="cls-9" x="416.33" y="30.12" width="15" height="15"/></g><g class="cls-55"><rect class="cls-9" x="249.33" y="30.12" width="15" height="15"/></g><g class="cls-56"><rect class="cls-9" x="458.33" y="32.12" width="182" height="11"/></g><g class="cls-57"><rect class="cls-9" x="730.33" y="32.12" width="182" height="11"/></g><g class="cls-58"><rect class="cls-9" x="957.33" y="32.12" width="182" height="11"/></g><g class="cls-59"><rect class="cls-9" x="629.33" y="30.12" width="15" height="15"/></g><g class="cls-60"><rect class="cls-9" x="901.33" y="30.12" width="15" height="15"/></g><g class="cls-61"><rect class="cls-9" x="1128.33" y="30.12" width="15" height="15"/></g><g class="cls-62"><rect class="cls-9" x="458.33" y="30.12" width="15" height="15"/></g><g class="cls-63"><rect class="cls-9" x="730.33" y="30.12" width="15" height="15"/></g><g class="cls-64"><rect class="cls-9" x="957.33" y="30.12" width="15" height="15"/></g><g class="cls-65"><rect class="cls-9" x="1502.33" y="32.12" width="70" height="11"/></g><g class="cls-66"><rect class="cls-9" x="1561.33" y="30.12" width="15" height="15"/></g><g class="cls-67"><rect class="cls-9" x="1498.33" y="30.12" width="15" height="15"/></g><g class="cls-68"><rect class="cls-9" x="1338.33" y="32.12" width="70" height="11"/></g><g class="cls-69"><rect class="cls-9" x="1397.33" y="30.12" width="15" height="15"/></g><g class="cls-70"><rect class="cls-9" x="1334.33" y="30.12" width="15" height="15"/></g><g class="cls-71"><rect class="cls-9" x="1233.33" y="32.12" width="70" height="11"/></g><g class="cls-72"><rect class="cls-9" x="1292.33" y="30.12" width="15" height="15"/></g><g class="cls-73"><rect class="cls-9" x="1229.33" y="30.12" width="15" height="15"/></g><text class="cls-37" transform="translate(431.33 43.12)">原煤</text><text class="cls-37" transform="translate(916.33 43.12)">混合煤</text><text class="cls-37" transform="translate(1575.33 43.12)">煤炭</text><text class="cls-37" transform="translate(44.33 42.12)">原煤</text><g class="cls-74"><rect class="cls-4" x="638.33" y="161.12" width="98" height="72"/></g><rect class="cls-5" x="643.33" y="166.12" width="88" height="62"/><g class="cls-75"><text class="cls-2" transform="translate(674.33 194.12)">化五</text><text class="cls-2" transform="translate(660.33 210.12)">蒸氨装置</text></g><g class="cls-76"><rect class="cls-4" x="638.33" y="264.12" width="98" height="72"/></g><rect class="cls-5" x="643.33" y="269.12" width="88" height="62"/><text class="cls-6" transform="translate(660.33 305.12)">脱硫装置</text><g class="cls-77"><rect class="cls-4" x="638.33" y="428.12" width="98" height="72"/></g><rect class="cls-5" x="643.33" y="433.12" width="88" height="62"/><text class="cls-6" transform="translate(674.33 469.12)">锅炉</text><g class="cls-78"><rect class="cls-9" x="682.32" y="395.34" width="11" height="34"/></g><g class="cls-79"><rect class="cls-9" x="682.46" y="71.58" width="11" height="34"/></g><g class="cls-80"><rect class="cls-9" x="680.33" y="95.12" width="15" height="15"/></g><g class="cls-81"><rect class="cls-9" x="680.33" y="67.12" width="15" height="15"/></g><g class="cls-82"><rect class="cls-9" x="682.35" y="129.04" width="11" height="34"/></g><g class="cls-83"><rect class="cls-9" x="680.33" y="152.12" width="15" height="15"/></g><g class="cls-84"><rect class="cls-9" x="680.33" y="124.12" width="15" height="15"/></g><g class="cls-85"><rect class="cls-9" x="682.34" y="231.35" width="11" height="34"/></g><g class="cls-86"><rect class="cls-9" x="680.33" y="255.12" width="15" height="15"/></g><g class="cls-87"><rect class="cls-9" x="680.33" y="227.12" width="15" height="15"/></g><g class="cls-88"><rect class="cls-9" x="682.31" y="334.92" width="11" height="34"/></g><g class="cls-89"><rect class="cls-9" x="680.33" y="358.12" width="15" height="15"/></g><g class="cls-90"><rect class="cls-9" x="680.33" y="330.12" width="15" height="15"/></g><text class="cls-37" transform="translate(674.33 120.12)">硫酸</text><text class="cls-37" transform="translate(674.33 387.12)">硫磺</text><g class="cls-91"><rect class="cls-9" x="734.33" y="194.12" width="34" height="11"/></g><g class="cls-92"><rect class="cls-9" x="758.33" y="192.12" width="15" height="15"/></g><g class="cls-93"><rect class="cls-9" x="730.33" y="192.12" width="15" height="15"/></g><text class="cls-37" transform="translate(772.33 205.12)">氨⽔</text><g class="cls-94"><rect class="cls-4" x="1133.33" y="264.12" width="98" height="72"/></g><rect class="cls-5" x="1138.33" y="269.12" width="88" height="62"/><text class="cls-6" transform="translate(1155.33 305.12)">冷⿎装置</text><g class="cls-95"><rect class="cls-4" x="1134.33" y="428.12" width="98" height="72"/></g><rect class="cls-5" x="1139.33" y="433.12" width="88" height="62"/><text class="cls-6" transform="translate(1156.33 469.12)">煤⽓发电</text><g class="cls-96"><rect class="cls-9" x="1178.34" y="395.59" width="11" height="34"/></g><g class="cls-97"><rect class="cls-9" x="1176.33" y="419.12" width="15" height="15"/></g><g class="cls-98"><rect class="cls-9" x="1176.33" y="391.12" width="15" height="15"/></g><g class="cls-99"><rect class="cls-9" x="1178.33" y="72.12" width="11" height="83"/></g><g class="cls-100"><rect class="cls-9" x="1176.33" y="142.12" width="15" height="15"/></g><g class="cls-101"><rect class="cls-9" x="1176.33" y="67.12" width="15" height="15"/></g><g class="cls-102"><rect class="cls-9" x="1178.44" y="179.78" width="11" height="86"/></g><g class="cls-103"><rect class="cls-9" x="1176.33" y="255.12" width="15" height="15"/></g><g class="cls-104"><rect class="cls-9" x="1176.33" y="175.12" width="15" height="15"/></g><g class="cls-105"><rect class="cls-9" x="1178.34" y="334.59" width="11" height="34"/></g><g class="cls-106"><rect class="cls-9" x="1176.33" y="358.12" width="15" height="15"/></g><g class="cls-107"><rect class="cls-9" x="1176.33" y="330.12" width="15" height="15"/></g><text class="cls-6" transform="translate(1170.33 387.12)">焦油</text><text class="cls-37" transform="translate(1163.33 171.12)">荒煤⽓</text><g class="cls-108"><rect class="cls-9" x="58.33" y="298.12" width="11" height="169"/></g><g class="cls-109"><rect class="cls-9" x="680.33" y="419.12" width="15" height="15"/></g><g class="cls-110"><rect class="cls-9" x="680.33" y="391.12" width="15" height="15"/></g><text class="cls-2" transform="translate(15.33 404.12)">净煤⽓ </text><g class="cls-111"><rect class="cls-9" x="144.33" y="293.12" width="15" height="15"/></g><g class="cls-112"><rect class="cls-9" x="56.33" y="293.12" width="15" height="15"/></g><g class="cls-113"><rect class="cls-9" x="56.33" y="391.12" width="15" height="15"/></g><g class="cls-114"><rect class="cls-9" x="60.33" y="459.12" width="95" height="11"/></g><g class="cls-115"><rect class="cls-9" x="144.33" y="457.12" width="15" height="15"/></g><g class="cls-116"><rect class="cls-9" x="56.33" y="457.12" width="15" height="15"/></g><g class="cls-117"><rect class="cls-9" x="59.33" y="393.12" width="1127" height="11"/></g><g class="cls-118"><rect class="cls-9" x="60.33" y="295.12" width="95" height="11"/></g><g class="cls-119"><rect class="cls-9" x="730.33" y="293.12" width="15" height="15"/></g><g class="cls-120"><rect class="cls-9" x="1124.33" y="293.12" width="15" height="15"/></g><g class="cls-121"><rect class="cls-9" x="735.33" y="295.12" width="400" height="11"/></g><g class="cls-122"><rect class="cls-9" x="491.33" y="292.12" width="149" height="11"/></g><g class="cls-123"><rect class="cls-9" x="629.33" y="290.12" width="15" height="15"/></g><g class="cls-124"><rect class="cls-9" x="487.33" y="290.12" width="15" height="15"/></g><g class="cls-125"><rect class="cls-9" x="249.33" y="295.12" width="148" height="11"/></g><g class="cls-126"><rect class="cls-9" x="386.33" y="293.12" width="15" height="15"/></g><g class="cls-127"><rect class="cls-9" x="245.33" y="293.12" width="15" height="15"/></g><g class="cls-128"><rect class="cls-9" x="167.33" y="21.12" width="36" height="32"/></g></svg>