<?xml version="1.0" encoding="UTF-8"?>
<svg width="1297px" height="746px" viewBox="0 0 1297 746" version="1.1" xmlns="http://www.w3.org/2000/svg" xmlns:xlink="http://www.w3.org/1999/xlink">
    <title>编组 150</title>
    <defs>
        <filter id="filter-1">
            <feColorMatrix in="SourceGraphic" type="matrix" values="0 0 0 0 0.094118 0 0 0 0 0.564706 0 0 0 0 1.000000 0 0 0 1.000000 0"></feColorMatrix>
        </filter>
    </defs>
    <g id="页面-1" stroke="none" stroke-width="1" fill="none" fill-rule="evenodd">
        <g id="编组-150" transform="translate(0.400000, 1.840000)">
            <g id="编组-168" transform="translate(165.119771, 183.920000)">
                <g id="编组-162" transform="translate(82.880229, 0.000000)">
                    <rect id="矩形备份-61" stroke="#1890FF" stroke-width="0.88" fill="#FFFFFF" x="0.44" y="8.61142857" width="45.76" height="39.9771429"></rect>
                    <ellipse id="椭圆形备份-9" stroke="#1890FF" stroke-width="0.88" fill="#B5DBFF" cx="23.32" cy="49.0285714" rx="22.88" ry="7.73142857"></ellipse>
                    <rect id="矩形" fill="#B5DBFF" x="0.858808571" y="45.3967422" width="44.88" height="3.63174603"></rect>
                    <ellipse id="椭圆形" stroke="#1890FF" stroke-width="0.88" fill="#FFFFFF" cx="23.32" cy="8.17142857" rx="22.88" ry="7.73142857"></ellipse>
                    <path d="M23.32,37.6653968 C16.937656,37.6653968 11.1586259,38.5683087 6.97577361,40.0339981 C4.8862127,40.7661893 3.19932787,41.6356863 2.05015123,42.6078333 C1.03451287,43.4670134 0.44,44.4004455 0.44,45.3968254 C0.44,46.3932053 1.03451287,47.3266374 2.05015123,48.1858175 C3.19932787,49.1579645 4.8862127,50.0274615 6.97577361,50.7596527 C11.1586259,52.2253421 16.937656,53.128254 23.32,53.128254 C29.702344,53.128254 35.4813741,52.2253421 39.6642264,50.7596527 C41.7537873,50.0274615 43.4406721,49.1579645 44.5898488,48.1858175 C45.6054871,47.3266374 46.2,46.3932053 46.2,45.3968254 C46.2,44.4004455 45.6054871,43.4670134 44.5898488,42.6078333 C43.4406721,41.6356863 41.7537873,40.7661893 39.6642264,40.0339981 C35.4813741,38.5683087 29.702344,37.6653968 23.32,37.6653968 Z" id="椭圆形备份-10" stroke="#1890FF" stroke-width="0.88" fill="#B5DBFF"></path>
                    <ellipse id="椭圆形备份-16" fill="#FFFFFF" cx="12.6316667" cy="37.2253968" rx="1" ry="1"></ellipse>
                    <text id="硫酸" font-family="PingFangSC-Regular, PingFang SC" font-size="12.32" font-weight="normal" fill="#5E5E5E">
                        <tspan x="11.68" y="34.12">硫酸</tspan>
                    </text>
                </g>
                <g id="编组-164" transform="translate(68.800229, 93.280000)">
                    <rect id="矩形" stroke="#1890FF" stroke-width="0.88" fill="#FFFFFF" x="2.55795385e-13" y="1.98951966e-13" width="77.44" height="54.56"></rect>
                    <text id="硫酸铵装置" font-family="PingFangSC-Regular, PingFang SC" font-size="12.32" font-weight="normal" line-spacing="14.08" fill="#545454">
                        <tspan x="7.91296" y="32.59136">硫酸铵装置</tspan>
                    </text>
                </g>
                <g id="编组-163" transform="translate(100.725908, 55.842936)" fill="#1890FF">
                    <rect id="矩形备份-6" transform="translate(5.500000, 15.440000) rotate(-270.000000) translate(-5.500000, -15.440000) " x="-9" y="15" width="29" height="1"></rect>
                    <path d="M5.89432073,28.2503969 L8.79432073,32.1170636 C9.05941741,32.4705258 8.98778297,32.9719669 8.63432073,33.2370636 C8.49584379,33.3409213 8.3274169,33.3970636 8.15432073,33.3970636 L2.35432073,33.3970636 C1.91249293,33.3970636 1.55432073,33.0388914 1.55432073,32.5970636 C1.55432073,32.4239674 1.61046302,32.2555405 1.71432073,32.1170636 L4.61432073,28.2503969 C4.87941741,27.8969347 5.38085849,27.8253002 5.73432073,28.0903969 C5.79496526,28.1358803 5.84883733,28.1897524 5.89432073,28.2503969 Z" id="三角形备份-3" transform="translate(5.254321, 30.397064) rotate(-180.000000) translate(-5.254321, -30.397064) "></path>
                </g>
                <g id="编组-166" transform="translate(83.760229, 183.040000)">
                    <rect id="矩形备份-61" stroke="#1890FF" stroke-width="0.88" fill="#FFFFFF" x="0.44" y="8.61142857" width="46.64" height="39.9771429"></rect>
                    <ellipse id="椭圆形备份-9" stroke="#1890FF" stroke-width="0.88" fill="#B5DBFF" cx="23.76" cy="49.0285714" rx="23.32" ry="7.73142857"></ellipse>
                    <rect id="矩形" fill="#B5DBFF" x="0.875012506" y="45.3967422" width="45.7267925" height="3.63174603"></rect>
                    <ellipse id="椭圆形" stroke="#1890FF" stroke-width="0.88" fill="#FFFFFF" cx="23.76" cy="8.17142857" rx="23.32" ry="7.73142857"></ellipse>
                    <path d="M23.76,37.6653968 C17.2551924,37.6653968 11.3653322,38.5686908 7.1022395,40.0348338 C4.97178779,40.7675288 3.25201959,41.6376295 2.08036838,42.610434 C1.04653197,43.468813 0.44,44.4008385 0.44,45.3968254 C0.44,46.3928123 1.04653197,47.3248378 2.08036838,48.1832168 C3.25201959,49.1560213 4.97178779,50.026122 7.1022395,50.758817 C11.3653322,52.22496 17.2551924,53.128254 23.76,53.128254 C30.2648076,53.128254 36.1546678,52.22496 40.4177605,50.758817 C42.5482122,50.026122 44.2679804,49.1560213 45.4396316,48.1832168 C46.473468,47.3248378 47.08,46.3928123 47.08,45.3968254 C47.08,44.4008385 46.473468,43.468813 45.4396316,42.610434 C44.2679804,41.6376295 42.5482122,40.7675288 40.4177605,40.0348338 C36.1546678,38.5686908 30.2648076,37.6653968 23.76,37.6653968 Z" id="椭圆形备份-10" stroke="#1890FF" stroke-width="0.88" fill="#B5DBFF"></path>
                    <ellipse id="椭圆形备份-16" fill="#FFFFFF" cx="12.87" cy="37.2253968" rx="1" ry="1"></ellipse>
                    <text id="硫铵" font-family="PingFangSC-Regular, PingFang SC" font-size="12.32" font-weight="normal" fill="#545454">
                        <tspan x="12.32" y="32.36">硫铵</tspan>
                    </text>
                </g>
                <g id="编组-165" transform="translate(101.702614, 146.531465)" fill="#1890FF">
                    <rect id="矩形备份-6" transform="translate(4.500000, 15.440000) rotate(-270.000000) translate(-4.500000, -15.440000) " x="-10" y="15" width="29" height="1"></rect>
                    <path d="M3.83558432,31.7981728 L0.935584316,27.9315061 C0.670487636,27.5780439 0.742122076,27.0766028 1.09558432,26.8115061 C1.23406125,26.7076484 1.40248814,26.6515061 1.57558432,26.6515061 L7.37558432,26.6515061 C7.81741212,26.6515061 8.17558432,27.0096783 8.17558432,27.4515061 C8.17558432,27.6246023 8.11944202,27.7930292 8.01558432,27.9315061 L5.11558432,31.7981728 C4.85048764,32.151635 4.34904656,32.2232695 3.99558432,31.9581728 C3.93493978,31.9126894 3.88106772,31.8588173 3.83558432,31.7981728 Z" id="三角形备份-17"></path>
                </g>
                <g id="编组-141" transform="translate(0.000000, 24.058869)">
                    <rect id="矩形" stroke="#1890FF" stroke-width="0.88" fill="#FFFFFF" x="0.44" y="1.66113147" width="5.12" height="5.12" rx="2.56"></rect>
                    <rect id="矩形备份-8" fill="#1890FF" x="1.2443639" y="2.47442644" width="3.5" height="3.5" rx="1.75"></rect>
                    <g id="编组-134备份-2" transform="translate(5.462094, 0.000000)" fill="#1890FF">
                        <rect id="矩形备份-6" x="0.52022898" y="3.92272726" width="73" height="1"></rect>
                        <path d="M72.340229,2.35333333 L75.240229,6.22 C75.5053257,6.57346224 75.4336912,7.07490332 75.080229,7.34 C74.941752,7.4438577 74.7733252,7.5 74.600229,7.5 L68.800229,7.5 C68.3584012,7.5 68.000229,7.1418278 68.000229,6.7 C68.000229,6.52690383 68.0563713,6.35847694 68.160229,6.22 L71.060229,2.35333333 C71.3253257,1.99987109 71.8267667,1.92823665 72.180229,2.19333333 C72.2408735,2.23881673 72.2947456,2.2926888 72.340229,2.35333333 Z" id="三角形" transform="translate(71.700229, 4.500000) rotate(-270.000000) translate(-71.700229, -4.500000) "></path>
                    </g>
                </g>
            </g>
            <rect id="矩形备份-61" stroke="#1890FF" stroke-width="0.88" fill="#FFFFFF" x="98.48" y="192.531429" width="45.76" height="39.9771429"></rect>
            <ellipse id="椭圆形备份-9" stroke="#1890FF" stroke-width="0.88" fill="#B5DBFF" cx="121.36" cy="232.948571" rx="22.88" ry="7.73142857"></ellipse>
            <rect id="矩形" fill="#B5DBFF" x="98.8988086" y="229.316742" width="44.88" height="3.63174603"></rect>
            <ellipse id="椭圆形" stroke="#1890FF" stroke-width="0.88" fill="#FFFFFF" cx="121.36" cy="192.091429" rx="22.88" ry="7.73142857"></ellipse>
            <path d="M121.36,221.585397 C114.977656,221.585397 109.198626,222.488309 105.015774,223.953998 C102.926213,224.686189 101.239328,225.555686 100.090151,226.527833 C99.0745129,227.387013 98.48,228.320445 98.48,229.316825 C98.48,230.313205 99.0745129,231.246637 100.090151,232.105818 C101.239328,233.077964 102.926213,233.947461 105.015774,234.679653 C109.198626,236.145342 114.977656,237.048254 121.36,237.048254 C127.742344,237.048254 133.521374,236.145342 137.704226,234.679653 C139.793787,233.947461 141.480672,233.077964 142.629849,232.105818 C143.645487,231.246637 144.24,230.313205 144.24,229.316825 C144.24,228.320445 143.645487,227.387013 142.629849,226.527833 C141.480672,225.555686 139.793787,224.686189 137.704226,223.953998 C133.521374,222.488309 127.742344,221.585397 121.36,221.585397 Z" id="椭圆形备份-10" stroke="#1890FF" stroke-width="0.88" fill="#B5DBFF"></path>
            <ellipse id="椭圆形备份-16" fill="#FFFFFF" cx="110.671667" cy="221.145397" rx="1" ry="1"></ellipse>
            <text id="洗油" font-family="PingFangSC-Regular, PingFang SC" font-size="12.32" font-weight="normal" fill="#5E5E5E">
                <tspan x="109.72" y="218.04">洗油</tspan>
            </text>
            <rect id="矩形" stroke="#1890FF" stroke-width="0.88" fill="#FFFFFF" x="83.96" y="277.2" width="77.44" height="54.56"></rect>
            <text id="脱苯装置" font-family="PingFangSC-Regular, PingFang SC" font-size="12.32" font-weight="normal" line-spacing="14.08" fill="#545454">
                <tspan x="98.03296" y="309.79136">脱苯装置</tspan>
            </text>
            <rect id="矩形备份-61" stroke="#1890FF" stroke-width="0.88" fill="#FFFFFF" x="99.36" y="375.571429" width="46.64" height="39.9771429"></rect>
            <ellipse id="椭圆形备份-9" stroke="#1890FF" stroke-width="0.88" fill="#B5DBFF" cx="122.68" cy="415.988571" rx="23.32" ry="7.73142857"></ellipse>
            <rect id="矩形" fill="#B5DBFF" x="99.7950125" y="412.356742" width="45.7267925" height="3.63174603"></rect>
            <ellipse id="椭圆形" stroke="#1890FF" stroke-width="0.88" fill="#FFFFFF" cx="122.68" cy="375.131429" rx="23.32" ry="7.73142857"></ellipse>
            <path d="M122.68,404.625397 C116.175192,404.625397 110.285332,405.528691 106.02224,406.994834 C103.891788,407.727529 102.17202,408.597629 101.000368,409.570434 C99.966532,410.428813 99.36,411.360838 99.36,412.356825 C99.36,413.352812 99.966532,414.284838 101.000368,415.143217 C102.17202,416.116021 103.891788,416.986122 106.02224,417.718817 C110.285332,419.18496 116.175192,420.088254 122.68,420.088254 C129.184808,420.088254 135.074668,419.18496 139.33776,417.718817 C141.468212,416.986122 143.18798,416.116021 144.359632,415.143217 C145.393468,414.284838 146,413.352812 146,412.356825 C146,411.360838 145.393468,410.428813 144.359632,409.570434 C143.18798,408.597629 141.468212,407.727529 139.33776,406.994834 C135.074668,405.528691 129.184808,404.625397 122.68,404.625397 Z" id="椭圆形备份-10" stroke="#1890FF" stroke-width="0.88" fill="#B5DBFF"></path>
            <ellipse id="椭圆形备份-16" fill="#FFFFFF" cx="111.79" cy="404.185397" rx="1" ry="1"></ellipse>
            <text id="粗苯" font-family="PingFangSC-Regular, PingFang SC" font-size="12.32" font-weight="normal" fill="#545454">
                <tspan x="110.36" y="399.32">粗苯</tspan>
            </text>
            <rect id="矩形备份-6" fill="#1890FF" transform="translate(121.419085, 255.220000) rotate(-270.000000) translate(-121.419085, -255.220000) " x="106.919085" y="254.78" width="29" height="1"></rect>
            <rect id="矩形备份-6" fill="#1890FF" transform="translate(121.270147, 345.860000) rotate(-270.000000) translate(-121.270147, -345.860000) " x="106.770147" y="345.36" width="29" height="1"></rect>
            <g id="编组-135" transform="translate(813.480000, 0.000000)">
                <rect id="矩形备份-26" stroke="#1890FF" stroke-width="0.88" fill="#FFFFFF" x="178.64" y="1.98951966e-13" width="77.44" height="54.56"></rect>
                <text id="熄焦塔" font-family="PingFangSC-Regular, PingFang SC" font-size="12.32" font-weight="normal" fill="#4A4A4A">
                    <tspan x="208.56" y="32.36">熄焦塔</tspan>
                </text>
                <path d="M191.84,29.81 L205.04,29.81 L205.04,36.96 L191.84,36.96 L191.84,29.81 Z M193.725714,22.11 L203.154286,22.11 L203.154286,29.81 L193.725714,29.81 L193.725714,22.11 Z M195.611429,14.96 L201.268571,14.96 L201.268571,22.11 L195.611429,22.11 L195.611429,14.96 Z" id="形状" fill="#1890FF" fill-rule="nonzero"></path>
                <rect id="矩形备份-26" stroke="#1890FF" stroke-width="0.88" fill="#FFFFFF" x="329.36" y="1.98951966e-13" width="77.44" height="54.56"></rect>
                <text id="焦仓" font-family="PingFangSC-Regular, PingFang SC" font-size="12.32" font-weight="normal" fill="#4A4A4A">
                    <tspan x="370.72" y="32.36">焦仓</tspan>
                </text>
                <path d="M359.68,35.9298885 C359.68,36.4988034 359.214376,36.96 358.64,36.96 L344.08,36.96 C343.505624,36.96 343.04,36.4988034 343.04,35.9298885 L343.04,26.6588845 L339.92,26.6588845 L350.66008,16.9881973 C351.056859,16.6306009 351.663141,16.6306009 352.05992,16.9881973 L362.8,26.6588845 L359.68,26.6588845 L359.68,35.9298885 Z M347.2,30.7793307 L347.2,32.8395538 L355.52,32.8395538 L355.52,30.7793307 L347.2,30.7793307 Z" id="形状" fill="#1890FF" fill-rule="nonzero"></path>
                <rect id="矩形备份-68" stroke="#1890FF" stroke-width="0.88" fill="#FFFFFF" x="2.55795385e-13" y="1.98951966e-13" width="77.44" height="54.56"></rect>
                <text id="炼焦炉" font-family="PingFangSC-Regular, PingFang SC" font-size="12.32" font-weight="normal" fill="#545454">
                    <tspan x="32.56" y="32.36">炼焦炉</tspan>
                </text>
                <path d="M26.3663437,30.9615625 C26.2133352,32.3413243 25.5443502,33.6073703 24.4990927,34.4953125 L24.4990927,35.9693125 L25.586864,35.9693125 L25.586864,36.96 L23.5291184,36.96 L23.5291184,35.151875 C22.783642,35.5430039 21.9574122,35.7464293 21.119328,35.7451875 L20.809017,35.7451875 L20.809017,36.36875 L21.970159,36.36875 L21.970159,36.96 L17.6291706,36.96 L17.6291706,36.36875 L18.7903126,36.36875 L18.7903126,35.7451875 L18.4793285,35.7451875 C17.6412443,35.7464293 16.8150144,35.5430039 16.0695381,35.151875 L16.0695381,36.96 L14.0138118,36.96 L14.0138118,35.97 L15.1015831,35.97 L15.1015831,34.496 C14.0563256,33.6080578 13.3873406,32.3420118 13.2343321,30.96225 L26.3663437,30.9615625 Z M26.3993269,20.62225 L26.3993269,30.2231875 L13.200002,30.2231875 L13.200002,21.4864375 C13.1998593,21.1970033 13.2223685,20.9080205 13.2673153,20.62225 L26.4,20.62225 L26.3993269,20.62225 Z M20.809017,14.96 L20.809017,16.0936875 L21.1200011,16.0936875 C23.0532421,16.0929773 24.8322069,17.1717027 25.7571648,18.9055625 L25.7571648,15.3539375 C25.7571648,15.1726328 25.9010684,15.0256563 26.0785824,15.0256563 C26.2560964,15.0256563 26.4,15.1726328 26.4,15.3539375 L26.3993269,19.8831875 L13.436943,19.8831875 C14.1066856,17.6892862 16.0635076,16.1694275 18.3123933,16.0964375 L18.4800016,16.0936875 L18.7909858,16.0936875 L18.7909858,14.96 L20.809017,14.96 Z" id="形状" fill="#1890FF" fill-rule="nonzero" transform="translate(19.800001, 25.960000) scale(-1, 1) translate(-19.800001, -25.960000) "></path>
                <rect id="矩形备份-6" fill="#1890FF" x="258.2" y="27.28" width="65" height="1"></rect>
                <rect id="矩形备份-6" fill="#1890FF" x="407.12" y="27.1153846" width="70" height="1"></rect>
                <rect id="矩形备份-6" fill="#1890FF" x="78.12" y="27.16" width="93" height="1"></rect>
                <path d="M173.26,25.5906061 L176.16,29.4572727 C176.425097,29.810735 176.353462,30.3121761 176,30.5772727 C175.861523,30.6811304 175.693096,30.7372727 175.52,30.7372727 L169.72,30.7372727 C169.278172,30.7372727 168.92,30.3791005 168.92,29.9372727 C168.92,29.7641766 168.976142,29.5957497 169.08,29.4572727 L171.98,25.5906061 C172.245097,25.2371438 172.746538,25.1655094 173.1,25.4306061 C173.160645,25.4760895 173.214517,25.5299615 173.26,25.5906061 Z" id="三角形备份-4" fill="#1890FF" transform="translate(172.620000, 27.737273) rotate(-270.000000) translate(-172.620000, -27.737273) "></path>
                <path d="M321.484983,25.5483342 L324.384983,29.4150009 C324.65008,29.7684631 324.578445,30.2699042 324.224983,30.5350009 C324.086506,30.6388586 323.918079,30.6950009 323.744983,30.6950009 L317.944983,30.6950009 C317.503155,30.6950009 317.144983,30.3368287 317.144983,29.8950009 C317.144983,29.7219047 317.201125,29.5534778 317.304983,29.4150009 L320.204983,25.5483342 C320.47008,25.194872 320.971521,25.1232376 321.324983,25.3883342 C321.385627,25.4338176 321.439499,25.4876897 321.484983,25.5483342 Z" id="三角形备份-5" fill="#1890FF" transform="translate(320.844983, 27.695001) rotate(-270.000000) translate(-320.844983, -27.695001) "></path>
                <path d="M479.26,25.4824611 L482.16,29.3491277 C482.425097,29.70259 482.353462,30.2040311 482,30.4691277 C481.861523,30.5729854 481.693096,30.6291277 481.52,30.6291277 L475.72,30.6291277 C475.278172,30.6291277 474.92,30.2709555 474.92,29.8291277 C474.92,29.6560316 474.976142,29.4876047 475.08,29.3491277 L477.98,25.4824611 C478.245097,25.1289988 478.746538,25.0573644 479.1,25.3224611 C479.160645,25.3679445 479.214517,25.4218165 479.26,25.4824611 Z" id="三角形备份-6" fill="#1890FF" transform="translate(478.620000, 27.629128) rotate(-270.000000) translate(-478.620000, -27.629128) "></path>
                <g id="编组-9" transform="translate(180.640000, 0.000000)"></g>
                <g id="编组-8" transform="translate(1.000000, 0.000000)"></g>
            </g>
            <g id="编组-143" transform="translate(456.200000, 0.000000)">
                <rect id="矩形备份-69" stroke="#1890FF" stroke-width="0.88" fill="#FFFFFF" x="0.44" y="0.44" width="76.56" height="53.68"></rect>
                <text id="配煤" font-family="PingFangSC-Regular, PingFang SC" font-size="12.32" font-weight="normal" line-spacing="14.08" fill="#4A4A4A">
                    <tspan x="41.36" y="34.12">配煤</tspan>
                </text>
                <path d="M33.5036304,28.2577773 L32.1661001,28.2577773 L32.1661001,28.2118648 L30.7485112,19.9214576 C30.6913265,19.6238246 30.4742218,19.3719045 30.1882984,19.2916574 L24.5065059,17.6312204 C24.1864687,17.539595 23.8433606,17.6539771 23.6491298,17.9174751 L21.3286143,20.9634727 L20.5512968,20.2879595 C20.4042828,20.1621054 20.2179275,20.0931378 20.0253948,20.0933302 L17.190217,20.0933302 C16.8587429,20.0933302 16.5613825,20.2993378 16.4472103,20.6087484 L13.6120325,28.0629485 C13.5891586,28.1202393 13.5777217,28.1889085 13.5662847,28.2575777 L12.2287544,28.2575777 C11.7943479,28.268956 11.44,28.6238799 11.44,29.059051 C11.44,29.4940223 11.7943479,29.8491459 12.2287544,29.8605242 L13.3034323,29.8605242 L14.9724367,33.5820349 C14.9838736,33.8912458 15.3269818,34.1202097 15.7726281,34.1202097 L15.784065,34.1202097 C15.7268803,34.3262172 15.6925695,34.5324244 15.6925695,34.7386316 C15.6925695,35.9638975 16.6871888,36.96 17.9103498,36.96 C19.1335107,36.96 20.12813,35.9638975 20.12813,34.7386316 C20.1283618,34.5281026 20.0935642,34.3190377 20.0251976,34.1202097 L25.718427,34.1202097 C25.6612424,34.3262172 25.6269315,34.5324244 25.6269315,34.7386316 C25.6269315,35.9638975 26.6215509,36.96 27.8447118,36.96 C29.0678727,36.96 30.0624921,35.9638975 30.0624921,34.7386316 C30.0624921,34.5324244 30.0281812,34.3148389 29.9709965,34.1202097 L29.9824335,34.1202097 C30.41684,34.1202097 30.759751,33.8796679 30.7826248,33.5820349 L32.4516292,29.8605242 L33.5263071,29.8605242 C33.7434118,29.8605242 33.9378398,29.780277 34.0865199,29.6313607 C34.315105,29.4047527 34.3831881,29.0595065 34.258074,28.7614179 C34.1208308,28.452207 33.8236675,28.2577773 33.5036304,28.2577773 Z M17.9103498,35.3570535 C17.5674388,35.3570535 17.2931494,35.0823768 17.2931494,34.7388312 C17.2931494,34.3952856 17.567636,34.1204093 17.9103498,34.1204093 C18.2418238,34.1204093 18.5277473,34.395086 18.5277473,34.7388312 C18.5277473,35.0823768 18.2534579,35.3570535 17.9103498,35.3570535 Z M27.8332749,35.3570535 C27.4903639,35.3570535 27.2158773,35.0823768 27.2158773,34.7388312 C27.2158773,34.3952856 27.4903639,34.1204093 27.8332749,34.1204093 C28.1761858,34.1204093 28.4504752,34.395086 28.4504752,34.7388312 C28.4504752,35.0823768 28.1761858,35.3570535 27.8332749,35.3570535 Z M30.6682554,27.8567413 C30.6682554,28.1775302 30.41684,28.4292507 30.0968029,28.4292507 L15.8183758,28.4292507 C15.4983387,28.4292507 15.2469232,28.1773306 15.2469232,27.8567413 L15.2469232,27.7653155 C15.2469232,27.4447262 15.5097756,27.1928061 15.8183758,27.1928061 L30.0968029,27.1928061 C30.41684,27.1928061 30.6682554,27.4447262 30.6682554,27.7653155 L30.6682554,27.8567413 Z" id="形状" fill="#1890FF" fill-rule="nonzero"></path>
                <g filter="url(#filter-1)" id="煤">
                    <g transform="translate(11.440000, 17.600000)"></g>
                </g>
            </g>
            <g id="编组-142" transform="translate(634.840000, 0.000000)">
                <rect id="矩形备份-69" stroke="#1890FF" stroke-width="0.88" fill="#FFFFFF" x="0.44" y="0.44" width="76.56" height="53.68"></rect>
                <text id="煤塔" font-family="PingFangSC-Regular, PingFang SC" font-size="12.32" font-weight="normal" fill="#4A4A4A">
                    <tspan x="44.88" y="32.36">煤塔</tspan>
                </text>
                <path d="M18.0756393,17.6227497 L28.8817498,17.6227497 C28.8817498,17.6227497 31.1823138,28.4794783 32.8629484,30.7038308 C32.8629484,31.9602624 31.8444093,32.9788014 30.5879778,32.9788014 L16.938154,32.9788014 C15.6817224,32.9788014 14.6631834,31.9602624 14.6631834,30.7038308 L14.6631834,30.7038308 L14.6631834,30.7038308 C14.6631834,30.7038308 18.7649554,21.2513279 18.0756393,17.6227497 Z M14.0944407,34.9962867 L14.0944407,36.08 C14.0944407,36.5660106 14.4884301,36.96 14.9744407,36.96 L32.551691,36.96 C33.0377016,36.96 33.431691,36.5660106 33.431691,36.08 L33.431691,34.9962867 C33.431691,34.5102761 33.0377016,34.1162867 32.551691,34.1162867 L14.9744407,34.1162867 C14.4884301,34.1162867 14.0944407,34.5102761 14.0944407,34.9962867 Z" id="形状" fill="#1890FF" fill-rule="nonzero"></path>
            </g>
            <g id="编组-144" transform="translate(277.560000, 0.000000)">
                <rect id="矩形备份-70" stroke="#1890FF" stroke-width="0.88" fill="#FFFFFF" x="2.55795385e-13" y="1.98951966e-13" width="77.44" height="54.56"></rect>
                <text id="煤场" font-family="PingFangSC-Regular, PingFang SC" font-size="12.32" font-weight="normal" fill="#545454">
                    <tspan x="41.36" y="32.36">煤场</tspan>
                </text>
                <path d="M32.5306592,34.7261522 L32.5306592,23.556913 C32.5306469,22.734446 31.8477458,22.0677077 31.0053408,22.0676957 L28.7173408,22.0676957 C28.5150632,22.0677014 28.3210688,21.9892514 28.1780369,21.8496048 C28.0350051,21.7099583 27.9546533,21.5205552 27.9546592,21.3230652 L27.9546592,19.0892173 C27.9546469,18.2667503 27.2717458,17.6 26.4293408,17.6 L16.5146592,17.6 C15.6722542,17.6 14.9893531,18.2667503 14.9893408,19.0892173 L14.9893408,34.7261522 C14.9893467,34.9236422 14.9089949,35.1130453 14.7659631,35.2526918 C14.6229312,35.3923384 14.4289368,35.4707884 14.2266592,35.4707827 L13.0826592,35.4707827 C12.6614542,35.4707827 12.32,35.8041553 12.32,36.2153913 C12.32,36.6266273 12.6614542,36.96 13.0826592,36.96 L34.4373408,36.96 C34.8585458,36.96 35.2,36.6266273 35.2,36.2153913 C35.2,35.8041553 34.8585458,35.4707827 34.4373408,35.4707827 L33.2933408,35.4707827 C33.0910632,35.4707884 32.8970688,35.3923384 32.7540369,35.2526918 C32.6110051,35.1130453 32.5306533,34.9236422 32.5306592,34.7261522 L32.5306592,34.7261522 Z M19.5752391,31.0012109 L18.8125798,31.0012109 C18.3913748,31.0012109 18.0499206,30.6678383 18.0499206,30.2566022 L18.0499206,29.5119936 C18.0499206,29.3145073 18.1302634,29.1251076 18.2732904,28.9854616 C18.4163174,28.8458157 18.6103062,28.7673631 18.8125798,28.7673631 L19.5752391,28.7673631 C19.7775166,28.7673631 19.9715111,28.8458073 20.1145429,28.9854539 C20.2575747,29.1251005 20.3379206,29.3145035 20.3379206,29.5119936 L20.3379206,30.2566022 C20.3379206,30.4540885 20.2575662,30.6434859 20.114535,30.7831278 C19.9715038,30.9227696 19.7775127,31.0012109 19.5752391,31.0012109 L19.5752391,31.0012109 Z M19.5752391,26.5335152 L18.8125798,26.5335152 C18.3913748,26.5335152 18.0499206,26.2001426 18.0499206,25.7889066 L18.0499206,25.0442979 C18.0499206,24.8468116 18.1302634,24.6574119 18.2732904,24.517766 C18.4163174,24.37812 18.6103062,24.2996674 18.8125798,24.2996674 L19.5752391,24.2996674 C19.7775166,24.2996674 19.9715111,24.3781117 20.1145429,24.5177582 C20.2575747,24.6574048 20.3379206,24.8468078 20.3379206,25.0442979 L20.3379206,25.7889066 C20.3379206,25.9863929 20.2575662,26.1757903 20.114535,26.3154321 C19.9715038,26.455074 19.7775127,26.5335152 19.5752391,26.5335152 Z M19.5752391,22.0658196 L18.8125798,22.0658196 C18.3913748,22.0658196 18.0499206,21.7324469 18.0499206,21.3212109 L18.0499206,20.5766022 C18.0499206,20.379116 18.1302634,20.1897162 18.2732904,20.0500703 C18.4163174,19.9104244 18.6103062,19.8319717 18.8125798,19.8319717 L19.5752391,19.8319717 C19.7775166,19.8319717 19.9715111,19.910416 20.1145429,20.0500626 C20.2575747,20.1897091 20.3379206,20.3791122 20.3379206,20.5766022 L20.3379206,21.3212109 C20.3379206,21.5186972 20.2575662,21.7080946 20.114535,21.8477365 C19.9715038,21.9873783 19.7775127,22.0658196 19.5752391,22.0658196 L19.5752391,22.0658196 Z M24.1512391,31.0012109 L23.3885798,31.0012109 C22.9673748,31.0012109 22.6259206,30.6678383 22.6259206,30.2566022 L22.6259206,29.5119936 C22.6259206,29.3145073 22.7062634,29.1251076 22.8492904,28.9854616 C22.9923174,28.8458157 23.1863062,28.7673631 23.3885798,28.7673631 L24.1512391,28.7673631 C24.3535166,28.7673631 24.5475111,28.8458073 24.6905429,28.9854539 C24.8335747,29.1251005 24.9139206,29.3145035 24.9139206,29.5119936 L24.9139206,30.2566022 C24.9139206,30.4540885 24.8335662,30.6434859 24.690535,30.7831278 C24.5475038,30.9227696 24.3535127,31.0012109 24.1512391,31.0012109 L24.1512391,31.0012109 Z M24.1512391,26.5335152 L23.3885798,26.5335152 C22.9673748,26.5335152 22.6259206,26.2001426 22.6259206,25.7889066 L22.6259206,25.0442979 C22.6259206,24.8468116 22.7062634,24.6574119 22.8492904,24.517766 C22.9923174,24.37812 23.1863062,24.2996674 23.3885798,24.2996674 L24.1512391,24.2996674 C24.3535166,24.2996674 24.5475111,24.3781117 24.6905429,24.5177582 C24.8335747,24.6574048 24.9139206,24.8468078 24.9139206,25.0442979 L24.9139206,25.7889066 C24.9139206,25.9863929 24.8335662,26.1757903 24.690535,26.3154321 C24.5475038,26.455074 24.3535127,26.5335152 24.1512391,26.5335152 Z M24.1512391,22.0658196 L23.3885798,22.0658196 C22.9673748,22.0658196 22.6259206,21.7324469 22.6259206,21.3212109 L22.6259206,20.5766022 C22.6259206,20.379116 22.7062634,20.1897162 22.8492904,20.0500703 C22.9923174,19.9104244 23.1863062,19.8319717 23.3885798,19.8319717 L24.1512391,19.8319717 C24.3535166,19.8319717 24.5475111,19.910416 24.6905429,20.0500626 C24.8335747,20.1897091 24.9139206,20.3791122 24.9139206,20.5766022 L24.9139206,21.3212109 C24.9139206,21.5186972 24.8335662,21.7080946 24.690535,21.8477365 C24.5475038,21.9873783 24.3535127,22.0658196 24.1512391,22.0658196 L24.1512391,22.0658196 Z M29.4781008,35.4689066 L27.95276,35.4689066 C27.5315549,35.4689066 27.1901008,35.1355339 27.1901008,34.7242979 L27.1901008,31.7458414 C27.1901008,31.5483551 27.2704436,31.3589554 27.4134706,31.2193095 C27.5564976,31.0796635 27.7504863,31.0012109 27.95276,31.0012109 L29.4781008,31.0012109 C29.6803745,31.0012109 29.8743632,31.0796635 30.0173902,31.2193095 C30.1604172,31.3589554 30.24076,31.5483551 30.24076,31.7458414 L30.24076,34.7242979 C30.24076,35.1355339 29.8993058,35.4689066 29.4781008,35.4689066 L29.4781008,35.4689066 Z" id="形状" fill="#1890FF" fill-rule="nonzero"></path>
                <g id="编组-3" transform="translate(0.000000, 0.000000)"></g>
                <g id="厂" transform="translate(12.320000, 17.600000)"></g>
            </g>
            <rect id="矩形备份-6" fill="#1890FF" x="198.6" y="27.16" width="74" height="1"></rect>
            <path d="M271.465949,25.5906061 L274.365949,29.4572727 C274.631045,29.810735 274.559411,30.3121761 274.205949,30.5772727 C274.067472,30.6811304 273.899045,30.7372727 273.725949,30.7372727 L267.925949,30.7372727 C267.484121,30.7372727 267.125949,30.3791005 267.125949,29.9372727 C267.125949,29.7641766 267.182091,29.5957497 267.285949,29.4572727 L270.185949,25.5906061 C270.451045,25.2371438 270.952486,25.1655094 271.305949,25.4306061 C271.366593,25.4760895 271.420465,25.5299615 271.465949,25.5906061 Z" id="三角形" fill="#1890FF" transform="translate(270.825949, 27.737273) rotate(-270.000000) translate(-270.825949, -27.737273) "></path>
            <rect id="矩形" stroke="#1890FF" stroke-width="0.88" fill="#FFFFFF" x="185.8" y="20.68" width="13.2" height="13.2" rx="6.6"></rect>
            <rect id="矩形备份-8" fill="#1890FF" x="187.12" y="22" width="10.56" height="10.56" rx="5.28"></rect>
            <g id="编组-170" transform="translate(306.600000, 114.920000)">
                <g id="编组-141备份" transform="translate(0.000000, 93.058869)">
                    <rect id="矩形" stroke="#1890FF" stroke-width="0.88" fill="#FFFFFF" x="0.44" y="1.66113147" width="5.12" height="5.12" rx="2.56"></rect>
                    <rect id="矩形备份-8" fill="#1890FF" x="1.2443639" y="2.47442644" width="3.5" height="3.5" rx="1.75"></rect>
                    <g id="编组-134备份-2" transform="translate(5.462094, 0.000000)" fill="#1890FF">
                        <rect id="矩形备份-6" x="0.52022898" y="3.92272726" width="73" height="1"></rect>
                        <path d="M72.340229,2.35333333 L75.240229,6.22 C75.5053257,6.57346224 75.4336912,7.07490332 75.080229,7.34 C74.941752,7.4438577 74.7733252,7.5 74.600229,7.5 L68.800229,7.5 C68.3584012,7.5 68.000229,7.1418278 68.000229,6.7 C68.000229,6.52690383 68.0563713,6.35847694 68.160229,6.22 L71.060229,2.35333333 C71.3253257,1.99987109 71.8267667,1.92823665 72.180229,2.19333333 C72.2408735,2.23881673 72.2947456,2.2926888 72.340229,2.35333333 Z" id="三角形" transform="translate(71.700229, 4.500000) rotate(-270.000000) translate(-71.700229, -4.500000) "></path>
                    </g>
                </g>
                <g id="编组-141备份" transform="translate(0.000000, 93.058869)">
                    <rect id="矩形" stroke="#1890FF" stroke-width="0.88" fill="#FFFFFF" x="0.44" y="1.66113147" width="5.12" height="5.12" rx="2.56"></rect>
                    <rect id="矩形备份-8" fill="#1890FF" x="1.2443639" y="2.47442644" width="3.5" height="3.5" rx="1.75"></rect>
                    <g id="编组-134备份-2" transform="translate(5.462094, 0.000000)" fill="#1890FF">
                        <rect id="矩形备份-6" x="0.52022898" y="3.92272726" width="73" height="1"></rect>
                        <path d="M72.340229,2.35333333 L75.240229,6.22 C75.5053257,6.57346224 75.4336912,7.07490332 75.080229,7.34 C74.941752,7.4438577 74.7733252,7.5 74.600229,7.5 L68.800229,7.5 C68.3584012,7.5 68.000229,7.1418278 68.000229,6.7 C68.000229,6.52690383 68.0563713,6.35847694 68.160229,6.22 L71.060229,2.35333333 C71.3253257,1.99987109 71.8267667,1.92823665 72.180229,2.19333333 C72.2408735,2.23881673 72.2947456,2.2926888 72.340229,2.35333333 Z" id="三角形" transform="translate(71.700229, 4.500000) rotate(-270.000000) translate(-71.700229, -4.500000) "></path>
                    </g>
                </g>
                <g id="编组-141备份-3" transform="translate(145.000000, 93.058869)">
                    <rect id="矩形" stroke="#1890FF" stroke-width="0.88" fill="#FFFFFF" x="0.44" y="1.66113147" width="5.12" height="5.12" rx="2.56"></rect>
                    <rect id="矩形备份-8" fill="#1890FF" x="1.2443639" y="2.47442644" width="3.5" height="3.5" rx="1.75"></rect>
                    <g id="编组-134备份-2" transform="translate(5.462094, 0.000000)" fill="#1890FF">
                        <rect id="矩形备份-6" x="0.52022898" y="3.92272726" width="73" height="1"></rect>
                        <path d="M72.340229,2.35333333 L75.240229,6.22 C75.5053257,6.57346224 75.4336912,7.07490332 75.080229,7.34 C74.941752,7.4438577 74.7733252,7.5 74.600229,7.5 L68.800229,7.5 C68.3584012,7.5 68.000229,7.1418278 68.000229,6.7 C68.000229,6.52690383 68.0563713,6.35847694 68.160229,6.22 L71.060229,2.35333333 C71.3253257,1.99987109 71.8267667,1.92823665 72.180229,2.19333333 C72.2408735,2.23881673 72.2947456,2.2926888 72.340229,2.35333333 Z" id="三角形" transform="translate(71.700229, 4.500000) rotate(-270.000000) translate(-71.700229, -4.500000) "></path>
                    </g>
                </g>
                <g id="编组-141备份-8" transform="translate(160.000000, 0.240000)">
                    <rect id="矩形" stroke="#1890FF" stroke-width="0.88" fill="#FFFFFF" x="0.44" y="1.66113147" width="5.12" height="5.12" rx="2.56"></rect>
                    <rect id="矩形备份-8" fill="#1890FF" x="1.2443639" y="2.47442644" width="3.5" height="3.5" rx="1.75"></rect>
                    <g id="编组-134备份-2" transform="translate(5.462094, 0.000000)" fill="#1890FF">
                        <rect id="矩形备份-6" x="0.52022898" y="3.92272726" width="73" height="1"></rect>
                        <path d="M72.340229,2.35333333 L75.240229,6.22 C75.5053257,6.57346224 75.4336912,7.07490332 75.080229,7.34 C74.941752,7.4438577 74.7733252,7.5 74.600229,7.5 L68.800229,7.5 C68.3584012,7.5 68.000229,7.1418278 68.000229,6.7 C68.000229,6.52690383 68.0563713,6.35847694 68.160229,6.22 L71.060229,2.35333333 C71.3253257,1.99987109 71.8267667,1.92823665 72.180229,2.19333333 C72.2408735,2.23881673 72.2947456,2.2926888 72.340229,2.35333333 Z" id="三角形" transform="translate(71.700229, 4.500000) rotate(-270.000000) translate(-71.700229, -4.500000) "></path>
                    </g>
                </g>
                <g id="编组-138" transform="translate(85.000000, 69.000000)">
                    <rect id="矩形备份-61" stroke="#1890FF" stroke-width="0.88" fill="#FFFFFF" x="0.44" y="8.61142857" width="45.76" height="39.9771429"></rect>
                    <ellipse id="椭圆形备份-9" stroke="#1890FF" stroke-width="0.88" fill="#B5DBFF" cx="23.32" cy="49.0285714" rx="22.88" ry="7.73142857"></ellipse>
                    <rect id="矩形" fill="#B5DBFF" x="0.858808571" y="45.3967422" width="44.88" height="3.63174603"></rect>
                    <ellipse id="椭圆形" stroke="#1890FF" stroke-width="0.88" fill="#FFFFFF" cx="23.32" cy="8.17142857" rx="22.88" ry="7.73142857"></ellipse>
                    <path d="M23.32,37.6653968 C16.937656,37.6653968 11.1586259,38.5683087 6.97577361,40.0339981 C4.8862127,40.7661893 3.19932787,41.6356863 2.05015123,42.6078333 C1.03451287,43.4670134 0.44,44.4004455 0.44,45.3968254 C0.44,46.3932053 1.03451287,47.3266374 2.05015123,48.1858175 C3.19932787,49.1579645 4.8862127,50.0274615 6.97577361,50.7596527 C11.1586259,52.2253421 16.937656,53.128254 23.32,53.128254 C29.702344,53.128254 35.4813741,52.2253421 39.6642264,50.7596527 C41.7537873,50.0274615 43.4406721,49.1579645 44.5898488,48.1858175 C45.6054871,47.3266374 46.2,46.3932053 46.2,45.3968254 C46.2,44.4004455 45.6054871,43.4670134 44.5898488,42.6078333 C43.4406721,41.6356863 41.7537873,40.7661893 39.6642264,40.0339981 C35.4813741,38.5683087 29.702344,37.6653968 23.32,37.6653968 Z" id="椭圆形备份-10" stroke="#1890FF" stroke-width="0.88" fill="#B5DBFF"></path>
                    <ellipse id="椭圆形备份-16" fill="#FFFFFF" cx="12.6316667" cy="37.2253968" rx="1" ry="1"></ellipse>
                    <text id="液碱" font-family="PingFangSC-Regular, PingFang SC" font-size="12.32" font-weight="normal" fill="#4A4A4A">
                        <tspan x="11.44" y="32.36">液碱</tspan>
                    </text>
                </g>
            </g>
            <g id="编组-141备份-2" transform="translate(748.215658, 207.953441)" fill="#1890FF">
                <g id="编组-134备份-2" transform="translate(0.462094, 0.000000)">
                    <rect id="矩形备份-6" x="0.52022898" y="4.92272726" width="73" height="1"></rect>
                    <path d="M75.0622481,3.0598927 L77.9622481,6.92655936 C78.2273448,7.2800216 78.1557104,7.78146268 77.8022481,8.04655936 C77.6637712,8.15041706 77.4953443,8.20655936 77.3222481,8.20655936 L71.5222481,8.20655936 C71.0804203,8.20655936 70.7222481,7.84838716 70.7222481,7.40655936 C70.7222481,7.23346319 70.7783904,7.0650363 70.8822481,6.92655936 L73.7822481,3.0598927 C74.0473448,2.70643046 74.5487859,2.63479602 74.9022481,2.8998927 C74.9628926,2.9453761 75.0167647,2.99924816 75.0622481,3.0598927 Z" id="三角形" transform="translate(74.422248, 5.206559) rotate(-270.000000) translate(-74.422248, -5.206559) "></path>
                </g>
            </g>
            <rect id="矩形备份-6" fill="#1890FF" x="19.4353846" y="212.028614" width="73" height="1"></rect>
            <path d="M91.2553846,210.45922 L94.1553846,214.325887 C94.4204813,214.679349 94.3488469,215.18079 93.9953846,215.445887 C93.8569077,215.549744 93.6884808,215.605887 93.5153846,215.605887 L87.7153846,215.605887 C87.2735568,215.605887 86.9153846,215.247714 86.9153846,214.805887 C86.9153846,214.632791 86.9715269,214.464364 87.0753846,214.325887 L89.9753846,210.45922 C90.2404813,210.105758 90.7419224,210.034123 91.0953846,210.29922 C91.1560292,210.344703 91.2099012,210.398575 91.2553846,210.45922 Z" id="三角形" fill="#1890FF" transform="translate(90.615385, 212.605887) rotate(-270.000000) translate(-90.615385, -212.605887) "></path>
            <rect id="矩形" stroke="#1890FF" stroke-width="0.88" fill="#FFFFFF" x="14.5953846" y="209.588614" width="5.12" height="5.12" rx="2.56"></rect>
            <rect id="矩形备份-8" fill="#1890FF" x="15.3997485" y="210.401909" width="3.5" height="3.5" rx="1.75"></rect>
            <rect id="矩形备份-6" fill="#1890FF" x="757.92" y="515.08" width="77" height="1"></rect>
            <path d="M836.74,513.510606 L839.64,517.377273 C839.905097,517.730735 839.833462,518.232176 839.48,518.497273 C839.341523,518.60113 839.173096,518.657273 839,518.657273 L833.2,518.657273 C832.758172,518.657273 832.4,518.299101 832.4,517.857273 C832.4,517.684177 832.456142,517.51575 832.56,517.377273 L835.46,513.510606 C835.725097,513.157144 836.226538,513.085509 836.58,513.350606 C836.640645,513.396089 836.694517,513.449962 836.74,513.510606 Z" id="三角形" fill="#1890FF" transform="translate(836.100000, 515.657273) rotate(-270.000000) translate(-836.100000, -515.657273) "></path>
            <g id="编组-140" transform="translate(702.600000, 183.920000)">
                <rect id="矩形备份-61" stroke="#1890FF" stroke-width="0.88" fill="#FFFFFF" x="0.44" y="8.61142857" width="45.76" height="39.9771429"></rect>
                <ellipse id="椭圆形备份-9" stroke="#1890FF" stroke-width="0.88" fill="#B5DBFF" cx="23.32" cy="49.0285714" rx="22.88" ry="7.73142857"></ellipse>
                <rect id="矩形" fill="#B5DBFF" x="0.858808571" y="45.3967422" width="44.88" height="3.63174603"></rect>
                <ellipse id="椭圆形" stroke="#1890FF" stroke-width="0.88" fill="#FFFFFF" cx="23.32" cy="8.17142857" rx="22.88" ry="7.73142857"></ellipse>
                <path d="M23.32,37.6653968 C16.937656,37.6653968 11.1586259,38.5683087 6.97577361,40.0339981 C4.8862127,40.7661893 3.19932787,41.6356863 2.05015123,42.6078333 C1.03451287,43.4670134 0.44,44.4004455 0.44,45.3968254 C0.44,46.3932053 1.03451287,47.3266374 2.05015123,48.1858175 C3.19932787,49.1579645 4.8862127,50.0274615 6.97577361,50.7596527 C11.1586259,52.2253421 16.937656,53.128254 23.32,53.128254 C29.702344,53.128254 35.4813741,52.2253421 39.6642264,50.7596527 C41.7537873,50.0274615 43.4406721,49.1579645 44.5898488,48.1858175 C45.6054871,47.3266374 46.2,46.3932053 46.2,45.3968254 C46.2,44.4004455 45.6054871,43.4670134 44.5898488,42.6078333 C43.4406721,41.6356863 41.7537873,40.7661893 39.6642264,40.0339981 C35.4813741,38.5683087 29.702344,37.6653968 23.32,37.6653968 Z" id="椭圆形备份-10" stroke="#1890FF" stroke-width="0.88" fill="#B5DBFF"></path>
                <ellipse id="椭圆形备份-16" fill="#FFFFFF" cx="12.6316667" cy="37.2253968" rx="1" ry="1"></ellipse>
                <text id="氨水" font-family="PingFangSC-Regular, PingFang SC" font-size="12.32" font-weight="normal" fill="#4A4A4A">
                    <tspan x="12.32" y="31.48">氨水</tspan>
                </text>
                <g id="编组-134" transform="translate(20.520000, 21.240000)">
                    <g id="编组-133">
                        <g id="编组-132">
                            <g id="编组-39">
                                <g id="编组-6">
                                    <g id="编组">
                                        <g id="编组-12"></g>
                                    </g>
                                </g>
                            </g>
                        </g>
                    </g>
                </g>
            </g>
            <g id="编组-145" transform="translate(532.800000, 22.737273)" fill="#1890FF">
                <rect id="矩形备份-6" x="0" y="4.54272726" width="95" height="1"></rect>
                <path d="M93.94,2.85333333 L96.84,6.72 C97.1050967,7.07346224 97.0334622,7.57490332 96.68,7.84 C96.5415231,7.9438577 96.3730962,8 96.2,8 L90.4,8 C89.9581722,8 89.6,7.6418278 89.6,7.2 C89.6,7.02690383 89.6561423,6.85847694 89.76,6.72 L92.66,2.85333333 C92.9250967,2.49987109 93.4265378,2.42823665 93.78,2.69333333 C93.8406445,2.73881673 93.8945166,2.7926888 93.94,2.85333333 Z" id="三角形备份-2" transform="translate(93.300000, 5.000000) rotate(-270.000000) translate(-93.300000, -5.000000) "></path>
            </g>
            <g id="编组-145" transform="translate(711.800000, 22.737273)" fill="#1890FF">
                <rect id="矩形备份-6" x="0" y="4.54272726" width="95" height="1"></rect>
                <path d="M93.94,2.85333333 L96.84,6.72 C97.1050967,7.07346224 97.0334622,7.57490332 96.68,7.84 C96.5415231,7.9438577 96.3730962,8 96.2,8 L90.4,8 C89.9581722,8 89.6,7.6418278 89.6,7.2 C89.6,7.02690383 89.6561423,6.85847694 89.76,6.72 L92.66,2.85333333 C92.9250967,2.49987109 93.4265378,2.42823665 93.78,2.69333333 C93.8406445,2.73881673 93.8945166,2.7926888 93.94,2.85333333 Z" id="三角形备份-2" transform="translate(93.300000, 5.000000) rotate(-270.000000) translate(-93.300000, -5.000000) "></path>
            </g>
            <rect id="矩形备份-6" fill="#1890FF" x="355.16" y="27.2452525" width="94" height="1"></rect>
            <g id="编组-160" transform="translate(535.960000, 183.920000)">
                <rect id="矩形备份-24" stroke="#1890FF" stroke-width="0.88" fill="#FFFFFF" x="2.55795385e-13" y="1.98951966e-13" width="77.44" height="54.56"></rect>
                <text id="化五-蒸氨装置" font-family="PingFangSC-Regular, PingFang SC" font-size="12.32" font-weight="normal" line-spacing="14.08" fill="#5E5E5E">
                    <tspan x="26.39296" y="25.55136">化五</tspan>
                    <tspan x="14.07296" y="39.63136">蒸氨装置</tspan>
                </text>
            </g>
            <g id="编组-161" transform="translate(550.920000, 90.640000)">
                <rect id="矩形备份-61" stroke="#1890FF" stroke-width="0.88" fill="#FFFFFF" x="0.44" y="8.61142857" width="45.76" height="39.9771429"></rect>
                <ellipse id="椭圆形备份-9" stroke="#1890FF" stroke-width="0.88" fill="#B5DBFF" cx="23.32" cy="49.0285714" rx="22.88" ry="7.73142857"></ellipse>
                <rect id="矩形" fill="#B5DBFF" x="0.858808571" y="45.3967422" width="44.88" height="3.63174603"></rect>
                <ellipse id="椭圆形" stroke="#1890FF" stroke-width="0.88" fill="#FFFFFF" cx="23.32" cy="8.17142857" rx="22.88" ry="7.73142857"></ellipse>
                <path d="M23.32,37.6653968 C16.937656,37.6653968 11.1586259,38.5683087 6.97577361,40.0339981 C4.8862127,40.7661893 3.19932787,41.6356863 2.05015123,42.6078333 C1.03451287,43.4670134 0.44,44.4004455 0.44,45.3968254 C0.44,46.3932053 1.03451287,47.3266374 2.05015123,48.1858175 C3.19932787,49.1579645 4.8862127,50.0274615 6.97577361,50.7596527 C11.1586259,52.2253421 16.937656,53.128254 23.32,53.128254 C29.702344,53.128254 35.4813741,52.2253421 39.6642264,50.7596527 C41.7537873,50.0274615 43.4406721,49.1579645 44.5898488,48.1858175 C45.6054871,47.3266374 46.2,46.3932053 46.2,45.3968254 C46.2,44.4004455 45.6054871,43.4670134 44.5898488,42.6078333 C43.4406721,41.6356863 41.7537873,40.7661893 39.6642264,40.0339981 C35.4813741,38.5683087 29.702344,37.6653968 23.32,37.6653968 Z" id="椭圆形备份-10" stroke="#1890FF" stroke-width="0.88" fill="#B5DBFF"></path>
                <ellipse id="椭圆形备份-16" fill="#FFFFFF" cx="12.6316667" cy="37.2253968" rx="1" ry="1"></ellipse>
                <text id="磷酸" font-family="PingFangSC-Regular, PingFang SC" font-size="12.32" font-weight="normal" fill="#4A4A4A">
                    <tspan x="11.44" y="31.48">磷酸</tspan>
                </text>
                <g id="编组-153" transform="translate(19.651705, 55.580000)" fill="#1890FF">
                    <g id="编组-136">
                        <rect id="矩形备份-6" transform="translate(4.500000, 15.440000) scale(-1, 1) rotate(-90.000000) translate(-4.500000, -15.440000) " x="-10" y="15" width="29" height="1"></rect>
                        <path d="M5.16848944,27.7125076 L8.06848944,31.5791743 C8.33358612,31.9326365 8.26195168,32.4340776 7.90848944,32.6991743 C7.77001251,32.803032 7.60158562,32.8591743 7.42848944,32.8591743 L1.62848944,32.8591743 C1.18666164,32.8591743 0.828489444,32.5010021 0.828489444,32.0591743 C0.828489444,31.8860781 0.884631742,31.7176512 0.988489444,31.5791743 L3.88848944,27.7125076 C4.15358612,27.3590454 4.6550272,27.2874109 5.00848944,27.5525076 C5.06913398,27.597991 5.12300604,27.6518631 5.16848944,27.7125076 Z" id="三角形备份-11" transform="translate(4.528489, 29.859174) scale(-1, 1) rotate(-180.000000) translate(-4.528489, -29.859174) "></path>
                    </g>
                </g>
                <g id="编组-34" transform="translate(10.560000, 21.120000)"></g>
            </g>
            <g id="编组-159" transform="translate(535.960000, 277.200000)">
                <rect id="矩形" stroke="#1890FF" stroke-width="0.88" fill="#FFFFFF" x="2.55795385e-13" y="1.98951966e-13" width="77.44" height="54.56"></rect>
                <text id="脱硫装置" font-family="PingFangSC-Regular, PingFang SC" font-size="12.32" font-weight="normal" line-spacing="14.08" fill="#545454">
                    <tspan x="14.07296" y="32.59136">脱硫装置</tspan>
                </text>
            </g>
            <g id="编组-157" transform="translate(535.960000, 486.640000)">
                <rect id="矩形备份-25" stroke="#1890FF" stroke-width="0.88" fill="#FFFFFF" x="2.55795385e-13" y="1.98951966e-13" width="77.44" height="54.56"></rect>
                <text id="合成氨装置" font-family="PingFangSC-Regular, PingFang SC" font-size="12.32" font-weight="normal" line-spacing="14.08" fill="#545454">
                    <tspan x="7.72" y="33.24">合成氨装置</tspan>
                </text>
                <g id="编组-125" transform="translate(0.000000, 0.000000)"></g>
            </g>
            <g id="编组-156" transform="translate(535.960000, 590.480000)">
                <rect id="矩形备份-29" stroke="#1890FF" stroke-width="0.88" fill="#FFFFFF" x="2.55795385e-13" y="1.98951966e-13" width="77.44" height="54.56"></rect>
                <text id="合成装置" font-family="PingFangSC-Regular, PingFang SC" font-size="12.32" font-weight="normal" line-spacing="14.08" fill="#545454">
                    <tspan x="14.07296" y="32.59136">合成装置</tspan>
                </text>
            </g>
            <rect id="矩形备份-57" stroke="#1890FF" stroke-width="0.88" fill="#FFFFFF" x="814.36" y="590.48" width="77.44" height="54.56"></rect>
            <text id="精馏装置" font-family="PingFangSC-Regular, PingFang SC" font-size="12.32" font-weight="normal" line-spacing="14.08" fill="#545454">
                <tspan x="828.43296" y="623.07136">精馏装置</tspan>
            </text>
            <rect id="矩形备份-58" stroke="#1890FF" stroke-width="0.88" fill="#FFFFFF" x="986.6" y="507.16" width="77.44" height="54.56"></rect>
            <text id="煤气-发电装置" font-family="PingFangSC-Regular, PingFang SC" font-size="12.32" font-weight="normal" line-spacing="14.08" fill="#545454">
                <tspan x="1012.23296" y="532.51136">煤气</tspan>
                <tspan x="999.91296" y="546.59136">发电装置</tspan>
            </text>
            <rect id="矩形备份-63" stroke="#1890FF" stroke-width="0.88" fill="#FFFFFF" x="1105.16" y="410.08" width="77.44" height="54.56"></rect>
            <text id="科宏" font-family="PingFangSC-Regular, PingFang SC" font-size="12.32" font-weight="normal" line-spacing="14.08" fill="#545454">
                <tspan x="1131.38" y="443.32">科宏</tspan>
            </text>
            <rect id="矩形备份-59" stroke="#1890FF" stroke-width="0.88" fill="#FFFFFF" x="986.84" y="314.16" width="77.44" height="54.56"></rect>
            <text id="锅炉装置" font-family="PingFangSC-Regular, PingFang SC" font-size="12.32" font-weight="normal" line-spacing="14.08" fill="#545454">
                <tspan x="1000.91296" y="346.75136">锅炉装置</tspan>
            </text>
            <rect id="矩形备份-62" fill="#1890FF" x="1023.8" y="375.76" width="1" height="124.08"></rect>
            <rect id="矩形" fill="#1890FF" transform="translate(550.880000, 437.740000) scale(1, -1) translate(-550.880000, -437.740000) " x="0.88" y="437.24" width="1100" height="1"></rect>
            <rect id="矩形备份-55" stroke="#1890FF" stroke-width="0.88" fill="#FFFFFF" x="296.92" y="590.48" width="77.44" height="54.56"></rect>
            <rect id="矩形备份-56" stroke="#1890FF" stroke-width="0.88" fill="#FFFFFF" x="83.6" y="590.16" width="77.44" height="54.56"></rect>
            <text id="转化装置" font-family="PingFangSC-Regular, PingFang SC" font-size="12.32" font-weight="normal" line-spacing="14.08" fill="#545454">
                <tspan x="310.99296" y="623.07136">转化装置</tspan>
            </text>
            <text id="干法-脱硫装置" font-family="PingFangSC-Regular, PingFang SC" font-size="12.32" font-weight="normal" line-spacing="14.08" fill="#545454">
                <tspan x="110.23296" y="616.51136">干法</tspan>
                <tspan x="97.91296" y="630.59136">脱硫装置</tspan>
            </text>
            <g id="编组-152" transform="translate(569.628684, 243.081344)" fill="#1890FF">
                <rect id="矩形备份-6" transform="translate(5.500000, 19.777830) rotate(-270.000000) translate(-5.500000, -19.777830) " x="-9" y="19.3378299" width="29" height="1"></rect>
                <path d="M6.11151056,0.853333333 L9.01151056,4.72 C9.27660724,5.07346224 9.2049728,5.57490332 8.85151056,5.84 C8.71303362,5.9438577 8.54460673,6 8.37151056,6 L2.57151056,6 C2.12968276,6 1.77151056,5.6418278 1.77151056,5.2 C1.77151056,5.02690383 1.82765285,4.85847694 1.93151056,4.72 L4.83151056,0.853333333 C5.09660724,0.499871093 5.59804832,0.428236653 5.95151056,0.693333333 C6.01215509,0.738816733 6.06602716,0.792688801 6.11151056,0.853333333 Z" id="三角形备份-10" transform="translate(5.471511, 3.000000) rotate(-360.000000) translate(-5.471511, -3.000000) "></path>
            </g>
            <g id="编组-158" transform="translate(550.920000, 366.960000)">
                <rect id="矩形备份-61" stroke="#1890FF" stroke-width="0.88" fill="#FFFFFF" x="0.44" y="8.61142857" width="46.64" height="39.9771429"></rect>
                <ellipse id="椭圆形备份-9" stroke="#1890FF" stroke-width="0.88" fill="#B5DBFF" cx="23.76" cy="49.0285714" rx="23.32" ry="7.73142857"></ellipse>
                <rect id="矩形" fill="#B5DBFF" x="0.875012506" y="45.3967422" width="45.7267925" height="3.63174603"></rect>
                <ellipse id="椭圆形" stroke="#1890FF" stroke-width="0.88" fill="#FFFFFF" cx="23.76" cy="8.17142857" rx="23.32" ry="7.73142857"></ellipse>
                <path d="M23.76,37.6653968 C17.2551924,37.6653968 11.3653322,38.5686908 7.1022395,40.0348338 C4.97178779,40.7675288 3.25201959,41.6376295 2.08036838,42.610434 C1.04653197,43.468813 0.44,44.4008385 0.44,45.3968254 C0.44,46.3928123 1.04653197,47.3248378 2.08036838,48.1832168 C3.25201959,49.1560213 4.97178779,50.026122 7.1022395,50.758817 C11.3653322,52.22496 17.2551924,53.128254 23.76,53.128254 C30.2648076,53.128254 36.1546678,52.22496 40.4177605,50.758817 C42.5482122,50.026122 44.2679804,49.1560213 45.4396316,48.1832168 C46.473468,47.3248378 47.08,46.3928123 47.08,45.3968254 C47.08,44.4008385 46.473468,43.468813 45.4396316,42.610434 C44.2679804,41.6376295 42.5482122,40.7675288 40.4177605,40.0348338 C36.1546678,38.5686908 30.2648076,37.6653968 23.76,37.6653968 Z" id="椭圆形备份-10" stroke="#1890FF" stroke-width="0.88" fill="#B5DBFF"></path>
                <ellipse id="椭圆形备份-16" fill="#FFFFFF" cx="12.87" cy="37.2253968" rx="1" ry="1"></ellipse>
                <text id="硫磺" font-family="PingFangSC-Regular, PingFang SC" font-size="12.32" font-weight="normal" fill="#4A4A4A">
                    <tspan x="11.44" y="32.36">硫磺</tspan>
                </text>
                <g id="编组-114">
                    <g id="编组-31备份">
                        <g id="编组-99"></g>
                    </g>
                </g>
            </g>
            <g id="编组-155" transform="translate(710.600000, 486.160000)">
                <rect id="矩形备份-61" stroke="#1890FF" stroke-width="0.88" fill="#FFFFFF" x="0.44" y="8.44" width="46.64" height="39.9771429"></rect>
                <ellipse id="椭圆形备份-9" stroke="#1890FF" stroke-width="0.88" fill="#B5DBFF" cx="23.76" cy="48.1714286" rx="23.32" ry="7.73142857"></ellipse>
                <rect id="矩形" fill="#B5DBFF" x="0.877114251" y="44.5306269" width="45.7791862" height="3.63174603"></rect>
                <ellipse id="椭圆形" stroke="#1890FF" stroke-width="0.88" fill="#FFFFFF" cx="23.76" cy="8.17142857" rx="23.32" ry="7.73142857"></ellipse>
                <path d="M23.76,37.44 C17.2551924,37.44 11.3653322,38.343294 7.1022395,39.809437 C4.97178779,40.542132 3.25201959,41.4122327 2.08036838,42.3850372 C1.04653197,43.2434161 0.44,44.1754416 0.44,45.1714286 C0.44,46.1674155 1.04653197,47.099441 2.08036838,47.95782 C3.25201959,48.9306245 4.97178779,49.8007251 7.1022395,50.5334202 C11.3653322,51.9995632 17.2551924,52.9028571 23.76,52.9028571 C30.2648076,52.9028571 36.1546678,51.9995632 40.4177605,50.5334202 C42.5482122,49.8007251 44.2679804,48.9306245 45.4396316,47.95782 C46.473468,47.099441 47.08,46.1674155 47.08,45.1714286 C47.08,44.1754416 46.473468,43.2434161 45.4396316,42.3850372 C44.2679804,41.4122327 42.5482122,40.542132 40.4177605,39.809437 C36.1546678,38.343294 30.2648076,37.44 23.76,37.44 Z" id="椭圆形备份-10" stroke="#1890FF" stroke-width="0.88" fill="#B5DBFF"></path>
                <text id="液氨" font-family="PingFangSC-Regular, PingFang SC" font-size="12.32" font-weight="normal" fill="#4A4A4A">
                    <tspan x="12" y="32">液氨</tspan>
                </text>
            </g>
            <ellipse id="椭圆形备份-16" fill="#FFFFFF" cx="747.95" cy="522.985397" rx="1" ry="1"></ellipse>
            <rect id="矩形备份-61" stroke="#1890FF" stroke-width="0.88" fill="#FFFFFF" x="830.64" y="694.131429" width="46.64" height="39.9771429"></rect>
            <ellipse id="椭圆形备份-9" stroke="#1890FF" stroke-width="0.88" fill="#B5DBFF" cx="853.96" cy="734.548571" rx="23.32" ry="7.73142857"></ellipse>
            <rect id="矩形" fill="#B5DBFF" x="831.075013" y="730.916742" width="45.7267925" height="3.63174603"></rect>
            <ellipse id="椭圆形" stroke="#1890FF" stroke-width="0.88" fill="#FFFFFF" cx="853.96" cy="693.691429" rx="23.32" ry="7.73142857"></ellipse>
            <path d="M853.96,723.185397 C847.455192,723.185397 841.565332,724.088691 837.30224,725.554834 C835.171788,726.287529 833.45202,727.157629 832.280368,728.130434 C831.246532,728.988813 830.64,729.920838 830.64,730.916825 C830.64,731.912812 831.246532,732.844838 832.280368,733.703217 C833.45202,734.676021 835.171788,735.546122 837.30224,736.278817 C841.565332,737.74496 847.455192,738.648254 853.96,738.648254 C860.464808,738.648254 866.354668,737.74496 870.61776,736.278817 C872.748212,735.546122 874.46798,734.676021 875.639632,733.703217 C876.673468,732.844838 877.28,731.912812 877.28,730.916825 C877.28,729.920838 876.673468,728.988813 875.639632,728.130434 C874.46798,727.157629 872.748212,726.287529 870.61776,725.554834 C866.354668,724.088691 860.464808,723.185397 853.96,723.185397 Z" id="椭圆形备份-10" stroke="#1890FF" stroke-width="0.88" fill="#B5DBFF"></path>
            <ellipse id="椭圆形备份-16" fill="#FFFFFF" cx="843.07" cy="722.745397" rx="1" ry="1"></ellipse>
            <g id="编组-151" transform="translate(570.620001, 330.507395)" fill="#1890FF">
                <rect id="矩形备份-6" transform="translate(4.500000, 15.440000) rotate(-270.000000) translate(-4.500000, -15.440000) " x="-10" y="15" width="29" height="1"></rect>
                <path d="M4.04004599,31.7422423 L1.14004599,27.8755756 C0.874949309,27.5221134 0.946583749,27.0206723 1.30004599,26.7555756 C1.43852293,26.6517179 1.60694982,26.5955756 1.78004599,26.5955756 L7.58004599,26.5955756 C8.02187379,26.5955756 8.38004599,26.9537478 8.38004599,27.3955756 C8.38004599,27.5686718 8.32390369,27.7370987 8.22004599,27.8755756 L5.32004599,31.7422423 C5.05494931,32.0957045 4.55350823,32.1673389 4.20004599,31.9022423 C4.13940146,31.8567589 4.08552939,31.8028868 4.04004599,31.7422423 Z" id="三角形备份-17"></path>
            </g>
            <g id="编组-149" transform="translate(571.815165, 438.254923)" fill="#1890FF">
                <rect id="矩形" x="3.28292294" y="-1.63424829e-13" width="1" height="41.36"></rect>
                <path d="M3.06004708,43.9843267 L0.160047081,40.11766 C-0.105049598,39.7641978 -0.0334151588,39.2627567 0.320047081,38.99766 C0.458524018,38.8938023 0.62695091,38.83766 0.800047081,38.83766 L6.60004708,38.83766 C7.04187488,38.83766 7.40004708,39.1958322 7.40004708,39.63766 C7.40004708,39.8107562 7.34390478,39.9791831 7.24004708,40.11766 L4.34004708,43.9843267 C4.0749504,44.3377889 3.57350932,44.4094234 3.22004708,44.1443267 C3.15940255,44.0988433 3.10553048,44.0449712 3.06004708,43.9843267 Z" id="三角形备份-17"></path>
            </g>
            <g id="编组-147" transform="translate(571.808484, 544.894923)" fill="#1890FF">
                <rect id="矩形备份-176" transform="translate(3.610443, 23.804764) rotate(-180.000000) translate(-3.610443, -23.804764) " x="3.11044315" y="2.30476438" width="1" height="43"></rect>
                <path d="M3.06004708,5.14666667 L0.160047081,1.28 C-0.105049598,0.92653776 -0.0334151588,0.42509668 0.320047081,0.16 C0.458524018,0.0561422973 0.62695091,0 0.800047081,0 L6.60004708,0 C7.04187488,0 7.40004708,0.3581722 7.40004708,0.8 C7.40004708,0.973096171 7.34390478,1.14152306 7.24004708,1.28 L4.34004708,5.14666667 C4.0749504,5.50012891 3.57350932,5.57176335 3.22004708,5.30666667 C3.15940255,5.26118327 3.10553048,5.2073112 3.06004708,5.14666667 Z" id="三角形备份-22" transform="translate(3.700024, 2.733357) rotate(-180.000000) translate(-3.700024, -2.733357) "></path>
            </g>
            <rect id="矩形备份-60" fill="#1890FF" x="853.523077" y="645.315791" width="1" height="34"></rect>
            <text id="甲醇" font-family="PingFangSC-Regular, PingFang SC" font-size="12.32" font-weight="normal" fill="#4A4A4A">
                <tspan x="841.64" y="717.88">甲醇</tspan>
            </text>
            <g id="编组-139" transform="translate(613.600000, 208.160000)" fill="#1890FF">
                <rect id="矩形备份-6" x="0" y="4.8" width="82" height="1"></rect>
                <path d="M81.7,2.85333333 L84.6,6.72 C84.8650967,7.07346224 84.7934622,7.57490332 84.44,7.84 C84.3015231,7.9438577 84.1330962,8 83.96,8 L78.16,8 C77.7181722,8 77.36,7.6418278 77.36,7.2 C77.36,7.02690383 77.4161423,6.85847694 77.52,6.72 L80.42,2.85333333 C80.6850967,2.49987109 81.1865378,2.42823665 81.54,2.69333333 C81.6006445,2.73881673 81.6545166,2.7926888 81.7,2.85333333 Z" id="三角形备份-13" transform="translate(81.060000, 5.000000) rotate(-270.000000) translate(-81.060000, -5.000000) "></path>
            </g>
            <g id="编组-148" transform="translate(613.160000, 510.669883)" fill="#1890FF">
                <rect id="矩形备份-6" x="0" y="3.25011656" width="90" height="1"></rect>
                <path d="M90.6053521,6.14666667 L87.7053521,2.28 C87.4402554,1.92653776 87.5118899,1.42509668 87.8653521,1.16 C88.003829,1.0561423 88.1722559,1 88.3453521,1 L94.1453521,1 C94.5871799,1 94.9453521,1.3581722 94.9453521,1.8 C94.9453521,1.97309617 94.8892098,2.14152306 94.7853521,2.28 L91.8853521,6.14666667 C91.6202554,6.50012891 91.1188144,6.57176335 90.7653521,6.30666667 C90.7047076,6.26118327 90.6508355,6.2073112 90.6053521,6.14666667 Z" id="三角形备份-17" transform="translate(91.245329, 3.733357) rotate(-90.000000) translate(-91.245329, -3.733357) "></path>
            </g>
            <rect id="矩形" stroke="#1890FF" stroke-width="0.88" fill="#FFFFFF" x="810.96" y="277.2" width="77.44" height="54.56"></rect>
            <text id="冷鼓装置" font-family="PingFangSC-Regular, PingFang SC" font-size="12.32" font-weight="normal" line-spacing="14.08" fill="#545454">
                <tspan x="825.03296" y="309.79136">冷鼓装置</tspan>
            </text>
            <g id="编组-137" transform="translate(828.600000, 367.160000)" stroke="#1890FF" stroke-width="0.88">
                <rect id="矩形备份-61" fill="#FFFFFF" x="0.44" y="8.61142857" width="45.76" height="39.9771429"></rect>
                <ellipse id="椭圆形备份-9" fill="#B5DBFF" cx="23.32" cy="49.0285714" rx="22.88" ry="7.73142857"></ellipse>
                <ellipse id="椭圆形" fill="#FFFFFF" cx="23.32" cy="8.17142857" rx="22.88" ry="7.73142857"></ellipse>
            </g>
            <rect id="矩形" fill="#B5DBFF" x="829.468095" y="412.751035" width="45.0096475" height="3.63174603"></rect>
            <path d="M851.92,405.825397 C845.537656,405.825397 839.758626,406.728309 835.575774,408.193998 C833.486213,408.926189 831.799328,409.795686 830.650151,410.767833 C829.634513,411.627013 829.04,412.560445 829.04,413.556825 C829.04,414.553205 829.634513,415.486637 830.650151,416.345818 C831.799328,417.317964 833.486213,418.187461 835.575774,418.919653 C839.758626,420.385342 845.537656,421.288254 851.92,421.288254 C858.302344,421.288254 864.081374,420.385342 868.264226,418.919653 C870.353787,418.187461 872.040672,417.317964 873.189849,416.345818 C874.205487,415.486637 874.8,414.553205 874.8,413.556825 C874.8,412.560445 874.205487,411.627013 873.189849,410.767833 C872.040672,409.795686 870.353787,408.926189 868.264226,408.193998 C864.081374,406.728309 858.302344,405.825397 851.92,405.825397 Z" id="椭圆形备份-10" stroke="#1890FF" stroke-width="0.88" fill="#B5DBFF"></path>
            <text id="焦油" font-family="PingFangSC-Regular, PingFang SC" font-size="12.32" font-weight="normal" fill="#545454">
                <tspan x="839.6" y="399.16">焦油</tspan>
            </text>
            <rect id="矩形备份-6" fill="#1890FF" transform="translate(851.001265, 163.392551) rotate(-270.000000) translate(-851.001265, -163.392551) " x="742.001265" y="162.942138" width="218" height="1"></rect>
            <rect id="矩形备份-6" fill="#1890FF" transform="translate(851.440000, 345.831176) rotate(-270.000000) translate(-851.440000, -345.831176) " x="836.94" y="345.391176" width="29" height="1"></rect>
            <rect id="矩形备份-6" fill="#1890FF" x="-0.00435760766" y="303.48" width="84" height="1"></rect>
            <polygon id="矩形备份-6" fill="#1890FF" transform="translate(0.440000, 373.560000) rotate(-270.000000) translate(-0.440000, -373.560000) " points="-68.64 373.12 69.52 373.12 69.52 374 -68.64 374"></polygon>
            <rect id="矩形备份-6" fill="#1890FF" transform="translate(40.060000, 618.200000) scale(1, -1) translate(-40.060000, -618.200000) " x="0.56" y="617.76" width="79" height="1"></rect>
            <polygon id="矩形备份-6" fill="#1890FF" transform="translate(0.440000, 530.200000) scale(1, -1) rotate(-270.000000) translate(-0.440000, -530.200000) " points="-88 529.76 88.88 529.76 88.88 530.64 -88 530.64"></polygon>
            <rect id="矩形" fill="#1890FF" x="623.32" y="304.48" width="188" height="1"></rect>
            <g id="编组-169" transform="translate(315.600000, 297.160000)" fill="#1890FF">
                <rect id="矩形备份-6" x="5.8" y="4.56" width="215" height="1"></rect>
                <path d="M4.14,2.85333333 L7.04,6.72 C7.30509668,7.07346224 7.23346224,7.57490332 6.88,7.84 C6.74152306,7.9438577 6.57309617,8 6.4,8 L0.6,8 C0.1581722,8 -0.2,7.6418278 -0.2,7.2 C-0.2,7.02690383 -0.143857703,6.85847694 -0.04,6.72 L2.86,2.85333333 C3.12509668,2.49987109 3.62653776,2.42823665 3.98,2.69333333 C4.04064453,2.73881673 4.0945166,2.7926888 4.14,2.85333333 Z" id="三角形备份-8" transform="translate(3.500000, 5.000000) rotate(-90.000000) translate(-3.500000, -5.000000) "></path>
            </g>
            <polygon id="矩形备份-6" fill="#1890FF" points="168.44 301.48 233.44 301.48 233.44 302.36 168.44 302.36"></polygon>
            <rect id="矩形" fill="#1890FF" x="613.32" y="617.64" width="194" height="1"></rect>
            <rect id="矩形备份-6" fill="#1890FF" x="373.92" y="617.64" width="155" height="1"></rect>
            <polygon id="矩形备份-6" fill="#1890FF" points="161.473441 617.76 289.88 617.76 289.88 618.64 161.473441 618.64"></polygon>
            <path d="M658.314108,18.48 C661.295957,18.48 663.713223,18.0860106 663.713223,17.6 C663.713223,17.1139894 661.295957,16.72 658.314108,16.72 C655.332259,16.72 652.914993,17.1139894 652.914993,17.6 C652.914993,18.0860106 655.332259,18.48 658.314108,18.48 Z" id="椭圆形" fill="#1890FF"></path>
            <path d="M77.8618964,616.061952 L80.7618964,619.928618 C81.0269931,620.282081 80.9553586,620.783522 80.6018964,621.048618 C80.4634194,621.152476 80.2949926,621.208618 80.1218964,621.208618 L74.3218964,621.208618 C73.8800686,621.208618 73.5218964,620.850446 73.5218964,620.408618 C73.5218964,620.235522 73.5780387,620.067095 73.6818964,619.928618 L76.5818964,616.061952 C76.8469931,615.70849 77.3484341,615.636855 77.7018964,615.901952 C77.7625409,615.947435 77.816413,616.001307 77.8618964,616.061952 Z" id="三角形" fill="#1890FF" transform="translate(77.221896, 618.208618) rotate(-270.000000) translate(-77.221896, -618.208618) "></path>
            <path d="M288.74,616.061952 L291.64,619.928618 C291.905097,620.282081 291.833462,620.783522 291.48,621.048618 C291.341523,621.152476 291.173096,621.208618 291,621.208618 L285.2,621.208618 C284.758172,621.208618 284.4,620.850446 284.4,620.408618 C284.4,620.235522 284.456142,620.067095 284.56,619.928618 L287.46,616.061952 C287.725097,615.70849 288.226538,615.636855 288.58,615.901952 C288.640645,615.947435 288.694517,616.001307 288.74,616.061952 Z" id="三角形备份-18" fill="#1890FF" transform="translate(288.100000, 618.208618) rotate(-270.000000) translate(-288.100000, -618.208618) "></path>
            <path d="M529.74,616.013333 L532.64,619.88 C532.905097,620.233462 532.833462,620.734903 532.48,621 C532.341523,621.103858 532.173096,621.16 532,621.16 L526.2,621.16 C525.758172,621.16 525.4,620.801828 525.4,620.36 C525.4,620.186904 525.456142,620.018477 525.56,619.88 L528.46,616.013333 C528.725097,615.659871 529.226538,615.588237 529.58,615.853333 C529.640645,615.898817 529.694517,615.952689 529.74,616.013333 Z" id="三角形备份-19" fill="#1890FF" transform="translate(529.100000, 618.160000) rotate(-270.000000) translate(-529.100000, -618.160000) "></path>
            <path d="M805.74,616.013333 L808.64,619.88 C808.905097,620.233462 808.833462,620.734903 808.48,621 C808.341523,621.103858 808.173096,621.16 808,621.16 L802.2,621.16 C801.758172,621.16 801.4,620.801828 801.4,620.36 C801.4,620.186904 801.456142,620.018477 801.56,619.88 L804.46,616.013333 C804.725097,615.659871 805.226538,615.588237 805.58,615.853333 C805.640645,615.898817 805.694517,615.952689 805.74,616.013333 Z" id="三角形备份-20" fill="#1890FF" transform="translate(805.100000, 618.160000) rotate(-270.000000) translate(-805.100000, -618.160000) "></path>
            <path d="M854.74,677.013333 L857.64,680.88 C857.905097,681.233462 857.833462,681.734903 857.48,682 C857.341523,682.103858 857.173096,682.16 857,682.16 L851.2,682.16 C850.758172,682.16 850.4,681.801828 850.4,681.36 C850.4,681.186904 850.456142,681.018477 850.56,680.88 L853.46,677.013333 C853.725097,676.659871 854.226538,676.588237 854.58,676.853333 C854.640645,676.898817 854.694517,676.952689 854.74,677.013333 Z" id="三角形备份-21" fill="#1890FF" transform="translate(854.100000, 679.160000) rotate(-180.000000) translate(-854.100000, -679.160000) "></path>
            <path d="M449.74,25.5906061 L452.64,29.4572727 C452.905097,29.810735 452.833462,30.3121761 452.48,30.5772727 C452.341523,30.6811304 452.173096,30.7372727 452,30.7372727 L446.2,30.7372727 C445.758172,30.7372727 445.4,30.3791005 445.4,29.9372727 C445.4,29.7641766 445.456142,29.5957497 445.56,29.4572727 L448.46,25.5906061 C448.725097,25.2371438 449.226538,25.1655094 449.58,25.4306061 C449.640645,25.4760895 449.694517,25.5299615 449.74,25.5906061 Z" id="三角形备份" fill="#1890FF" transform="translate(449.100000, 27.737273) rotate(-270.000000) translate(-449.100000, -27.737273) "></path>
            <path d="M1099.31707,435.536328 L1102.21707,439.402994 C1102.48216,439.756456 1102.41053,440.257898 1102.05707,440.522994 C1101.91859,440.626852 1101.75016,440.682994 1101.57707,440.682994 L1095.77707,440.682994 C1095.33524,440.682994 1094.97707,440.324822 1094.97707,439.882994 C1094.97707,439.709898 1095.03321,439.541471 1095.13707,439.402994 L1098.03707,435.536328 C1098.30216,435.182865 1098.8036,435.111231 1099.15707,435.376328 C1099.21771,435.421811 1099.27158,435.475683 1099.31707,435.536328 Z" id="三角形备份-12" fill="#1890FF" transform="translate(1098.677067, 437.682994) rotate(-270.000000) translate(-1098.677067, -437.682994) "></path>
            <path d="M1024.74,374.013333 L1027.64,377.88 C1027.9051,378.233462 1027.83346,378.734903 1027.48,379 C1027.34152,379.103858 1027.1731,379.16 1027,379.16 L1021.2,379.16 C1020.75817,379.16 1020.4,378.801828 1020.4,378.36 C1020.4,378.186904 1020.45614,378.018477 1020.56,377.88 L1023.46,374.013333 C1023.7251,373.659871 1024.22654,373.588237 1024.58,373.853333 C1024.64064,373.898817 1024.69452,373.952689 1024.74,374.013333 Z" id="三角形备份-12" fill="#1890FF"></path>
            <path d="M1024.82897,497.597182 L1027.72897,501.463848 C1027.99406,501.81731 1027.92243,502.318752 1027.56897,502.583848 C1027.43049,502.687706 1027.26206,502.743848 1027.08897,502.743848 L1021.28897,502.743848 C1020.84714,502.743848 1020.48897,502.385676 1020.48897,501.943848 C1020.48897,501.770752 1020.54511,501.602325 1020.64897,501.463848 L1023.54897,497.597182 C1023.81406,497.243719 1024.3155,497.172085 1024.66897,497.437182 C1024.72961,497.482665 1024.78348,497.536537 1024.82897,497.597182 Z" id="三角形备份-12" fill="#1890FF" transform="translate(1024.188966, 499.743848) rotate(-180.000000) translate(-1024.188966, -499.743848) "></path>
            <path d="M851.74,268.013333 L854.64,271.88 C854.905097,272.233462 854.833462,272.734903 854.48,273 C854.341523,273.103858 854.173096,273.16 854,273.16 L848.2,273.16 C847.758172,273.16 847.4,272.801828 847.4,272.36 C847.4,272.186904 847.456142,272.018477 847.56,271.88 L850.46,268.013333 C850.725097,267.659871 851.226538,267.588237 851.58,267.853333 C851.640645,267.898817 851.694517,267.952689 851.74,268.013333 Z" id="三角形备份-3" fill="#1890FF" transform="translate(851.100000, 270.160000) rotate(-180.000000) translate(-851.100000, -270.160000) "></path>
            <path d="M122.154158,268.012737 L125.054158,271.879404 C125.319255,272.232866 125.247621,272.734307 124.894158,272.999404 C124.755681,273.103261 124.587255,273.159404 124.414158,273.159404 L118.614158,273.159404 C118.172331,273.159404 117.814158,272.801231 117.814158,272.359404 C117.814158,272.186307 117.870301,272.01788 117.974158,271.879404 L120.874158,268.012737 C121.139255,267.659275 121.640696,267.58764 121.994158,267.852737 C122.054803,267.89822 122.108675,267.952092 122.154158,268.012737 Z" id="三角形备份-15" fill="#1890FF" transform="translate(121.514158, 270.159404) rotate(-180.000000) translate(-121.514158, -270.159404) "></path>
            <path d="M122.154158,358.013333 L125.054158,361.88 C125.319255,362.233462 125.247621,362.734903 124.894158,363 C124.755681,363.103858 124.587255,363.16 124.414158,363.16 L118.614158,363.16 C118.172331,363.16 117.814158,362.801828 117.814158,362.36 C117.814158,362.186904 117.870301,362.018477 117.974158,361.88 L120.874158,358.013333 C121.139255,357.659871 121.640696,357.588237 121.994158,357.853333 C122.054803,357.898817 122.108675,357.952689 122.154158,358.013333 Z" id="三角形备份-16" fill="#1890FF" transform="translate(121.514158, 360.160000) rotate(-180.000000) translate(-121.514158, -360.160000) "></path>
            <path d="M850.660047,362.249638 L847.760047,358.382971 C847.49495,358.029509 847.566585,357.528068 847.920047,357.262971 C848.058524,357.159113 848.226951,357.102971 848.400047,357.102971 L854.200047,357.102971 C854.641875,357.102971 855.000047,357.461143 855.000047,357.902971 C855.000047,358.076067 854.943905,358.244494 854.840047,358.382971 L851.940047,362.249638 C851.67495,362.6031 851.173509,362.674734 850.820047,362.409638 C850.759403,362.364154 850.70553,362.310282 850.660047,362.249638 Z" id="三角形备份-17" fill="#1890FF"></path>
            <path d="M621.74,302.62489 L624.64,306.491556 C624.905097,306.845019 624.833462,307.34646 624.48,307.611556 C624.341523,307.715414 624.173096,307.771556 624,307.771556 L618.2,307.771556 C617.758172,307.771556 617.4,307.413384 617.4,306.971556 C617.4,306.79846 617.456142,306.630033 617.56,306.491556 L620.46,302.62489 C620.725097,302.271427 621.226538,302.199793 621.58,302.46489 C621.640645,302.510373 621.694517,302.564245 621.74,302.62489 Z" id="三角形备份-7" fill="#1890FF" transform="translate(621.100000, 304.771556) rotate(-90.000000) translate(-621.100000, -304.771556) "></path>
            <path d="M168.74,300.013333 L171.64,303.88 C171.905097,304.233462 171.833462,304.734903 171.48,305 C171.341523,305.103858 171.173096,305.16 171,305.16 L165.2,305.16 C164.758172,305.16 164.4,304.801828 164.4,304.36 C164.4,304.186904 164.456142,304.018477 164.56,303.88 L167.46,300.013333 C167.725097,299.659871 168.226538,299.588237 168.58,299.853333 C168.640645,299.898817 168.694517,299.952689 168.74,300.013333 Z" id="三角形备份-9" fill="#1890FF" transform="translate(168.100000, 302.160000) rotate(-90.000000) translate(-168.100000, -302.160000) "></path>
            <g id="编组-141" transform="translate(145.600000, 391.160000)" fill="#1890FF">
                <g id="编组-134备份-2">
                    <rect id="矩形备份-6" x="0.52022898" y="3.92272726" width="73" height="1"></rect>
                    <path d="M75.340229,2.35333333 L78.240229,6.22 C78.5053257,6.57346224 78.4336912,7.07490332 78.080229,7.34 C77.941752,7.4438577 77.7733252,7.5 77.600229,7.5 L71.800229,7.5 C71.3584012,7.5 71.000229,7.1418278 71.000229,6.7 C71.000229,6.52690383 71.0563713,6.35847694 71.160229,6.22 L74.060229,2.35333333 C74.3253257,1.99987109 74.8267667,1.92823665 75.180229,2.19333333 C75.2408735,2.23881673 75.2947456,2.2926888 75.340229,2.35333333 Z" id="三角形" transform="translate(74.700229, 4.500000) rotate(-270.000000) translate(-74.700229, -4.500000) "></path>
                </g>
            </g>
            <g id="编组-141备份-4" transform="translate(295.600000, 391.160000)" fill="#1890FF">
                <g id="编组-134备份-2">
                    <rect id="矩形备份-6" x="0.52022898" y="3.92272726" width="73" height="1"></rect>
                    <path d="M75.340229,2.35333333 L78.240229,6.22 C78.5053257,6.57346224 78.4336912,7.07490332 78.080229,7.34 C77.941752,7.4438577 77.7733252,7.5 77.600229,7.5 L71.800229,7.5 C71.3584012,7.5 71.000229,7.1418278 71.000229,6.7 C71.000229,6.52690383 71.0563713,6.35847694 71.160229,6.22 L74.060229,2.35333333 C74.3253257,1.99987109 74.8267667,1.92823665 75.180229,2.19333333 C75.2408735,2.23881673 75.2947456,2.2926888 75.340229,2.35333333 Z" id="三角形" transform="translate(74.700229, 4.500000) rotate(-270.000000) translate(-74.700229, -4.500000) "></path>
                </g>
            </g>
            <g id="编组-141备份-5" transform="translate(597.600000, 391.160000)" fill="#1890FF">
                <g id="编组-134备份-2">
                    <rect id="矩形备份-6" x="0.52022898" y="3.92272726" width="73" height="1"></rect>
                    <path d="M75.340229,2.35333333 L78.240229,6.22 C78.5053257,6.57346224 78.4336912,7.07490332 78.080229,7.34 C77.941752,7.4438577 77.7733252,7.5 77.600229,7.5 L71.800229,7.5 C71.3584012,7.5 71.000229,7.1418278 71.000229,6.7 C71.000229,6.52690383 71.0563713,6.35847694 71.160229,6.22 L74.060229,2.35333333 C74.3253257,1.99987109 74.8267667,1.92823665 75.180229,2.19333333 C75.2408735,2.23881673 75.2947456,2.2926888 75.340229,2.35333333 Z" id="三角形" transform="translate(74.700229, 4.500000) rotate(-270.000000) translate(-74.700229, -4.500000) "></path>
                </g>
            </g>
            <g id="编组-141备份-6" transform="translate(874.600000, 391.160000)" fill="#1890FF">
                <g id="编组-134备份-2">
                    <rect id="矩形备份-6" x="0.52022898" y="3.92272726" width="73" height="1"></rect>
                    <path d="M75.340229,2.35333333 L78.240229,6.22 C78.5053257,6.57346224 78.4336912,7.07490332 78.080229,7.34 C77.941752,7.4438577 77.7733252,7.5 77.600229,7.5 L71.800229,7.5 C71.3584012,7.5 71.000229,7.1418278 71.000229,6.7 C71.000229,6.52690383 71.0563713,6.35847694 71.160229,6.22 L74.060229,2.35333333 C74.3253257,1.99987109 74.8267667,1.92823665 75.180229,2.19333333 C75.2408735,2.23881673 75.2947456,2.2926888 75.340229,2.35333333 Z" id="三角形" transform="translate(74.700229, 4.500000) rotate(-270.000000) translate(-74.700229, -4.500000) "></path>
                </g>
            </g>
            <g id="编组-141备份-7" transform="translate(876.600000, 710.160000)" fill="#1890FF">
                <g id="编组-134备份-2">
                    <rect id="矩形备份-6" x="0.52022898" y="3.92272726" width="73" height="1"></rect>
                    <path d="M75.340229,2.35333333 L78.240229,6.22 C78.5053257,6.57346224 78.4336912,7.07490332 78.080229,7.34 C77.941752,7.4438577 77.7733252,7.5 77.600229,7.5 L71.800229,7.5 C71.3584012,7.5 71.000229,7.1418278 71.000229,6.7 C71.000229,6.52690383 71.0563713,6.35847694 71.160229,6.22 L74.060229,2.35333333 C74.3253257,1.99987109 74.8267667,1.92823665 75.180229,2.19333333 C75.2408735,2.23881673 75.2947456,2.2926888 75.340229,2.35333333 Z" id="三角形" transform="translate(74.700229, 4.500000) rotate(-270.000000) translate(-74.700229, -4.500000) "></path>
                </g>
            </g>
            <g id="编组-118" transform="translate(97.600000, 184.160000)">
                <g id="编组-32备份-2">
                    <g id="编组-31">
                        <g id="编组-99"></g>
                    </g>
                </g>
            </g>
            <g id="编组-117" transform="translate(83.960000, 277.200000)"></g>
            <g id="编组-116" transform="translate(98.600000, 367.160000)">
                <g id="编组-31备份-3">
                    <g id="编组-99"></g>
                </g>
            </g>
            <g id="编组-123" transform="translate(814.360000, 590.480000)"></g>
            <g id="编组-31备份-5" transform="translate(830.200000, 685.520000)">
                <g id="编组-99"></g>
            </g>
            <g id="编组-18" transform="translate(810.960000, 277.200000)"></g>
        </g>
    </g>
</svg>