<?xml version="1.0" encoding="UTF-8"?>
<svg width="1317px" height="856px" viewBox="0 0 1317 856" version="1.1" xmlns="http://www.w3.org/2000/svg" xmlns:xlink="http://www.w3.org/1999/xlink">
    <title>编组 224</title>
    <defs>
        <filter id="filter-1">
            <feColorMatrix in="SourceGraphic" type="matrix" values="0 0 0 0 0.094118 0 0 0 0 0.564706 0 0 0 0 1.000000 0 0 0 1.000000 0"></feColorMatrix>
        </filter>
    </defs>
    <g id="页面-1" stroke="none" stroke-width="1" fill="none" fill-rule="evenodd">
        <g id="编组-224" transform="translate(0.000000, 1.840000)">
            <g id="编组-168" transform="translate(165.739771, 183.920000)">
                <g id="编组-162" transform="translate(82.880229, 0.000000)">
                    <rect id="矩形备份-61" stroke="#1890FF" stroke-width="0.88" fill="#FFFFFF" x="0.44" y="8.61142857" width="45.76" height="39.9771429"></rect>
                    <ellipse id="椭圆形备份-9" stroke="#1890FF" stroke-width="0.88" fill="#B5DBFF" cx="23.32" cy="49.0285714" rx="22.88" ry="7.73142857"></ellipse>
                    <rect id="矩形" fill="#B5DBFF" x="0.858808571" y="45.3967422" width="44.88" height="3.63174603"></rect>
                    <ellipse id="椭圆形" stroke="#1890FF" stroke-width="0.88" fill="#FFFFFF" cx="23.32" cy="8.17142857" rx="22.88" ry="7.73142857"></ellipse>
                    <path d="M23.32,37.6653968 C16.937656,37.6653968 11.1586259,38.5683087 6.97577361,40.0339981 C4.8862127,40.7661893 3.19932787,41.6356863 2.05015123,42.6078333 C1.03451287,43.4670134 0.44,44.4004455 0.44,45.3968254 C0.44,46.3932053 1.03451287,47.3266374 2.05015123,48.1858175 C3.19932787,49.1579645 4.8862127,50.0274615 6.97577361,50.7596527 C11.1586259,52.2253421 16.937656,53.128254 23.32,53.128254 C29.702344,53.128254 35.4813741,52.2253421 39.6642264,50.7596527 C41.7537873,50.0274615 43.4406721,49.1579645 44.5898488,48.1858175 C45.6054871,47.3266374 46.2,46.3932053 46.2,45.3968254 C46.2,44.4004455 45.6054871,43.4670134 44.5898488,42.6078333 C43.4406721,41.6356863 41.7537873,40.7661893 39.6642264,40.0339981 C35.4813741,38.5683087 29.702344,37.6653968 23.32,37.6653968 Z" id="椭圆形备份-10" stroke="#1890FF" stroke-width="0.88" fill="#B5DBFF"></path>
                    <ellipse id="椭圆形备份-16" fill="#FFFFFF" cx="12.6316667" cy="37.2253968" rx="1" ry="1"></ellipse>
                    <text id="硫酸" font-family="PingFangSC-Regular, PingFang SC" font-size="12.32" font-weight="normal" fill="#5E5E5E">
                        <tspan x="11.68" y="34.12">硫酸</tspan>
                    </text>
                </g>
                <g id="编组-164" transform="translate(68.800229, 93.280000)">
                    <rect id="矩形" stroke="#1890FF" stroke-width="0.88" fill="#FFFFFF" x="2.55795385e-13" y="1.98951966e-13" width="77.44" height="54.56"></rect>
                    <text id="硫酸铵装置" font-family="PingFangSC-Regular, PingFang SC" font-size="12.32" font-weight="normal" line-spacing="14.08" fill="#545454">
                        <tspan x="7.91296" y="32.59136">硫酸铵装置</tspan>
                    </text>
                </g>
                <g id="编组-163" transform="translate(100.725908, 55.842936)" fill="#1890FF">
                    <rect id="矩形备份-6" transform="translate(5.500000, 15.440000) rotate(-270.000000) translate(-5.500000, -15.440000) " x="-9" y="15" width="29" height="1"></rect>
                    <path d="M5.89432073,28.2503969 L8.79432073,32.1170636 C9.05941741,32.4705258 8.98778297,32.9719669 8.63432073,33.2370636 C8.49584379,33.3409213 8.3274169,33.3970636 8.15432073,33.3970636 L2.35432073,33.3970636 C1.91249293,33.3970636 1.55432073,33.0388914 1.55432073,32.5970636 C1.55432073,32.4239674 1.61046302,32.2555405 1.71432073,32.1170636 L4.61432073,28.2503969 C4.87941741,27.8969347 5.38085849,27.8253002 5.73432073,28.0903969 C5.79496526,28.1358803 5.84883733,28.1897524 5.89432073,28.2503969 Z" id="三角形备份-3" transform="translate(5.254321, 30.397064) rotate(-180.000000) translate(-5.254321, -30.397064) "></path>
                </g>
                <g id="编组-166" transform="translate(83.760229, 183.040000)">
                    <rect id="矩形备份-61" stroke="#1890FF" stroke-width="0.88" fill="#FFFFFF" x="0.44" y="8.61142857" width="46.64" height="39.9771429"></rect>
                    <ellipse id="椭圆形备份-9" stroke="#1890FF" stroke-width="0.88" fill="#B5DBFF" cx="23.76" cy="49.0285714" rx="23.32" ry="7.73142857"></ellipse>
                    <rect id="矩形" fill="#B5DBFF" x="0.875012506" y="45.3967422" width="45.7267925" height="3.63174603"></rect>
                    <ellipse id="椭圆形" stroke="#1890FF" stroke-width="0.88" fill="#FFFFFF" cx="23.76" cy="8.17142857" rx="23.32" ry="7.73142857"></ellipse>
                    <path d="M23.76,37.6653968 C17.2551924,37.6653968 11.3653322,38.5686908 7.1022395,40.0348338 C4.97178779,40.7675288 3.25201959,41.6376295 2.08036838,42.610434 C1.04653197,43.468813 0.44,44.4008385 0.44,45.3968254 C0.44,46.3928123 1.04653197,47.3248378 2.08036838,48.1832168 C3.25201959,49.1560213 4.97178779,50.026122 7.1022395,50.758817 C11.3653322,52.22496 17.2551924,53.128254 23.76,53.128254 C30.2648076,53.128254 36.1546678,52.22496 40.4177605,50.758817 C42.5482122,50.026122 44.2679804,49.1560213 45.4396316,48.1832168 C46.473468,47.3248378 47.08,46.3928123 47.08,45.3968254 C47.08,44.4008385 46.473468,43.468813 45.4396316,42.610434 C44.2679804,41.6376295 42.5482122,40.7675288 40.4177605,40.0348338 C36.1546678,38.5686908 30.2648076,37.6653968 23.76,37.6653968 Z" id="椭圆形备份-10" stroke="#1890FF" stroke-width="0.88" fill="#B5DBFF"></path>
                    <ellipse id="椭圆形备份-16" fill="#FFFFFF" cx="12.87" cy="37.2253968" rx="1" ry="1"></ellipse>
                    <text id="硫铵" font-family="PingFangSC-Regular, PingFang SC" font-size="12.32" font-weight="normal" fill="#545454">
                        <tspan x="12.32" y="32.36">硫铵</tspan>
                    </text>
                </g>
                <g id="编组-165" transform="translate(101.702614, 146.531465)" fill="#1890FF">
                    <rect id="矩形备份-6" transform="translate(4.500000, 15.440000) rotate(-270.000000) translate(-4.500000, -15.440000) " x="-10" y="15" width="29" height="1"></rect>
                    <path d="M3.83558432,31.7981728 L0.935584316,27.9315061 C0.670487636,27.5780439 0.742122076,27.0766028 1.09558432,26.8115061 C1.23406125,26.7076484 1.40248814,26.6515061 1.57558432,26.6515061 L7.37558432,26.6515061 C7.81741212,26.6515061 8.17558432,27.0096783 8.17558432,27.4515061 C8.17558432,27.6246023 8.11944202,27.7930292 8.01558432,27.9315061 L5.11558432,31.7981728 C4.85048764,32.151635 4.34904656,32.2232695 3.99558432,31.9581728 C3.93493978,31.9126894 3.88106772,31.8588173 3.83558432,31.7981728 Z" id="三角形备份-17"></path>
                </g>
                <g id="编组-141" transform="translate(0.000000, 24.058869)">
                    <rect id="矩形" stroke="#1890FF" stroke-width="0.88" fill="#FFFFFF" x="0.44" y="1.66113147" width="5.12" height="5.12" rx="2.56"></rect>
                    <rect id="矩形备份-8" fill="#1890FF" x="1.2443639" y="2.47442644" width="3.5" height="3.5" rx="1.75"></rect>
                    <g id="编组-134备份-2" transform="translate(5.462094, 0.000000)" fill="#1890FF">
                        <rect id="矩形备份-6" x="0.52022898" y="3.92272726" width="73" height="1"></rect>
                        <path d="M72.340229,2.35333333 L75.240229,6.22 C75.5053257,6.57346224 75.4336912,7.07490332 75.080229,7.34 C74.941752,7.4438577 74.7733252,7.5 74.600229,7.5 L68.800229,7.5 C68.3584012,7.5 68.000229,7.1418278 68.000229,6.7 C68.000229,6.52690383 68.0563713,6.35847694 68.160229,6.22 L71.060229,2.35333333 C71.3253257,1.99987109 71.8267667,1.92823665 72.180229,2.19333333 C72.2408735,2.23881673 72.2947456,2.2926888 72.340229,2.35333333 Z" id="三角形" transform="translate(71.700229, 4.500000) rotate(-270.000000) translate(-71.700229, -4.500000) "></path>
                    </g>
                </g>
            </g>
            <rect id="矩形备份-61" stroke="#1890FF" stroke-width="0.88" fill="#FFFFFF" x="99.1" y="192.531429" width="45.76" height="39.9771429"></rect>
            <ellipse id="椭圆形备份-9" stroke="#1890FF" stroke-width="0.88" fill="#B5DBFF" cx="121.98" cy="232.948571" rx="22.88" ry="7.73142857"></ellipse>
            <rect id="矩形" fill="#B5DBFF" x="99.5188086" y="229.316742" width="44.88" height="3.63174603"></rect>
            <ellipse id="椭圆形" stroke="#1890FF" stroke-width="0.88" fill="#FFFFFF" cx="121.98" cy="192.091429" rx="22.88" ry="7.73142857"></ellipse>
            <path d="M121.98,221.585397 C115.597656,221.585397 109.818626,222.488309 105.635774,223.953998 C103.546213,224.686189 101.859328,225.555686 100.710151,226.527833 C99.6945129,227.387013 99.1,228.320445 99.1,229.316825 C99.1,230.313205 99.6945129,231.246637 100.710151,232.105818 C101.859328,233.077964 103.546213,233.947461 105.635774,234.679653 C109.818626,236.145342 115.597656,237.048254 121.98,237.048254 C128.362344,237.048254 134.141374,236.145342 138.324226,234.679653 C140.413787,233.947461 142.100672,233.077964 143.249849,232.105818 C144.265487,231.246637 144.86,230.313205 144.86,229.316825 C144.86,228.320445 144.265487,227.387013 143.249849,226.527833 C142.100672,225.555686 140.413787,224.686189 138.324226,223.953998 C134.141374,222.488309 128.362344,221.585397 121.98,221.585397 Z" id="椭圆形备份-10" stroke="#1890FF" stroke-width="0.88" fill="#B5DBFF"></path>
            <ellipse id="椭圆形备份-16" fill="#FFFFFF" cx="111.291667" cy="221.145397" rx="1" ry="1"></ellipse>
            <text id="洗油" font-family="PingFangSC-Regular, PingFang SC" font-size="12.32" font-weight="normal" fill="#5E5E5E">
                <tspan x="110.34" y="218.04">洗油</tspan>
            </text>
            <rect id="矩形" stroke="#1890FF" stroke-width="0.88" fill="#FFFFFF" x="84.58" y="277.2" width="77.44" height="54.56"></rect>
            <text id="脱苯装置" font-family="PingFangSC-Regular, PingFang SC" font-size="12.32" font-weight="normal" line-spacing="14.08" fill="#545454">
                <tspan x="98.65296" y="309.79136">脱苯装置</tspan>
            </text>
            <rect id="矩形备份-61" stroke="#1890FF" stroke-width="0.88" fill="#FFFFFF" x="99.98" y="375.571429" width="46.64" height="39.9771429"></rect>
            <ellipse id="椭圆形备份-9" stroke="#1890FF" stroke-width="0.88" fill="#B5DBFF" cx="123.3" cy="415.988571" rx="23.32" ry="7.73142857"></ellipse>
            <rect id="矩形" fill="#B5DBFF" x="100.415013" y="412.356742" width="45.7267925" height="3.63174603"></rect>
            <ellipse id="椭圆形" stroke="#1890FF" stroke-width="0.88" fill="#FFFFFF" cx="123.3" cy="375.131429" rx="23.32" ry="7.73142857"></ellipse>
            <path d="M123.3,404.625397 C116.795192,404.625397 110.905332,405.528691 106.64224,406.994834 C104.511788,407.727529 102.79202,408.597629 101.620368,409.570434 C100.586532,410.428813 99.98,411.360838 99.98,412.356825 C99.98,413.352812 100.586532,414.284838 101.620368,415.143217 C102.79202,416.116021 104.511788,416.986122 106.64224,417.718817 C110.905332,419.18496 116.795192,420.088254 123.3,420.088254 C129.804808,420.088254 135.694668,419.18496 139.95776,417.718817 C142.088212,416.986122 143.80798,416.116021 144.979632,415.143217 C146.013468,414.284838 146.62,413.352812 146.62,412.356825 C146.62,411.360838 146.013468,410.428813 144.979632,409.570434 C143.80798,408.597629 142.088212,407.727529 139.95776,406.994834 C135.694668,405.528691 129.804808,404.625397 123.3,404.625397 Z" id="椭圆形备份-10" stroke="#1890FF" stroke-width="0.88" fill="#B5DBFF"></path>
            <ellipse id="椭圆形备份-16" fill="#FFFFFF" cx="112.41" cy="404.185397" rx="1" ry="1"></ellipse>
            <text id="粗苯" font-family="PingFangSC-Regular, PingFang SC" font-size="12.32" font-weight="normal" fill="#545454">
                <tspan x="110.98" y="399.32">粗苯</tspan>
            </text>
            <rect id="矩形备份-6" fill="#1890FF" transform="translate(122.039085, 255.220000) rotate(-270.000000) translate(-122.039085, -255.220000) " x="107.539085" y="254.78" width="29" height="1"></rect>
            <g id="编组-222" transform="translate(117.390147, 331.360000)" fill="#1890FF">
                <rect id="矩形备份-6" transform="translate(4.500000, 14.500000) rotate(-270.000000) translate(-4.500000, -14.500000) " x="-10" y="14" width="29" height="1"></rect>
                <path d="M5.38401174,26.6533333 L8.28401174,30.52 C8.54910842,30.8734622 8.47747398,31.3749033 8.12401174,31.64 C7.9855348,31.7438577 7.81710791,31.8 7.64401174,31.8 L1.84401174,31.8 C1.40218394,31.8 1.04401174,31.4418278 1.04401174,31 C1.04401174,30.8269038 1.10015404,30.6584769 1.20401174,30.52 L4.10401174,26.6533333 C4.36910842,26.2998711 4.8705495,26.2282367 5.22401174,26.4933333 C5.28465627,26.5388167 5.33852834,26.5926888 5.38401174,26.6533333 Z" id="三角形备份-16" transform="translate(4.744012, 28.800000) rotate(-180.000000) translate(-4.744012, -28.800000) "></path>
            </g>
            <g id="编组-135" transform="translate(814.100000, 0.000000)">
                <rect id="矩形备份-26" stroke="#1890FF" stroke-width="0.88" fill="#FFFFFF" x="178.64" y="1.98951966e-13" width="77.44" height="54.56"></rect>
                <text id="熄焦塔" font-family="PingFangSC-Regular, PingFang SC" font-size="12.32" font-weight="normal" fill="#4A4A4A">
                    <tspan x="208.56" y="32.36">熄焦塔</tspan>
                </text>
                <path d="M191.84,29.81 L205.04,29.81 L205.04,36.96 L191.84,36.96 L191.84,29.81 Z M193.725714,22.11 L203.154286,22.11 L203.154286,29.81 L193.725714,29.81 L193.725714,22.11 Z M195.611429,14.96 L201.268571,14.96 L201.268571,22.11 L195.611429,22.11 L195.611429,14.96 Z" id="形状" fill="#1890FF" fill-rule="nonzero"></path>
                <rect id="矩形备份-26" stroke="#1890FF" stroke-width="0.88" fill="#FFFFFF" x="349.36" y="1.98951966e-13" width="77.44" height="54.56"></rect>
                <text id="焦仓" font-family="PingFangSC-Regular, PingFang SC" font-size="12.32" font-weight="normal" fill="#4A4A4A">
                    <tspan x="390.72" y="32.36">焦仓</tspan>
                </text>
                <path d="M379.68,35.9298885 C379.68,36.4988034 379.214376,36.96 378.64,36.96 L364.08,36.96 C363.505624,36.96 363.04,36.4988034 363.04,35.9298885 L363.04,26.6588845 L359.92,26.6588845 L370.66008,16.9881973 C371.056859,16.6306009 371.663141,16.6306009 372.05992,16.9881973 L382.8,26.6588845 L379.68,26.6588845 L379.68,35.9298885 Z M367.2,30.7793307 L367.2,32.8395538 L375.52,32.8395538 L375.52,30.7793307 L367.2,30.7793307 Z" id="形状" fill="#1890FF" fill-rule="nonzero"></path>
                <rect id="矩形备份-68" stroke="#1890FF" stroke-width="0.88" fill="#FFFFFF" x="2.55795385e-13" y="1.98951966e-13" width="77.44" height="54.56"></rect>
                <text id="炼焦炉" font-family="PingFangSC-Regular, PingFang SC" font-size="12.32" font-weight="normal" fill="#545454">
                    <tspan x="32.56" y="32.36">炼焦炉</tspan>
                </text>
                <path d="M26.3663437,30.9615625 C26.2133352,32.3413243 25.5443502,33.6073703 24.4990927,34.4953125 L24.4990927,35.9693125 L25.586864,35.9693125 L25.586864,36.96 L23.5291184,36.96 L23.5291184,35.151875 C22.783642,35.5430039 21.9574122,35.7464293 21.119328,35.7451875 L20.809017,35.7451875 L20.809017,36.36875 L21.970159,36.36875 L21.970159,36.96 L17.6291706,36.96 L17.6291706,36.36875 L18.7903126,36.36875 L18.7903126,35.7451875 L18.4793285,35.7451875 C17.6412443,35.7464293 16.8150144,35.5430039 16.0695381,35.151875 L16.0695381,36.96 L14.0138118,36.96 L14.0138118,35.97 L15.1015831,35.97 L15.1015831,34.496 C14.0563256,33.6080578 13.3873406,32.3420118 13.2343321,30.96225 L26.3663437,30.9615625 Z M26.3993269,20.62225 L26.3993269,30.2231875 L13.200002,30.2231875 L13.200002,21.4864375 C13.1998593,21.1970033 13.2223685,20.9080205 13.2673153,20.62225 L26.4,20.62225 L26.3993269,20.62225 Z M20.809017,14.96 L20.809017,16.0936875 L21.1200011,16.0936875 C23.0532421,16.0929773 24.8322069,17.1717027 25.7571648,18.9055625 L25.7571648,15.3539375 C25.7571648,15.1726328 25.9010684,15.0256563 26.0785824,15.0256563 C26.2560964,15.0256563 26.4,15.1726328 26.4,15.3539375 L26.3993269,19.8831875 L13.436943,19.8831875 C14.1066856,17.6892862 16.0635076,16.1694275 18.3123933,16.0964375 L18.4800016,16.0936875 L18.7909858,16.0936875 L18.7909858,14.96 L20.809017,14.96 Z" id="形状" fill="#1890FF" fill-rule="nonzero" transform="translate(19.800001, 25.960000) scale(-1, 1) translate(-19.800001, -25.960000) "></path>
                <rect id="矩形备份-6" fill="#1890FF" x="256.2" y="27.28" width="83" height="1"></rect>
                <rect id="矩形备份-6" fill="#1890FF" x="427.12" y="27.1153846" width="70" height="1"></rect>
                <rect id="矩形备份-6" fill="#1890FF" x="78.12" y="27.16" width="93" height="1"></rect>
                <path d="M173.26,25.5906061 L176.16,29.4572727 C176.425097,29.810735 176.353462,30.3121761 176,30.5772727 C175.861523,30.6811304 175.693096,30.7372727 175.52,30.7372727 L169.72,30.7372727 C169.278172,30.7372727 168.92,30.3791005 168.92,29.9372727 C168.92,29.7641766 168.976142,29.5957497 169.08,29.4572727 L171.98,25.5906061 C172.245097,25.2371438 172.746538,25.1655094 173.1,25.4306061 C173.160645,25.4760895 173.214517,25.5299615 173.26,25.5906061 Z" id="三角形备份-4" fill="#1890FF" transform="translate(172.620000, 27.737273) rotate(-270.000000) translate(-172.620000, -27.737273) "></path>
                <path d="M342.26,25.5483342 L345.16,29.4150009 C345.425097,29.7684631 345.353462,30.2699042 345,30.5350009 C344.861523,30.6388586 344.693096,30.6950009 344.52,30.6950009 L338.72,30.6950009 C338.278172,30.6950009 337.92,30.3368287 337.92,29.8950009 C337.92,29.7219047 337.976142,29.5534778 338.08,29.4150009 L340.98,25.5483342 C341.245097,25.194872 341.746538,25.1232376 342.1,25.3883342 C342.160645,25.4338176 342.214517,25.4876897 342.26,25.5483342 Z" id="三角形备份-5" fill="#1890FF" transform="translate(341.620000, 27.695001) rotate(-270.000000) translate(-341.620000, -27.695001) "></path>
                <path d="M499.26,25.4824611 L502.16,29.3491277 C502.425097,29.70259 502.353462,30.2040311 502,30.4691277 C501.861523,30.5729854 501.693096,30.6291277 501.52,30.6291277 L495.72,30.6291277 C495.278172,30.6291277 494.92,30.2709555 494.92,29.8291277 C494.92,29.6560316 494.976142,29.4876047 495.08,29.3491277 L497.98,25.4824611 C498.245097,25.1289988 498.746538,25.0573644 499.1,25.3224611 C499.160645,25.3679445 499.214517,25.4218165 499.26,25.4824611 Z" id="三角形备份-6" fill="#1890FF" transform="translate(498.620000, 27.629128) rotate(-270.000000) translate(-498.620000, -27.629128) "></path>
                <g id="编组-9" transform="translate(180.640000, 0.000000)"></g>
                <g id="编组-8" transform="translate(1.000000, 0.000000)"></g>
            </g>
            <g id="编组-143" transform="translate(456.820000, 0.000000)">
                <rect id="矩形备份-69" stroke="#1890FF" stroke-width="0.88" fill="#FFFFFF" x="0.44" y="0.44" width="76.56" height="53.68"></rect>
                <text id="配煤" font-family="PingFangSC-Regular, PingFang SC" font-size="12.32" font-weight="normal" line-spacing="14.08" fill="#4A4A4A">
                    <tspan x="41.36" y="34.12">配煤</tspan>
                </text>
                <path d="M33.5036304,28.2577773 L32.1661001,28.2577773 L32.1661001,28.2118648 L30.7485112,19.9214576 C30.6913265,19.6238246 30.4742218,19.3719045 30.1882984,19.2916574 L24.5065059,17.6312204 C24.1864687,17.539595 23.8433606,17.6539771 23.6491298,17.9174751 L21.3286143,20.9634727 L20.5512968,20.2879595 C20.4042828,20.1621054 20.2179275,20.0931378 20.0253948,20.0933302 L17.190217,20.0933302 C16.8587429,20.0933302 16.5613825,20.2993378 16.4472103,20.6087484 L13.6120325,28.0629485 C13.5891586,28.1202393 13.5777217,28.1889085 13.5662847,28.2575777 L12.2287544,28.2575777 C11.7943479,28.268956 11.44,28.6238799 11.44,29.059051 C11.44,29.4940223 11.7943479,29.8491459 12.2287544,29.8605242 L13.3034323,29.8605242 L14.9724367,33.5820349 C14.9838736,33.8912458 15.3269818,34.1202097 15.7726281,34.1202097 L15.784065,34.1202097 C15.7268803,34.3262172 15.6925695,34.5324244 15.6925695,34.7386316 C15.6925695,35.9638975 16.6871888,36.96 17.9103498,36.96 C19.1335107,36.96 20.12813,35.9638975 20.12813,34.7386316 C20.1283618,34.5281026 20.0935642,34.3190377 20.0251976,34.1202097 L25.718427,34.1202097 C25.6612424,34.3262172 25.6269315,34.5324244 25.6269315,34.7386316 C25.6269315,35.9638975 26.6215509,36.96 27.8447118,36.96 C29.0678727,36.96 30.0624921,35.9638975 30.0624921,34.7386316 C30.0624921,34.5324244 30.0281812,34.3148389 29.9709965,34.1202097 L29.9824335,34.1202097 C30.41684,34.1202097 30.759751,33.8796679 30.7826248,33.5820349 L32.4516292,29.8605242 L33.5263071,29.8605242 C33.7434118,29.8605242 33.9378398,29.780277 34.0865199,29.6313607 C34.315105,29.4047527 34.3831881,29.0595065 34.258074,28.7614179 C34.1208308,28.452207 33.8236675,28.2577773 33.5036304,28.2577773 Z M17.9103498,35.3570535 C17.5674388,35.3570535 17.2931494,35.0823768 17.2931494,34.7388312 C17.2931494,34.3952856 17.567636,34.1204093 17.9103498,34.1204093 C18.2418238,34.1204093 18.5277473,34.395086 18.5277473,34.7388312 C18.5277473,35.0823768 18.2534579,35.3570535 17.9103498,35.3570535 Z M27.8332749,35.3570535 C27.4903639,35.3570535 27.2158773,35.0823768 27.2158773,34.7388312 C27.2158773,34.3952856 27.4903639,34.1204093 27.8332749,34.1204093 C28.1761858,34.1204093 28.4504752,34.395086 28.4504752,34.7388312 C28.4504752,35.0823768 28.1761858,35.3570535 27.8332749,35.3570535 Z M30.6682554,27.8567413 C30.6682554,28.1775302 30.41684,28.4292507 30.0968029,28.4292507 L15.8183758,28.4292507 C15.4983387,28.4292507 15.2469232,28.1773306 15.2469232,27.8567413 L15.2469232,27.7653155 C15.2469232,27.4447262 15.5097756,27.1928061 15.8183758,27.1928061 L30.0968029,27.1928061 C30.41684,27.1928061 30.6682554,27.4447262 30.6682554,27.7653155 L30.6682554,27.8567413 Z" id="形状" fill="#1890FF" fill-rule="nonzero"></path>
                <g filter="url(#filter-1)" id="煤">
                    <g transform="translate(11.440000, 17.600000)"></g>
                </g>
            </g>
            <g id="编组-142" transform="translate(635.460000, 0.000000)">
                <rect id="矩形备份-69" stroke="#1890FF" stroke-width="0.88" fill="#FFFFFF" x="0.44" y="0.44" width="76.56" height="53.68"></rect>
                <text id="煤塔" font-family="PingFangSC-Regular, PingFang SC" font-size="12.32" font-weight="normal" fill="#4A4A4A">
                    <tspan x="44.88" y="32.36">煤塔</tspan>
                </text>
                <path d="M18.0756393,17.6227497 L28.8817498,17.6227497 C28.8817498,17.6227497 31.1823138,28.4794783 32.8629484,30.7038308 C32.8629484,31.9602624 31.8444093,32.9788014 30.5879778,32.9788014 L16.938154,32.9788014 C15.6817224,32.9788014 14.6631834,31.9602624 14.6631834,30.7038308 L14.6631834,30.7038308 L14.6631834,30.7038308 C14.6631834,30.7038308 18.7649554,21.2513279 18.0756393,17.6227497 Z M14.0944407,34.9962867 L14.0944407,36.08 C14.0944407,36.5660106 14.4884301,36.96 14.9744407,36.96 L32.551691,36.96 C33.0377016,36.96 33.431691,36.5660106 33.431691,36.08 L33.431691,34.9962867 C33.431691,34.5102761 33.0377016,34.1162867 32.551691,34.1162867 L14.9744407,34.1162867 C14.4884301,34.1162867 14.0944407,34.5102761 14.0944407,34.9962867 Z" id="形状" fill="#1890FF" fill-rule="nonzero"></path>
            </g>
            <g id="编组-144" transform="translate(278.180000, 0.000000)">
                <rect id="矩形备份-70" stroke="#1890FF" stroke-width="0.88" fill="#FFFFFF" x="2.55795385e-13" y="1.98951966e-13" width="77.44" height="54.56"></rect>
                <text id="煤场" font-family="PingFangSC-Regular, PingFang SC" font-size="12.32" font-weight="normal" fill="#545454">
                    <tspan x="41.36" y="32.36">煤场</tspan>
                </text>
                <path d="M32.5306592,34.7261522 L32.5306592,23.556913 C32.5306469,22.734446 31.8477458,22.0677077 31.0053408,22.0676957 L28.7173408,22.0676957 C28.5150632,22.0677014 28.3210688,21.9892514 28.1780369,21.8496048 C28.0350051,21.7099583 27.9546533,21.5205552 27.9546592,21.3230652 L27.9546592,19.0892173 C27.9546469,18.2667503 27.2717458,17.6 26.4293408,17.6 L16.5146592,17.6 C15.6722542,17.6 14.9893531,18.2667503 14.9893408,19.0892173 L14.9893408,34.7261522 C14.9893467,34.9236422 14.9089949,35.1130453 14.7659631,35.2526918 C14.6229312,35.3923384 14.4289368,35.4707884 14.2266592,35.4707827 L13.0826592,35.4707827 C12.6614542,35.4707827 12.32,35.8041553 12.32,36.2153913 C12.32,36.6266273 12.6614542,36.96 13.0826592,36.96 L34.4373408,36.96 C34.8585458,36.96 35.2,36.6266273 35.2,36.2153913 C35.2,35.8041553 34.8585458,35.4707827 34.4373408,35.4707827 L33.2933408,35.4707827 C33.0910632,35.4707884 32.8970688,35.3923384 32.7540369,35.2526918 C32.6110051,35.1130453 32.5306533,34.9236422 32.5306592,34.7261522 L32.5306592,34.7261522 Z M19.5752391,31.0012109 L18.8125798,31.0012109 C18.3913748,31.0012109 18.0499206,30.6678383 18.0499206,30.2566022 L18.0499206,29.5119936 C18.0499206,29.3145073 18.1302634,29.1251076 18.2732904,28.9854616 C18.4163174,28.8458157 18.6103062,28.7673631 18.8125798,28.7673631 L19.5752391,28.7673631 C19.7775166,28.7673631 19.9715111,28.8458073 20.1145429,28.9854539 C20.2575747,29.1251005 20.3379206,29.3145035 20.3379206,29.5119936 L20.3379206,30.2566022 C20.3379206,30.4540885 20.2575662,30.6434859 20.114535,30.7831278 C19.9715038,30.9227696 19.7775127,31.0012109 19.5752391,31.0012109 L19.5752391,31.0012109 Z M19.5752391,26.5335152 L18.8125798,26.5335152 C18.3913748,26.5335152 18.0499206,26.2001426 18.0499206,25.7889066 L18.0499206,25.0442979 C18.0499206,24.8468116 18.1302634,24.6574119 18.2732904,24.517766 C18.4163174,24.37812 18.6103062,24.2996674 18.8125798,24.2996674 L19.5752391,24.2996674 C19.7775166,24.2996674 19.9715111,24.3781117 20.1145429,24.5177582 C20.2575747,24.6574048 20.3379206,24.8468078 20.3379206,25.0442979 L20.3379206,25.7889066 C20.3379206,25.9863929 20.2575662,26.1757903 20.114535,26.3154321 C19.9715038,26.455074 19.7775127,26.5335152 19.5752391,26.5335152 Z M19.5752391,22.0658196 L18.8125798,22.0658196 C18.3913748,22.0658196 18.0499206,21.7324469 18.0499206,21.3212109 L18.0499206,20.5766022 C18.0499206,20.379116 18.1302634,20.1897162 18.2732904,20.0500703 C18.4163174,19.9104244 18.6103062,19.8319717 18.8125798,19.8319717 L19.5752391,19.8319717 C19.7775166,19.8319717 19.9715111,19.910416 20.1145429,20.0500626 C20.2575747,20.1897091 20.3379206,20.3791122 20.3379206,20.5766022 L20.3379206,21.3212109 C20.3379206,21.5186972 20.2575662,21.7080946 20.114535,21.8477365 C19.9715038,21.9873783 19.7775127,22.0658196 19.5752391,22.0658196 L19.5752391,22.0658196 Z M24.1512391,31.0012109 L23.3885798,31.0012109 C22.9673748,31.0012109 22.6259206,30.6678383 22.6259206,30.2566022 L22.6259206,29.5119936 C22.6259206,29.3145073 22.7062634,29.1251076 22.8492904,28.9854616 C22.9923174,28.8458157 23.1863062,28.7673631 23.3885798,28.7673631 L24.1512391,28.7673631 C24.3535166,28.7673631 24.5475111,28.8458073 24.6905429,28.9854539 C24.8335747,29.1251005 24.9139206,29.3145035 24.9139206,29.5119936 L24.9139206,30.2566022 C24.9139206,30.4540885 24.8335662,30.6434859 24.690535,30.7831278 C24.5475038,30.9227696 24.3535127,31.0012109 24.1512391,31.0012109 L24.1512391,31.0012109 Z M24.1512391,26.5335152 L23.3885798,26.5335152 C22.9673748,26.5335152 22.6259206,26.2001426 22.6259206,25.7889066 L22.6259206,25.0442979 C22.6259206,24.8468116 22.7062634,24.6574119 22.8492904,24.517766 C22.9923174,24.37812 23.1863062,24.2996674 23.3885798,24.2996674 L24.1512391,24.2996674 C24.3535166,24.2996674 24.5475111,24.3781117 24.6905429,24.5177582 C24.8335747,24.6574048 24.9139206,24.8468078 24.9139206,25.0442979 L24.9139206,25.7889066 C24.9139206,25.9863929 24.8335662,26.1757903 24.690535,26.3154321 C24.5475038,26.455074 24.3535127,26.5335152 24.1512391,26.5335152 Z M24.1512391,22.0658196 L23.3885798,22.0658196 C22.9673748,22.0658196 22.6259206,21.7324469 22.6259206,21.3212109 L22.6259206,20.5766022 C22.6259206,20.379116 22.7062634,20.1897162 22.8492904,20.0500703 C22.9923174,19.9104244 23.1863062,19.8319717 23.3885798,19.8319717 L24.1512391,19.8319717 C24.3535166,19.8319717 24.5475111,19.910416 24.6905429,20.0500626 C24.8335747,20.1897091 24.9139206,20.3791122 24.9139206,20.5766022 L24.9139206,21.3212109 C24.9139206,21.5186972 24.8335662,21.7080946 24.690535,21.8477365 C24.5475038,21.9873783 24.3535127,22.0658196 24.1512391,22.0658196 L24.1512391,22.0658196 Z M29.4781008,35.4689066 L27.95276,35.4689066 C27.5315549,35.4689066 27.1901008,35.1355339 27.1901008,34.7242979 L27.1901008,31.7458414 C27.1901008,31.5483551 27.2704436,31.3589554 27.4134706,31.2193095 C27.5564976,31.0796635 27.7504863,31.0012109 27.95276,31.0012109 L29.4781008,31.0012109 C29.6803745,31.0012109 29.8743632,31.0796635 30.0173902,31.2193095 C30.1604172,31.3589554 30.24076,31.5483551 30.24076,31.7458414 L30.24076,34.7242979 C30.24076,35.1355339 29.8993058,35.4689066 29.4781008,35.4689066 L29.4781008,35.4689066 Z" id="形状" fill="#1890FF" fill-rule="nonzero"></path>
                <g id="编组-3" transform="translate(0.000000, 0.000000)"></g>
                <g id="厂" transform="translate(12.320000, 17.600000)"></g>
            </g>
            <rect id="矩形备份-6" fill="#1890FF" x="199.22" y="27.16" width="74" height="1"></rect>
            <path d="M272.085949,25.5906061 L274.985949,29.4572727 C275.251045,29.810735 275.179411,30.3121761 274.825949,30.5772727 C274.687472,30.6811304 274.519045,30.7372727 274.345949,30.7372727 L268.545949,30.7372727 C268.104121,30.7372727 267.745949,30.3791005 267.745949,29.9372727 C267.745949,29.7641766 267.802091,29.5957497 267.905949,29.4572727 L270.805949,25.5906061 C271.071045,25.2371438 271.572486,25.1655094 271.925949,25.4306061 C271.986593,25.4760895 272.040465,25.5299615 272.085949,25.5906061 Z" id="三角形" fill="#1890FF" transform="translate(271.445949, 27.737273) rotate(-270.000000) translate(-271.445949, -27.737273) "></path>
            <rect id="矩形" stroke="#1890FF" stroke-width="0.88" fill="#FFFFFF" x="186.42" y="20.68" width="13.2" height="13.2" rx="6.6"></rect>
            <rect id="矩形备份-8" fill="#1890FF" x="187.74" y="22" width="10.56" height="10.56" rx="5.28"></rect>
            <g id="编组-170" transform="translate(307.220000, 115.920000)">
                <g id="编组-141备份" transform="translate(0.000000, 92.058869)">
                    <rect id="矩形" stroke="#1890FF" stroke-width="0.88" fill="#FFFFFF" x="0.44" y="1.66113147" width="5.12" height="5.12" rx="2.56"></rect>
                    <rect id="矩形备份-8" fill="#1890FF" x="1.2443639" y="2.47442644" width="3.5" height="3.5" rx="1.75"></rect>
                    <g id="编组-134备份-2" transform="translate(5.462094, 0.000000)" fill="#1890FF">
                        <rect id="矩形备份-6" x="0.52022898" y="3.92272726" width="73" height="1"></rect>
                        <path d="M72.340229,2.35333333 L75.240229,6.22 C75.5053257,6.57346224 75.4336912,7.07490332 75.080229,7.34 C74.941752,7.4438577 74.7733252,7.5 74.600229,7.5 L68.800229,7.5 C68.3584012,7.5 68.000229,7.1418278 68.000229,6.7 C68.000229,6.52690383 68.0563713,6.35847694 68.160229,6.22 L71.060229,2.35333333 C71.3253257,1.99987109 71.8267667,1.92823665 72.180229,2.19333333 C72.2408735,2.23881673 72.2947456,2.2926888 72.340229,2.35333333 Z" id="三角形" transform="translate(71.700229, 4.500000) rotate(-270.000000) translate(-71.700229, -4.500000) "></path>
                    </g>
                </g>
                <g id="编组-141备份" transform="translate(0.000000, 92.058869)">
                    <rect id="矩形" stroke="#1890FF" stroke-width="0.88" fill="#FFFFFF" x="0.44" y="1.66113147" width="5.12" height="5.12" rx="2.56"></rect>
                    <rect id="矩形备份-8" fill="#1890FF" x="1.2443639" y="2.47442644" width="3.5" height="3.5" rx="1.75"></rect>
                    <g id="编组-134备份-2" transform="translate(5.462094, 0.000000)" fill="#1890FF">
                        <rect id="矩形备份-6" x="0.52022898" y="3.92272726" width="73" height="1"></rect>
                        <path d="M72.340229,2.35333333 L75.240229,6.22 C75.5053257,6.57346224 75.4336912,7.07490332 75.080229,7.34 C74.941752,7.4438577 74.7733252,7.5 74.600229,7.5 L68.800229,7.5 C68.3584012,7.5 68.000229,7.1418278 68.000229,6.7 C68.000229,6.52690383 68.0563713,6.35847694 68.160229,6.22 L71.060229,2.35333333 C71.3253257,1.99987109 71.8267667,1.92823665 72.180229,2.19333333 C72.2408735,2.23881673 72.2947456,2.2926888 72.340229,2.35333333 Z" id="三角形" transform="translate(71.700229, 4.500000) rotate(-270.000000) translate(-71.700229, -4.500000) "></path>
                    </g>
                </g>
                <g id="编组-141备份-3" transform="translate(145.000000, 92.058869)">
                    <rect id="矩形" stroke="#1890FF" stroke-width="0.88" fill="#FFFFFF" x="0.44" y="1.66113147" width="5.12" height="5.12" rx="2.56"></rect>
                    <rect id="矩形备份-8" fill="#1890FF" x="1.2443639" y="2.47442644" width="3.5" height="3.5" rx="1.75"></rect>
                    <g id="编组-134备份-2" transform="translate(5.462094, 0.000000)" fill="#1890FF">
                        <rect id="矩形备份-6" x="0.52022898" y="3.92272726" width="73" height="1"></rect>
                        <path d="M72.340229,2.35333333 L75.240229,6.22 C75.5053257,6.57346224 75.4336912,7.07490332 75.080229,7.34 C74.941752,7.4438577 74.7733252,7.5 74.600229,7.5 L68.800229,7.5 C68.3584012,7.5 68.000229,7.1418278 68.000229,6.7 C68.000229,6.52690383 68.0563713,6.35847694 68.160229,6.22 L71.060229,2.35333333 C71.3253257,1.99987109 71.8267667,1.92823665 72.180229,2.19333333 C72.2408735,2.23881673 72.2947456,2.2926888 72.340229,2.35333333 Z" id="三角形" transform="translate(71.700229, 4.500000) rotate(-270.000000) translate(-71.700229, -4.500000) "></path>
                    </g>
                </g>
                <g id="编组-141备份-8" transform="translate(160.000000, 0.240000)">
                    <rect id="矩形" stroke="#1890FF" stroke-width="0.88" fill="#FFFFFF" x="0.44" y="1.66113147" width="5.12" height="5.12" rx="2.56"></rect>
                    <rect id="矩形备份-8" fill="#1890FF" x="1.2443639" y="2.47442644" width="3.5" height="3.5" rx="1.75"></rect>
                    <g id="编组-134备份-2" transform="translate(5.462094, 0.000000)" fill="#1890FF">
                        <rect id="矩形备份-6" x="0.52022898" y="3.92272726" width="73" height="1"></rect>
                        <path d="M72.340229,2.35333333 L75.240229,6.22 C75.5053257,6.57346224 75.4336912,7.07490332 75.080229,7.34 C74.941752,7.4438577 74.7733252,7.5 74.600229,7.5 L68.800229,7.5 C68.3584012,7.5 68.000229,7.1418278 68.000229,6.7 C68.000229,6.52690383 68.0563713,6.35847694 68.160229,6.22 L71.060229,2.35333333 C71.3253257,1.99987109 71.8267667,1.92823665 72.180229,2.19333333 C72.2408735,2.23881673 72.2947456,2.2926888 72.340229,2.35333333 Z" id="三角形" transform="translate(71.700229, 4.500000) rotate(-270.000000) translate(-71.700229, -4.500000) "></path>
                    </g>
                </g>
                <g id="编组-138" transform="translate(85.000000, 68.000000)">
                    <rect id="矩形备份-61" stroke="#1890FF" stroke-width="0.88" fill="#FFFFFF" x="0.44" y="8.61142857" width="45.76" height="39.9771429"></rect>
                    <ellipse id="椭圆形备份-9" stroke="#1890FF" stroke-width="0.88" fill="#B5DBFF" cx="23.32" cy="49.0285714" rx="22.88" ry="7.73142857"></ellipse>
                    <rect id="矩形" fill="#B5DBFF" x="0.858808571" y="45.3967422" width="44.88" height="3.63174603"></rect>
                    <ellipse id="椭圆形" stroke="#1890FF" stroke-width="0.88" fill="#FFFFFF" cx="23.32" cy="8.17142857" rx="22.88" ry="7.73142857"></ellipse>
                    <path d="M23.32,37.6653968 C16.937656,37.6653968 11.1586259,38.5683087 6.97577361,40.0339981 C4.8862127,40.7661893 3.19932787,41.6356863 2.05015123,42.6078333 C1.03451287,43.4670134 0.44,44.4004455 0.44,45.3968254 C0.44,46.3932053 1.03451287,47.3266374 2.05015123,48.1858175 C3.19932787,49.1579645 4.8862127,50.0274615 6.97577361,50.7596527 C11.1586259,52.2253421 16.937656,53.128254 23.32,53.128254 C29.702344,53.128254 35.4813741,52.2253421 39.6642264,50.7596527 C41.7537873,50.0274615 43.4406721,49.1579645 44.5898488,48.1858175 C45.6054871,47.3266374 46.2,46.3932053 46.2,45.3968254 C46.2,44.4004455 45.6054871,43.4670134 44.5898488,42.6078333 C43.4406721,41.6356863 41.7537873,40.7661893 39.6642264,40.0339981 C35.4813741,38.5683087 29.702344,37.6653968 23.32,37.6653968 Z" id="椭圆形备份-10" stroke="#1890FF" stroke-width="0.88" fill="#B5DBFF"></path>
                    <ellipse id="椭圆形备份-16" fill="#FFFFFF" cx="12.6316667" cy="37.2253968" rx="1" ry="1"></ellipse>
                    <text id="液碱" font-family="PingFangSC-Regular, PingFang SC" font-size="12.32" font-weight="normal" fill="#4A4A4A">
                        <tspan x="11.44" y="32.36">液碱</tspan>
                    </text>
                </g>
            </g>
            <g id="编组-160" transform="translate(537.220000, 185.160000)">
                <rect id="矩形备份-24" stroke="#1890FF" stroke-width="0.88" fill="#FFFFFF" x="2.55795385e-13" y="1.98951966e-13" width="77.44" height="54.56"></rect>
                <text id="化五-蒸氨装置" font-family="PingFangSC-Regular, PingFang SC" font-size="12.32" font-weight="normal" line-spacing="14.08" fill="#5E5E5E">
                    <tspan x="26.39296" y="25.55136">化五</tspan>
                    <tspan x="14.07296" y="39.63136">蒸氨装置</tspan>
                </text>
            </g>
            <g id="编组-141备份-2" transform="translate(748.835658, 207.953441)" fill="#1890FF">
                <g id="编组-134备份-2" transform="translate(0.462094, 0.000000)">
                    <rect id="矩形备份-6" x="0.52022898" y="4.92272726" width="73" height="1"></rect>
                    <path d="M75.0622481,3.0598927 L77.9622481,6.92655936 C78.2273448,7.2800216 78.1557104,7.78146268 77.8022481,8.04655936 C77.6637712,8.15041706 77.4953443,8.20655936 77.3222481,8.20655936 L71.5222481,8.20655936 C71.0804203,8.20655936 70.7222481,7.84838716 70.7222481,7.40655936 C70.7222481,7.23346319 70.7783904,7.0650363 70.8822481,6.92655936 L73.7822481,3.0598927 C74.0473448,2.70643046 74.5487859,2.63479602 74.9022481,2.8998927 C74.9628926,2.9453761 75.0167647,2.99924816 75.0622481,3.0598927 Z" id="三角形" transform="translate(74.422248, 5.206559) rotate(-270.000000) translate(-74.422248, -5.206559) "></path>
                </g>
            </g>
            <rect id="矩形备份-6" fill="#1890FF" x="20.0553846" y="212.028614" width="73" height="1"></rect>
            <path d="M91.8753846,210.45922 L94.7753846,214.325887 C95.0404813,214.679349 94.9688469,215.18079 94.6153846,215.445887 C94.4769077,215.549744 94.3084808,215.605887 94.1353846,215.605887 L88.3353846,215.605887 C87.8935568,215.605887 87.5353846,215.247714 87.5353846,214.805887 C87.5353846,214.632791 87.5915269,214.464364 87.6953846,214.325887 L90.5953846,210.45922 C90.8604813,210.105758 91.3619224,210.034123 91.7153846,210.29922 C91.7760292,210.344703 91.8299012,210.398575 91.8753846,210.45922 Z" id="三角形" fill="#1890FF" transform="translate(91.235385, 212.605887) rotate(-270.000000) translate(-91.235385, -212.605887) "></path>
            <rect id="矩形" stroke="#1890FF" stroke-width="0.88" fill="#FFFFFF" x="15.2153846" y="209.588614" width="5.12" height="5.12" rx="2.56"></rect>
            <rect id="矩形备份-8" fill="#1890FF" x="16.0197485" y="210.401909" width="3.5" height="3.5" rx="1.75"></rect>
            <rect id="矩形备份-6" fill="#1890FF" x="758.54" y="582.08" width="77" height="1"></rect>
            <path d="M837.36,580.510606 L840.26,584.377273 C840.525097,584.730735 840.453462,585.232176 840.1,585.497273 C839.961523,585.60113 839.793096,585.657273 839.62,585.657273 L833.82,585.657273 C833.378172,585.657273 833.02,585.299101 833.02,584.857273 C833.02,584.684177 833.076142,584.51575 833.18,584.377273 L836.08,580.510606 C836.345097,580.157144 836.846538,580.085509 837.2,580.350606 C837.260645,580.396089 837.314517,580.449962 837.36,580.510606 Z" id="三角形" fill="#1890FF" transform="translate(836.720000, 582.657273) rotate(-270.000000) translate(-836.720000, -582.657273) "></path>
            <g id="编组-140" transform="translate(703.220000, 183.920000)">
                <rect id="矩形备份-61" stroke="#1890FF" stroke-width="0.88" fill="#FFFFFF" x="0.44" y="8.61142857" width="45.76" height="39.9771429"></rect>
                <ellipse id="椭圆形备份-9" stroke="#1890FF" stroke-width="0.88" fill="#B5DBFF" cx="23.32" cy="49.0285714" rx="22.88" ry="7.73142857"></ellipse>
                <rect id="矩形" fill="#B5DBFF" x="0.858808571" y="45.3967422" width="44.88" height="3.63174603"></rect>
                <ellipse id="椭圆形" stroke="#1890FF" stroke-width="0.88" fill="#FFFFFF" cx="23.32" cy="8.17142857" rx="22.88" ry="7.73142857"></ellipse>
                <path d="M23.32,37.6653968 C16.937656,37.6653968 11.1586259,38.5683087 6.97577361,40.0339981 C4.8862127,40.7661893 3.19932787,41.6356863 2.05015123,42.6078333 C1.03451287,43.4670134 0.44,44.4004455 0.44,45.3968254 C0.44,46.3932053 1.03451287,47.3266374 2.05015123,48.1858175 C3.19932787,49.1579645 4.8862127,50.0274615 6.97577361,50.7596527 C11.1586259,52.2253421 16.937656,53.128254 23.32,53.128254 C29.702344,53.128254 35.4813741,52.2253421 39.6642264,50.7596527 C41.7537873,50.0274615 43.4406721,49.1579645 44.5898488,48.1858175 C45.6054871,47.3266374 46.2,46.3932053 46.2,45.3968254 C46.2,44.4004455 45.6054871,43.4670134 44.5898488,42.6078333 C43.4406721,41.6356863 41.7537873,40.7661893 39.6642264,40.0339981 C35.4813741,38.5683087 29.702344,37.6653968 23.32,37.6653968 Z" id="椭圆形备份-10" stroke="#1890FF" stroke-width="0.88" fill="#B5DBFF"></path>
                <ellipse id="椭圆形备份-16" fill="#FFFFFF" cx="12.6316667" cy="37.2253968" rx="1" ry="1"></ellipse>
                <text id="氨水" font-family="PingFangSC-Regular, PingFang SC" font-size="12.32" font-weight="normal" fill="#4A4A4A">
                    <tspan x="12.32" y="31.48">氨水</tspan>
                </text>
                <g id="编组-134" transform="translate(20.520000, 21.240000)">
                    <g id="编组-133">
                        <g id="编组-132">
                            <g id="编组-39">
                                <g id="编组-6">
                                    <g id="编组">
                                        <g id="编组-12"></g>
                                    </g>
                                </g>
                            </g>
                        </g>
                    </g>
                </g>
            </g>
            <g id="编组-145" transform="translate(533.420000, 22.737273)" fill="#1890FF">
                <rect id="矩形备份-6" x="0" y="4.54272726" width="95" height="1"></rect>
                <path d="M93.94,2.85333333 L96.84,6.72 C97.1050967,7.07346224 97.0334622,7.57490332 96.68,7.84 C96.5415231,7.9438577 96.3730962,8 96.2,8 L90.4,8 C89.9581722,8 89.6,7.6418278 89.6,7.2 C89.6,7.02690383 89.6561423,6.85847694 89.76,6.72 L92.66,2.85333333 C92.9250967,2.49987109 93.4265378,2.42823665 93.78,2.69333333 C93.8406445,2.73881673 93.8945166,2.7926888 93.94,2.85333333 Z" id="三角形备份-2" transform="translate(93.300000, 5.000000) rotate(-270.000000) translate(-93.300000, -5.000000) "></path>
            </g>
            <g id="编组-145" transform="translate(712.420000, 22.737273)" fill="#1890FF">
                <rect id="矩形备份-6" x="0" y="4.54272726" width="95" height="1"></rect>
                <path d="M93.94,2.85333333 L96.84,6.72 C97.1050967,7.07346224 97.0334622,7.57490332 96.68,7.84 C96.5415231,7.9438577 96.3730962,8 96.2,8 L90.4,8 C89.9581722,8 89.6,7.6418278 89.6,7.2 C89.6,7.02690383 89.6561423,6.85847694 89.76,6.72 L92.66,2.85333333 C92.9250967,2.49987109 93.4265378,2.42823665 93.78,2.69333333 C93.8406445,2.73881673 93.8945166,2.7926888 93.94,2.85333333 Z" id="三角形备份-2" transform="translate(93.300000, 5.000000) rotate(-270.000000) translate(-93.300000, -5.000000) "></path>
            </g>
            <rect id="矩形备份-6" fill="#1890FF" x="355.78" y="27.2452525" width="94" height="1"></rect>
            <g id="编组-161" transform="translate(551.540000, 91.640000)">
                <rect id="矩形备份-61" stroke="#1890FF" stroke-width="0.88" fill="#FFFFFF" x="0.44" y="8.61142857" width="45.76" height="39.9771429"></rect>
                <ellipse id="椭圆形备份-9" stroke="#1890FF" stroke-width="0.88" fill="#B5DBFF" cx="23.32" cy="49.0285714" rx="22.88" ry="7.73142857"></ellipse>
                <rect id="矩形" fill="#B5DBFF" x="0.858808571" y="45.3967422" width="44.88" height="3.63174603"></rect>
                <ellipse id="椭圆形" stroke="#1890FF" stroke-width="0.88" fill="#FFFFFF" cx="23.32" cy="8.17142857" rx="22.88" ry="7.73142857"></ellipse>
                <path d="M23.32,37.6653968 C16.937656,37.6653968 11.1586259,38.5683087 6.97577361,40.0339981 C4.8862127,40.7661893 3.19932787,41.6356863 2.05015123,42.6078333 C1.03451287,43.4670134 0.44,44.4004455 0.44,45.3968254 C0.44,46.3932053 1.03451287,47.3266374 2.05015123,48.1858175 C3.19932787,49.1579645 4.8862127,50.0274615 6.97577361,50.7596527 C11.1586259,52.2253421 16.937656,53.128254 23.32,53.128254 C29.702344,53.128254 35.4813741,52.2253421 39.6642264,50.7596527 C41.7537873,50.0274615 43.4406721,49.1579645 44.5898488,48.1858175 C45.6054871,47.3266374 46.2,46.3932053 46.2,45.3968254 C46.2,44.4004455 45.6054871,43.4670134 44.5898488,42.6078333 C43.4406721,41.6356863 41.7537873,40.7661893 39.6642264,40.0339981 C35.4813741,38.5683087 29.702344,37.6653968 23.32,37.6653968 Z" id="椭圆形备份-10" stroke="#1890FF" stroke-width="0.88" fill="#B5DBFF"></path>
                <ellipse id="椭圆形备份-16" fill="#FFFFFF" cx="12.6316667" cy="37.2253968" rx="1" ry="1"></ellipse>
                <text id="磷酸" font-family="PingFangSC-Regular, PingFang SC" font-size="12.32" font-weight="normal" fill="#4A4A4A">
                    <tspan x="11.44" y="31.48">磷酸</tspan>
                </text>
                <g id="编组-153" transform="translate(19.651705, 55.580000)" fill="#1890FF">
                    <g id="编组-136">
                        <rect id="矩形备份-6" transform="translate(4.500000, 15.440000) scale(-1, 1) rotate(-90.000000) translate(-4.500000, -15.440000) " x="-10" y="15" width="29" height="1"></rect>
                        <path d="M5.16848944,27.7125076 L8.06848944,31.5791743 C8.33358612,31.9326365 8.26195168,32.4340776 7.90848944,32.6991743 C7.77001251,32.803032 7.60158562,32.8591743 7.42848944,32.8591743 L1.62848944,32.8591743 C1.18666164,32.8591743 0.828489444,32.5010021 0.828489444,32.0591743 C0.828489444,31.8860781 0.884631742,31.7176512 0.988489444,31.5791743 L3.88848944,27.7125076 C4.15358612,27.3590454 4.6550272,27.2874109 5.00848944,27.5525076 C5.06913398,27.597991 5.12300604,27.6518631 5.16848944,27.7125076 Z" id="三角形备份-11" transform="translate(4.528489, 29.859174) scale(-1, 1) rotate(-180.000000) translate(-4.528489, -29.859174) "></path>
                    </g>
                </g>
                <g id="编组-34" transform="translate(10.560000, 21.120000)"></g>
            </g>
            <g id="编组-159" transform="translate(536.580000, 277.200000)">
                <rect id="矩形" stroke="#1890FF" stroke-width="0.88" fill="#FFFFFF" x="2.55795385e-13" y="1.98951966e-13" width="77.44" height="54.56"></rect>
                <text id="脱硫装置" font-family="PingFangSC-Regular, PingFang SC" font-size="12.32" font-weight="normal" line-spacing="14.08" fill="#545454">
                    <tspan x="14.07296" y="32.59136">脱硫装置</tspan>
                </text>
            </g>
            <g id="编组-157" transform="translate(536.580000, 553.640000)">
                <rect id="矩形备份-25" stroke="#1890FF" stroke-width="0.88" fill="#FFFFFF" x="2.55795385e-13" y="1.98951966e-13" width="77.44" height="54.56"></rect>
                <text id="合成氨装置" font-family="PingFangSC-Regular, PingFang SC" font-size="12.32" font-weight="normal" line-spacing="14.08" fill="#545454">
                    <tspan x="7.72" y="33.24">合成氨装置</tspan>
                </text>
                <g id="编组-125" transform="translate(0.000000, 0.000000)"></g>
            </g>
            <g id="编组-156" transform="translate(536.580000, 700.480000)">
                <rect id="矩形备份-29" stroke="#1890FF" stroke-width="0.88" fill="#FFFFFF" x="2.55795385e-13" y="1.98951966e-13" width="77.44" height="54.56"></rect>
                <text id="合成装置" font-family="PingFangSC-Regular, PingFang SC" font-size="12.32" font-weight="normal" line-spacing="14.08" fill="#545454">
                    <tspan x="14.07296" y="32.59136">合成装置</tspan>
                </text>
            </g>
            <rect id="矩形备份-57" stroke="#1890FF" stroke-width="0.88" fill="#FFFFFF" x="814.98" y="700.48" width="77.44" height="54.56"></rect>
            <text id="精馏装置" font-family="PingFangSC-Regular, PingFang SC" font-size="12.32" font-weight="normal" line-spacing="14.08" fill="#545454">
                <tspan x="829.05296" y="733.07136">精馏装置</tspan>
            </text>
            <rect id="矩形备份-58" stroke="#1890FF" stroke-width="0.88" fill="#FFFFFF" x="987.22" y="647.16" width="77.44" height="54.56"></rect>
            <text id="煤气-发电装置" font-family="PingFangSC-Regular, PingFang SC" font-size="12.32" font-weight="normal" line-spacing="14.08" fill="#545454">
                <tspan x="1012.85296" y="672.51136">煤气</tspan>
                <tspan x="1000.53296" y="686.59136">发电装置</tspan>
            </text>
            <g id="编组-221" transform="translate(1105.780000, 478.080000)">
                <rect id="矩形备份-63" stroke="#1890FF" stroke-width="0.88" fill="#FFFFFF" x="2.55795385e-13" y="1.98951966e-13" width="77.44" height="54.56"></rect>
                <text id="科宏" font-family="PingFangSC-Regular, PingFang SC" font-size="12.32" font-weight="normal" line-spacing="14.08" fill="#545454">
                    <tspan x="26.22" y="33.24">科宏</tspan>
                </text>
            </g>
            <rect id="矩形备份-59" stroke="#1890FF" stroke-width="0.88" fill="#FFFFFF" x="987.46" y="314.16" width="77.44" height="54.56"></rect>
            <text id="锅炉装置" font-family="PingFangSC-Regular, PingFang SC" font-size="12.32" font-weight="normal" line-spacing="14.08" fill="#545454">
                <tspan x="1001.53296" y="346.75136">锅炉装置</tspan>
            </text>
            <rect id="矩形备份-62" fill="#1890FF" x="1024.42" y="378.84" width="1" height="261"></rect>
            <rect id="矩形" fill="#1890FF" transform="translate(551.500000, 505.660000) scale(1, -1) translate(-551.500000, -505.660000) " x="1.5" y="505.16" width="1100" height="1"></rect>
            <rect id="矩形备份-55" stroke="#1890FF" stroke-width="0.88" fill="#FFFFFF" x="297.54" y="700.48" width="77.44" height="54.56"></rect>
            <rect id="矩形备份-56" stroke="#1890FF" stroke-width="0.88" fill="#FFFFFF" x="84.22" y="700.16" width="77.44" height="54.56"></rect>
            <text id="转化装置" font-family="PingFangSC-Regular, PingFang SC" font-size="12.32" font-weight="normal" line-spacing="14.08" fill="#545454">
                <tspan x="311.61296" y="733.07136">转化装置</tspan>
            </text>
            <text id="干法-脱硫装置" font-family="PingFangSC-Regular, PingFang SC" font-size="12.32" font-weight="normal" line-spacing="14.08" fill="#545454">
                <tspan x="110.85296" y="726.51136">干法</tspan>
                <tspan x="98.53296" y="740.59136">脱硫装置</tspan>
            </text>
            <g id="编组-152" transform="translate(570.248684, 243.081344)" fill="#1890FF">
                <rect id="矩形备份-6" transform="translate(5.500000, 19.777830) rotate(-270.000000) translate(-5.500000, -19.777830) " x="-9" y="19.3378299" width="29" height="1"></rect>
                <path d="M6.11151056,0.853333333 L9.01151056,4.72 C9.27660724,5.07346224 9.2049728,5.57490332 8.85151056,5.84 C8.71303362,5.9438577 8.54460673,6 8.37151056,6 L2.57151056,6 C2.12968276,6 1.77151056,5.6418278 1.77151056,5.2 C1.77151056,5.02690383 1.82765285,4.85847694 1.93151056,4.72 L4.83151056,0.853333333 C5.09660724,0.499871093 5.59804832,0.428236653 5.95151056,0.693333333 C6.01215509,0.738816733 6.06602716,0.792688801 6.11151056,0.853333333 Z" id="三角形备份-10" transform="translate(5.471511, 3.000000) rotate(-360.000000) translate(-5.471511, -3.000000) "></path>
            </g>
            <g id="编组-158" transform="translate(551.540000, 366.960000)">
                <rect id="矩形备份-61" stroke="#1890FF" stroke-width="0.88" fill="#FFFFFF" x="0.44" y="8.61142857" width="46.64" height="39.9771429"></rect>
                <ellipse id="椭圆形备份-9" stroke="#1890FF" stroke-width="0.88" fill="#B5DBFF" cx="23.76" cy="49.0285714" rx="23.32" ry="7.73142857"></ellipse>
                <rect id="矩形" fill="#B5DBFF" x="0.875012506" y="45.3967422" width="45.7267925" height="3.63174603"></rect>
                <ellipse id="椭圆形" stroke="#1890FF" stroke-width="0.88" fill="#FFFFFF" cx="23.76" cy="8.17142857" rx="23.32" ry="7.73142857"></ellipse>
                <path d="M23.76,37.6653968 C17.2551924,37.6653968 11.3653322,38.5686908 7.1022395,40.0348338 C4.97178779,40.7675288 3.25201959,41.6376295 2.08036838,42.610434 C1.04653197,43.468813 0.44,44.4008385 0.44,45.3968254 C0.44,46.3928123 1.04653197,47.3248378 2.08036838,48.1832168 C3.25201959,49.1560213 4.97178779,50.026122 7.1022395,50.758817 C11.3653322,52.22496 17.2551924,53.128254 23.76,53.128254 C30.2648076,53.128254 36.1546678,52.22496 40.4177605,50.758817 C42.5482122,50.026122 44.2679804,49.1560213 45.4396316,48.1832168 C46.473468,47.3248378 47.08,46.3928123 47.08,45.3968254 C47.08,44.4008385 46.473468,43.468813 45.4396316,42.610434 C44.2679804,41.6376295 42.5482122,40.7675288 40.4177605,40.0348338 C36.1546678,38.5686908 30.2648076,37.6653968 23.76,37.6653968 Z" id="椭圆形备份-10" stroke="#1890FF" stroke-width="0.88" fill="#B5DBFF"></path>
                <ellipse id="椭圆形备份-16" fill="#FFFFFF" cx="12.87" cy="37.2253968" rx="1" ry="1"></ellipse>
                <text id="硫磺" font-family="PingFangSC-Regular, PingFang SC" font-size="12.32" font-weight="normal" fill="#4A4A4A">
                    <tspan x="11.44" y="32.36">硫磺</tspan>
                </text>
                <g id="编组-114">
                    <g id="编组-31备份">
                        <g id="编组-99"></g>
                    </g>
                </g>
            </g>
            <g id="编组-155" transform="translate(711.220000, 553.160000)">
                <rect id="矩形备份-61" stroke="#1890FF" stroke-width="0.88" fill="#FFFFFF" x="0.44" y="8.44" width="46.64" height="39.9771429"></rect>
                <ellipse id="椭圆形备份-9" stroke="#1890FF" stroke-width="0.88" fill="#B5DBFF" cx="23.76" cy="48.1714286" rx="23.32" ry="7.73142857"></ellipse>
                <rect id="矩形" fill="#B5DBFF" x="0.877114251" y="44.5306269" width="45.7791862" height="3.63174603"></rect>
                <ellipse id="椭圆形" stroke="#1890FF" stroke-width="0.88" fill="#FFFFFF" cx="23.76" cy="8.17142857" rx="23.32" ry="7.73142857"></ellipse>
                <path d="M23.76,37.44 C17.2551924,37.44 11.3653322,38.343294 7.1022395,39.809437 C4.97178779,40.542132 3.25201959,41.4122327 2.08036838,42.3850372 C1.04653197,43.2434161 0.44,44.1754416 0.44,45.1714286 C0.44,46.1674155 1.04653197,47.099441 2.08036838,47.95782 C3.25201959,48.9306245 4.97178779,49.8007251 7.1022395,50.5334202 C11.3653322,51.9995632 17.2551924,52.9028571 23.76,52.9028571 C30.2648076,52.9028571 36.1546678,51.9995632 40.4177605,50.5334202 C42.5482122,49.8007251 44.2679804,48.9306245 45.4396316,47.95782 C46.473468,47.099441 47.08,46.1674155 47.08,45.1714286 C47.08,44.1754416 46.473468,43.2434161 45.4396316,42.3850372 C44.2679804,41.4122327 42.5482122,40.542132 40.4177605,39.809437 C36.1546678,38.343294 30.2648076,37.44 23.76,37.44 Z" id="椭圆形备份-10" stroke="#1890FF" stroke-width="0.88" fill="#B5DBFF"></path>
                <text id="液氨" font-family="PingFangSC-Regular, PingFang SC" font-size="12.32" font-weight="normal" fill="#4A4A4A">
                    <tspan x="12" y="32">液氨</tspan>
                </text>
            </g>
            <ellipse id="椭圆形备份-16" fill="#FFFFFF" cx="748.57" cy="589.985397" rx="1" ry="1"></ellipse>
            <rect id="矩形备份-61" stroke="#1890FF" stroke-width="0.88" fill="#FFFFFF" x="831.26" y="804.131429" width="46.64" height="39.9771429"></rect>
            <ellipse id="椭圆形备份-9" stroke="#1890FF" stroke-width="0.88" fill="#B5DBFF" cx="854.58" cy="844.548571" rx="23.32" ry="7.73142857"></ellipse>
            <rect id="矩形" fill="#B5DBFF" x="831.695013" y="840.916742" width="45.7267925" height="3.63174603"></rect>
            <ellipse id="椭圆形" stroke="#1890FF" stroke-width="0.88" fill="#FFFFFF" cx="854.58" cy="803.691429" rx="23.32" ry="7.73142857"></ellipse>
            <path d="M854.58,833.185397 C848.075192,833.185397 842.185332,834.088691 837.92224,835.554834 C835.791788,836.287529 834.07202,837.157629 832.900368,838.130434 C831.866532,838.988813 831.26,839.920838 831.26,840.916825 C831.26,841.912812 831.866532,842.844838 832.900368,843.703217 C834.07202,844.676021 835.791788,845.546122 837.92224,846.278817 C842.185332,847.74496 848.075192,848.648254 854.58,848.648254 C861.084808,848.648254 866.974668,847.74496 871.23776,846.278817 C873.368212,845.546122 875.08798,844.676021 876.259632,843.703217 C877.293468,842.844838 877.9,841.912812 877.9,840.916825 C877.9,839.920838 877.293468,838.988813 876.259632,838.130434 C875.08798,837.157629 873.368212,836.287529 871.23776,835.554834 C866.974668,834.088691 861.084808,833.185397 854.58,833.185397 Z" id="椭圆形备份-10" stroke="#1890FF" stroke-width="0.88" fill="#B5DBFF"></path>
            <ellipse id="椭圆形备份-16" fill="#FFFFFF" cx="843.69" cy="832.745397" rx="1" ry="1"></ellipse>
            <g id="编组-151" transform="translate(571.240001, 330.507395)" fill="#1890FF">
                <rect id="矩形备份-6" transform="translate(4.500000, 15.440000) rotate(-270.000000) translate(-4.500000, -15.440000) " x="-10" y="15" width="29" height="1"></rect>
                <path d="M4.04004599,31.7422423 L1.14004599,27.8755756 C0.874949309,27.5221134 0.946583749,27.0206723 1.30004599,26.7555756 C1.43852293,26.6517179 1.60694982,26.5955756 1.78004599,26.5955756 L7.58004599,26.5955756 C8.02187379,26.5955756 8.38004599,26.9537478 8.38004599,27.3955756 C8.38004599,27.5686718 8.32390369,27.7370987 8.22004599,27.8755756 L5.32004599,31.7422423 C5.05494931,32.0957045 4.55350823,32.1673389 4.20004599,31.9022423 C4.13940146,31.8567589 4.08552939,31.8028868 4.04004599,31.7422423 Z" id="三角形备份-17"></path>
            </g>
            <g id="编组-149" transform="translate(572.435165, 505.254923)" fill="#1890FF">
                <rect id="矩形" x="3.28292294" y="0.36" width="1" height="41"></rect>
                <path d="M3.06004708,43.9843267 L0.160047081,40.11766 C-0.105049598,39.7641978 -0.0334151588,39.2627567 0.320047081,38.99766 C0.458524018,38.8938023 0.62695091,38.83766 0.800047081,38.83766 L6.60004708,38.83766 C7.04187488,38.83766 7.40004708,39.1958322 7.40004708,39.63766 C7.40004708,39.8107562 7.34390478,39.9791831 7.24004708,40.11766 L4.34004708,43.9843267 C4.0749504,44.3377889 3.57350932,44.4094234 3.22004708,44.1443267 C3.15940255,44.0988433 3.10553048,44.0449712 3.06004708,43.9843267 Z" id="三角形备份-17"></path>
            </g>
            <g id="编组-147" transform="translate(572.428484, 612.160000)" fill="#1890FF">
                <rect id="矩形备份-176" transform="translate(3.610443, 45.304764) rotate(-180.000000) translate(-3.610443, -45.304764) " x="3.11044315" y="2.30476438" width="1" height="86"></rect>
                <path d="M3.06004708,5.14666667 L0.160047081,1.28 C-0.105049598,0.92653776 -0.0334151588,0.42509668 0.320047081,0.16 C0.458524018,0.0561422973 0.62695091,0 0.800047081,0 L6.60004708,0 C7.04187488,0 7.40004708,0.3581722 7.40004708,0.8 C7.40004708,0.973096171 7.34390478,1.14152306 7.24004708,1.28 L4.34004708,5.14666667 C4.0749504,5.50012891 3.57350932,5.57176335 3.22004708,5.30666667 C3.15940255,5.26118327 3.10553048,5.2073112 3.06004708,5.14666667 Z" id="三角形备份-22" transform="translate(3.700024, 2.733357) rotate(-180.000000) translate(-3.700024, -2.733357) "></path>
            </g>
            <rect id="矩形备份-60" fill="#1890FF" x="854.143077" y="755.315791" width="1" height="34"></rect>
            <text id="甲醇" font-family="PingFangSC-Regular, PingFang SC" font-size="12.32" font-weight="normal" fill="#4A4A4A">
                <tspan x="842.26" y="827.88">甲醇</tspan>
            </text>
            <g id="编组-139" transform="translate(614.220000, 208.160000)" fill="#1890FF">
                <rect id="矩形备份-6" x="0" y="4.8" width="82" height="1"></rect>
                <path d="M81.7,2.85333333 L84.6,6.72 C84.8650967,7.07346224 84.7934622,7.57490332 84.44,7.84 C84.3015231,7.9438577 84.1330962,8 83.96,8 L78.16,8 C77.7181722,8 77.36,7.6418278 77.36,7.2 C77.36,7.02690383 77.4161423,6.85847694 77.52,6.72 L80.42,2.85333333 C80.6850967,2.49987109 81.1865378,2.42823665 81.54,2.69333333 C81.6006445,2.73881673 81.6545166,2.7926888 81.7,2.85333333 Z" id="三角形备份-13" transform="translate(81.060000, 5.000000) rotate(-270.000000) translate(-81.060000, -5.000000) "></path>
            </g>
            <g id="编组-148" transform="translate(613.780000, 577.669883)" fill="#1890FF">
                <rect id="矩形备份-6" x="0" y="3.25011656" width="90" height="1"></rect>
                <path d="M90.6053521,6.14666667 L87.7053521,2.28 C87.4402554,1.92653776 87.5118899,1.42509668 87.8653521,1.16 C88.003829,1.0561423 88.1722559,1 88.3453521,1 L94.1453521,1 C94.5871799,1 94.9453521,1.3581722 94.9453521,1.8 C94.9453521,1.97309617 94.8892098,2.14152306 94.7853521,2.28 L91.8853521,6.14666667 C91.6202554,6.50012891 91.1188144,6.57176335 90.7653521,6.30666667 C90.7047076,6.26118327 90.6508355,6.2073112 90.6053521,6.14666667 Z" id="三角形备份-17" transform="translate(91.245329, 3.733357) rotate(-90.000000) translate(-91.245329, -3.733357) "></path>
            </g>
            <rect id="矩形" stroke="#1890FF" stroke-width="0.88" fill="#FFFFFF" x="811.58" y="277.2" width="77.44" height="54.56"></rect>
            <text id="冷鼓装置" font-family="PingFangSC-Regular, PingFang SC" font-size="12.32" font-weight="normal" line-spacing="14.08" fill="#545454">
                <tspan x="825.65296" y="309.79136">冷鼓装置</tspan>
            </text>
            <g id="编组-137" transform="translate(829.220000, 367.160000)" stroke="#1890FF" stroke-width="0.88">
                <rect id="矩形备份-61" fill="#FFFFFF" x="0.44" y="8.61142857" width="45.76" height="39.9771429"></rect>
                <ellipse id="椭圆形备份-9" fill="#B5DBFF" cx="23.32" cy="49.0285714" rx="22.88" ry="7.73142857"></ellipse>
                <ellipse id="椭圆形" fill="#FFFFFF" cx="23.32" cy="8.17142857" rx="22.88" ry="7.73142857"></ellipse>
            </g>
            <rect id="矩形" fill="#B5DBFF" x="830.088095" y="412.751035" width="45.0096475" height="3.63174603"></rect>
            <path d="M852.54,405.825397 C846.157656,405.825397 840.378626,406.728309 836.195774,408.193998 C834.106213,408.926189 832.419328,409.795686 831.270151,410.767833 C830.254513,411.627013 829.66,412.560445 829.66,413.556825 C829.66,414.553205 830.254513,415.486637 831.270151,416.345818 C832.419328,417.317964 834.106213,418.187461 836.195774,418.919653 C840.378626,420.385342 846.157656,421.288254 852.54,421.288254 C858.922344,421.288254 864.701374,420.385342 868.884226,418.919653 C870.973787,418.187461 872.660672,417.317964 873.809849,416.345818 C874.825487,415.486637 875.42,414.553205 875.42,413.556825 C875.42,412.560445 874.825487,411.627013 873.809849,410.767833 C872.660672,409.795686 870.973787,408.926189 868.884226,408.193998 C864.701374,406.728309 858.922344,405.825397 852.54,405.825397 Z" id="椭圆形备份-10" stroke="#1890FF" stroke-width="0.88" fill="#B5DBFF"></path>
            <text id="焦油" font-family="PingFangSC-Regular, PingFang SC" font-size="12.32" font-weight="normal" fill="#545454">
                <tspan x="840.22" y="399.16">焦油</tspan>
            </text>
            <rect id="矩形备份-6" fill="#1890FF" transform="translate(851.621265, 163.392551) rotate(-270.000000) translate(-851.621265, -163.392551) " x="742.621265" y="162.942138" width="218" height="1"></rect>
            <rect id="矩形备份-6" fill="#1890FF" transform="translate(852.060000, 345.831176) rotate(-270.000000) translate(-852.060000, -345.831176) " x="837.56" y="345.391176" width="29" height="1"></rect>
            <rect id="矩形备份-6" fill="#1890FF" x="0.615642392" y="303.48" width="84" height="1"></rect>
            <polygon id="矩形备份-6" fill="#1890FF" transform="translate(1.060000, 373.560000) rotate(-270.000000) translate(-1.060000, -373.560000) " points="-68.02 373.12 70.14 373.12 70.14 374 -68.02 374"></polygon>
            <rect id="矩形备份-6" fill="#1890FF" transform="translate(40.680000, 728.200000) scale(1, -1) translate(-40.680000, -728.200000) " x="1.18" y="727.76" width="79" height="1"></rect>
            <polygon id="矩形备份-6" fill="#1890FF" transform="translate(1.000000, 570.640000) scale(1, -1) rotate(-270.000000) translate(-1.000000, -570.640000) " points="-157 570.14 159 570.14 159 571.14 -157 571.14"></polygon>
            <g id="编组-217" transform="translate(618.220000, 299.771556)" fill="#1890FF">
                <rect id="矩形" x="5.72" y="4.70844373" width="188" height="1"></rect>
                <path d="M4.14,2.85333333 L7.04,6.72 C7.30509668,7.07346224 7.23346224,7.57490332 6.88,7.84 C6.74152306,7.9438577 6.57309617,8 6.4,8 L0.6,8 C0.1581722,8 -0.2,7.6418278 -0.2,7.2 C-0.2,7.02690383 -0.143857703,6.85847694 -0.04,6.72 L2.86,2.85333333 C3.12509668,2.49987109 3.62653776,2.42823665 3.98,2.69333333 C4.04064453,2.73881673 4.0945166,2.7926888 4.14,2.85333333 Z" id="三角形备份-7" transform="translate(3.500000, 5.000000) rotate(-90.000000) translate(-3.500000, -5.000000) "></path>
            </g>
            <g id="编组-169" transform="translate(316.220000, 297.160000)" fill="#1890FF">
                <rect id="矩形备份-6" x="5.8" y="4.56" width="215" height="1"></rect>
                <path d="M4.14,2.85333333 L7.04,6.72 C7.30509668,7.07346224 7.23346224,7.57490332 6.88,7.84 C6.74152306,7.9438577 6.57309617,8 6.4,8 L0.6,8 C0.1581722,8 -0.2,7.6418278 -0.2,7.2 C-0.2,7.02690383 -0.143857703,6.85847694 -0.04,6.72 L2.86,2.85333333 C3.12509668,2.49987109 3.62653776,2.42823665 3.98,2.69333333 C4.04064453,2.73881673 4.0945166,2.7926888 4.14,2.85333333 Z" id="三角形备份-8" transform="translate(3.500000, 5.000000) rotate(-90.000000) translate(-3.500000, -5.000000) "></path>
            </g>
            <polygon id="矩形备份-6" fill="#1890FF" points="169.06 301.48 234.06 301.48 234.06 302.36 169.06 302.36"></polygon>
            <rect id="矩形" fill="#1890FF" x="613.94" y="727.64" width="194" height="1"></rect>
            <rect id="矩形备份-6" fill="#1890FF" x="374.54" y="727.64" width="155" height="1"></rect>
            <polygon id="矩形备份-6" fill="#1890FF" points="162.093441 727.76 290.5 727.76 290.5 728.64 162.093441 728.64"></polygon>
            <path d="M658.934108,18.48 C661.915957,18.48 664.333223,18.0860106 664.333223,17.6 C664.333223,17.1139894 661.915957,16.72 658.934108,16.72 C655.952259,16.72 653.534993,17.1139894 653.534993,17.6 C653.534993,18.0860106 655.952259,18.48 658.934108,18.48 Z" id="椭圆形" fill="#1890FF"></path>
            <path d="M78.4818964,726.061952 L81.3818964,729.928618 C81.6469931,730.282081 81.5753586,730.783522 81.2218964,731.048618 C81.0834194,731.152476 80.9149926,731.208618 80.7418964,731.208618 L74.9418964,731.208618 C74.5000686,731.208618 74.1418964,730.850446 74.1418964,730.408618 C74.1418964,730.235522 74.1980387,730.067095 74.3018964,729.928618 L77.2018964,726.061952 C77.4669931,725.70849 77.9684341,725.636855 78.3218964,725.901952 C78.3825409,725.947435 78.436413,726.001307 78.4818964,726.061952 Z" id="三角形" fill="#1890FF" transform="translate(77.841896, 728.208618) rotate(-270.000000) translate(-77.841896, -728.208618) "></path>
            <path d="M289.36,726.061952 L292.26,729.928618 C292.525097,730.282081 292.453462,730.783522 292.1,731.048618 C291.961523,731.152476 291.793096,731.208618 291.62,731.208618 L285.82,731.208618 C285.378172,731.208618 285.02,730.850446 285.02,730.408618 C285.02,730.235522 285.076142,730.067095 285.18,729.928618 L288.08,726.061952 C288.345097,725.70849 288.846538,725.636855 289.2,725.901952 C289.260645,725.947435 289.314517,726.001307 289.36,726.061952 Z" id="三角形备份-18" fill="#1890FF" transform="translate(288.720000, 728.208618) rotate(-270.000000) translate(-288.720000, -728.208618) "></path>
            <path d="M530.36,726.013333 L533.26,729.88 C533.525097,730.233462 533.453462,730.734903 533.1,731 C532.961523,731.103858 532.793096,731.16 532.62,731.16 L526.82,731.16 C526.378172,731.16 526.02,730.801828 526.02,730.36 C526.02,730.186904 526.076142,730.018477 526.18,729.88 L529.08,726.013333 C529.345097,725.659871 529.846538,725.588237 530.2,725.853333 C530.260645,725.898817 530.314517,725.952689 530.36,726.013333 Z" id="三角形备份-19" fill="#1890FF" transform="translate(529.720000, 728.160000) rotate(-270.000000) translate(-529.720000, -728.160000) "></path>
            <path d="M806.36,726.013333 L809.26,729.88 C809.525097,730.233462 809.453462,730.734903 809.1,731 C808.961523,731.103858 808.793096,731.16 808.62,731.16 L802.82,731.16 C802.378172,731.16 802.02,730.801828 802.02,730.36 C802.02,730.186904 802.076142,730.018477 802.18,729.88 L805.08,726.013333 C805.345097,725.659871 805.846538,725.588237 806.2,725.853333 C806.260645,725.898817 806.314517,725.952689 806.36,726.013333 Z" id="三角形备份-20" fill="#1890FF" transform="translate(805.720000, 728.160000) rotate(-270.000000) translate(-805.720000, -728.160000) "></path>
            <path d="M855.36,787.013333 L858.26,790.88 C858.525097,791.233462 858.453462,791.734903 858.1,792 C857.961523,792.103858 857.793096,792.16 857.62,792.16 L851.82,792.16 C851.378172,792.16 851.02,791.801828 851.02,791.36 C851.02,791.186904 851.076142,791.018477 851.18,790.88 L854.08,787.013333 C854.345097,786.659871 854.846538,786.588237 855.2,786.853333 C855.260645,786.898817 855.314517,786.952689 855.36,787.013333 Z" id="三角形备份-21" fill="#1890FF" transform="translate(854.720000, 789.160000) rotate(-180.000000) translate(-854.720000, -789.160000) "></path>
            <path d="M450.36,25.5906061 L453.26,29.4572727 C453.525097,29.810735 453.453462,30.3121761 453.1,30.5772727 C452.961523,30.6811304 452.793096,30.7372727 452.62,30.7372727 L446.82,30.7372727 C446.378172,30.7372727 446.02,30.3791005 446.02,29.9372727 C446.02,29.7641766 446.076142,29.5957497 446.18,29.4572727 L449.08,25.5906061 C449.345097,25.2371438 449.846538,25.1655094 450.2,25.4306061 C450.260645,25.4760895 450.314517,25.5299615 450.36,25.5906061 Z" id="三角形备份" fill="#1890FF" transform="translate(449.720000, 27.737273) rotate(-270.000000) translate(-449.720000, -27.737273) "></path>
            <path d="M1099.93707,503.536328 L1102.83707,507.402994 C1103.10216,507.756456 1103.03053,508.257898 1102.67707,508.522994 C1102.53859,508.626852 1102.37016,508.682994 1102.19707,508.682994 L1096.39707,508.682994 C1095.95524,508.682994 1095.59707,508.324822 1095.59707,507.882994 C1095.59707,507.709898 1095.65321,507.541471 1095.75707,507.402994 L1098.65707,503.536328 C1098.92216,503.182865 1099.4236,503.111231 1099.77707,503.376328 C1099.83771,503.421811 1099.89158,503.475683 1099.93707,503.536328 Z" id="三角形备份-12" fill="#1890FF" transform="translate(1099.297067, 505.682994) rotate(-270.000000) translate(-1099.297067, -505.682994) "></path>
            <path d="M1025.36,374.013333 L1028.26,377.88 C1028.5251,378.233462 1028.45346,378.734903 1028.1,379 C1027.96152,379.103858 1027.7931,379.16 1027.62,379.16 L1021.82,379.16 C1021.37817,379.16 1021.02,378.801828 1021.02,378.36 C1021.02,378.186904 1021.07614,378.018477 1021.18,377.88 L1024.08,374.013333 C1024.3451,373.659871 1024.84654,373.588237 1025.2,373.853333 C1025.26064,373.898817 1025.31452,373.952689 1025.36,374.013333 Z" id="三角形备份-12" fill="#1890FF"></path>
            <path d="M1025.44897,637.597182 L1028.34897,641.463848 C1028.61406,641.81731 1028.54243,642.318752 1028.18897,642.583848 C1028.05049,642.687706 1027.88206,642.743848 1027.70897,642.743848 L1021.90897,642.743848 C1021.46714,642.743848 1021.10897,642.385676 1021.10897,641.943848 C1021.10897,641.770752 1021.16511,641.602325 1021.26897,641.463848 L1024.16897,637.597182 C1024.43406,637.243719 1024.9355,637.172085 1025.28897,637.437182 C1025.34961,637.482665 1025.40348,637.536537 1025.44897,637.597182 Z" id="三角形备份-12" fill="#1890FF" transform="translate(1024.808966, 639.743848) rotate(-180.000000) translate(-1024.808966, -639.743848) "></path>
            <path d="M852.36,268.013333 L855.26,271.88 C855.525097,272.233462 855.453462,272.734903 855.1,273 C854.961523,273.103858 854.793096,273.16 854.62,273.16 L848.82,273.16 C848.378172,273.16 848.02,272.801828 848.02,272.36 C848.02,272.186904 848.076142,272.018477 848.18,271.88 L851.08,268.013333 C851.345097,267.659871 851.846538,267.588237 852.2,267.853333 C852.260645,267.898817 852.314517,267.952689 852.36,268.013333 Z" id="三角形备份-3" fill="#1890FF" transform="translate(851.720000, 270.160000) rotate(-180.000000) translate(-851.720000, -270.160000) "></path>
            <path d="M122.774158,268.012737 L125.674158,271.879404 C125.939255,272.232866 125.867621,272.734307 125.514158,272.999404 C125.375681,273.103261 125.207255,273.159404 125.034158,273.159404 L119.234158,273.159404 C118.792331,273.159404 118.434158,272.801231 118.434158,272.359404 C118.434158,272.186307 118.490301,272.01788 118.594158,271.879404 L121.494158,268.012737 C121.759255,267.659275 122.260696,267.58764 122.614158,267.852737 C122.674803,267.89822 122.728675,267.952092 122.774158,268.012737 Z" id="三角形备份-15" fill="#1890FF" transform="translate(122.134158, 270.159404) rotate(-180.000000) translate(-122.134158, -270.159404) "></path>
            <path d="M851.280047,362.249638 L848.380047,358.382971 C848.11495,358.029509 848.186585,357.528068 848.540047,357.262971 C848.678524,357.159113 848.846951,357.102971 849.020047,357.102971 L854.820047,357.102971 C855.261875,357.102971 855.620047,357.461143 855.620047,357.902971 C855.620047,358.076067 855.563905,358.244494 855.460047,358.382971 L852.560047,362.249638 C852.29495,362.6031 851.793509,362.674734 851.440047,362.409638 C851.379403,362.364154 851.32553,362.310282 851.280047,362.249638 Z" id="三角形备份-17" fill="#1890FF"></path>
            <path d="M169.36,300.013333 L172.26,303.88 C172.525097,304.233462 172.453462,304.734903 172.1,305 C171.961523,305.103858 171.793096,305.16 171.62,305.16 L165.82,305.16 C165.378172,305.16 165.02,304.801828 165.02,304.36 C165.02,304.186904 165.076142,304.018477 165.18,303.88 L168.08,300.013333 C168.345097,299.659871 168.846538,299.588237 169.2,299.853333 C169.260645,299.898817 169.314517,299.952689 169.36,300.013333 Z" id="三角形备份-9" fill="#1890FF" transform="translate(168.720000, 302.160000) rotate(-90.000000) translate(-168.720000, -302.160000) "></path>
            <g id="编组-141" transform="translate(146.220000, 391.160000)" fill="#1890FF">
                <g id="编组-134备份-2">
                    <rect id="矩形备份-6" x="0.52022898" y="3.92272726" width="73" height="1"></rect>
                    <path d="M75.340229,2.35333333 L78.240229,6.22 C78.5053257,6.57346224 78.4336912,7.07490332 78.080229,7.34 C77.941752,7.4438577 77.7733252,7.5 77.600229,7.5 L71.800229,7.5 C71.3584012,7.5 71.000229,7.1418278 71.000229,6.7 C71.000229,6.52690383 71.0563713,6.35847694 71.160229,6.22 L74.060229,2.35333333 C74.3253257,1.99987109 74.8267667,1.92823665 75.180229,2.19333333 C75.2408735,2.23881673 75.2947456,2.2926888 75.340229,2.35333333 Z" id="三角形" transform="translate(74.700229, 4.500000) rotate(-270.000000) translate(-74.700229, -4.500000) "></path>
                </g>
            </g>
            <g id="编组-141备份-5" transform="translate(598.220000, 391.160000)" fill="#1890FF">
                <g id="编组-134备份-2">
                    <rect id="矩形备份-6" x="0.52022898" y="3.92272726" width="73" height="1"></rect>
                    <path d="M75.340229,2.35333333 L78.240229,6.22 C78.5053257,6.57346224 78.4336912,7.07490332 78.080229,7.34 C77.941752,7.4438577 77.7733252,7.5 77.600229,7.5 L71.800229,7.5 C71.3584012,7.5 71.000229,7.1418278 71.000229,6.7 C71.000229,6.52690383 71.0563713,6.35847694 71.160229,6.22 L74.060229,2.35333333 C74.3253257,1.99987109 74.8267667,1.92823665 75.180229,2.19333333 C75.2408735,2.23881673 75.2947456,2.2926888 75.340229,2.35333333 Z" id="三角形" transform="translate(74.700229, 4.500000) rotate(-270.000000) translate(-74.700229, -4.500000) "></path>
                </g>
            </g>
            <g id="编组-141备份-6" transform="translate(875.220000, 391.160000)" fill="#1890FF">
                <g id="编组-134备份-2">
                    <rect id="矩形备份-6" x="0.52022898" y="3.92272726" width="73" height="1"></rect>
                    <path d="M75.340229,2.35333333 L78.240229,6.22 C78.5053257,6.57346224 78.4336912,7.07490332 78.080229,7.34 C77.941752,7.4438577 77.7733252,7.5 77.600229,7.5 L71.800229,7.5 C71.3584012,7.5 71.000229,7.1418278 71.000229,6.7 C71.000229,6.52690383 71.0563713,6.35847694 71.160229,6.22 L74.060229,2.35333333 C74.3253257,1.99987109 74.8267667,1.92823665 75.180229,2.19333333 C75.2408735,2.23881673 75.2947456,2.2926888 75.340229,2.35333333 Z" id="三角形" transform="translate(74.700229, 4.500000) rotate(-270.000000) translate(-74.700229, -4.500000) "></path>
                </g>
            </g>
            <g id="编组-141备份-7" transform="translate(877.220000, 820.160000)" fill="#1890FF">
                <g id="编组-134备份-2">
                    <rect id="矩形备份-6" x="0.52022898" y="3.92272726" width="73" height="1"></rect>
                    <path d="M75.340229,2.35333333 L78.240229,6.22 C78.5053257,6.57346224 78.4336912,7.07490332 78.080229,7.34 C77.941752,7.4438577 77.7733252,7.5 77.600229,7.5 L71.800229,7.5 C71.3584012,7.5 71.000229,7.1418278 71.000229,6.7 C71.000229,6.52690383 71.0563713,6.35847694 71.160229,6.22 L74.060229,2.35333333 C74.3253257,1.99987109 74.8267667,1.92823665 75.180229,2.19333333 C75.2408735,2.23881673 75.2947456,2.2926888 75.340229,2.35333333 Z" id="三角形" transform="translate(74.700229, 4.500000) rotate(-270.000000) translate(-74.700229, -4.500000) "></path>
                </g>
            </g>
            <g id="编组-118" transform="translate(98.220000, 184.160000)">
                <g id="编组-32备份-2">
                    <g id="编组-31">
                        <g id="编组-99"></g>
                    </g>
                </g>
            </g>
            <g id="编组-117" transform="translate(84.580000, 277.200000)"></g>
            <g id="编组-116" transform="translate(99.220000, 367.160000)">
                <g id="编组-31备份-3">
                    <g id="编组-99"></g>
                </g>
            </g>
            <g id="编组-123" transform="translate(814.980000, 700.480000)"></g>
            <g id="编组-31备份-5" transform="translate(830.820000, 795.520000)">
                <g id="编组-99"></g>
            </g>
            <g id="编组-18" transform="translate(811.580000, 277.200000)"></g>
            <g id="编组-20备份-2" transform="translate(587.220000, 64.160000)"></g>
            <g id="编组-20备份-3" transform="translate(790.220000, 64.160000)"></g>
            <g id="编组-20备份-5" transform="translate(1180.220000, 64.160000)"></g>
        </g>
    </g>
</svg>