<?xml version="1.0" standalone="no"?><!DOCTYPE svg PUBLIC "-//W3C//DTD SVG 1.1//EN" "http://www.w3.org/Graphics/SVG/1.1/DTD/svg11.dtd"><svg t="1636097555413" class="icon" viewBox="0 0 1024 1024" version="1.1" xmlns="http://www.w3.org/2000/svg" p-id="2637" xmlns:xlink="http://www.w3.org/1999/xlink" width="200" height="200"><defs><style type="text/css"></style></defs><path d="M768 512a256 256 0 1 1 0 512 256 256 0 0 1 0-512z m0-448a128 128 0 0 1 128 128v282.624a317.76 317.76 0 0 0-83.2-23.488V192a44.8 44.8 0 0 0-38.72-44.416L768 147.2H256a44.8 44.8 0 0 0-44.416 38.72L211.2 192v640a44.8 44.8 0 0 0 38.72 44.416L256 876.8h211.008c10.88 30.144 26.112 58.176 45.056 83.264L256 960a128 128 0 0 1-128-128V192a128 128 0 0 1 128-128h512z m0 518.4a185.6 185.6 0 1 0 0 371.2 185.6 185.6 0 0 0 0-371.2z m150.912 98.624a32 32 0 0 1 3.712 40.832l-3.648 4.48-159.68 160a32 32 0 0 1-40.768 3.712l-4.48-3.648-96.32-96a32 32 0 0 1 40.704-49.088l4.48 3.712 73.664 73.408 137.088-137.344a32 32 0 0 1 45.248 0zM512 438.4a41.6 41.6 0 0 1 6.144 82.752L512 521.6H320a41.6 41.6 0 0 1-6.144-82.752L320 438.4h192z m192-192a41.6 41.6 0 0 1 6.144 82.752L704 329.6H320a41.6 41.6 0 0 1-6.144-82.752L320 246.4h384z" fill="#333333" p-id="2638"></path></svg>